<svg width="36" height="36" viewBox="0 0 36 36" fill="none" xmlns="http://www.w3.org/2000/svg">
<path d="M35.9078 17.6212L30.682 9.49218C30.6294 9.41044 30.5571 9.34322 30.4718 9.29668C30.3864 9.25014 30.2908 9.22577 30.1935 9.22581H23.2258V6.03226C23.2252 5.49345 23.0109 4.97689 22.6299 4.59589C22.2489 4.2149 21.7324 4.0006 21.1935 4H2.03226C1.49345 4.0006 0.976886 4.2149 0.595892 4.59589C0.214899 4.97689 0.000595546 5.49345 0 6.03226V27.2258C0 27.3798 0.0611749 27.5275 0.170067 27.6364C0.278959 27.7453 0.426648 27.8065 0.580645 27.8065H2.94532C3.0849 28.7737 3.56836 29.6583 4.30712 30.2981C5.04587 30.9379 5.99044 31.2901 6.96774 31.2901C7.94504 31.2901 8.88961 30.9379 9.62837 30.2981C10.3671 29.6583 10.8506 28.7737 10.9902 27.8065H25.0098C25.1494 28.7737 25.6329 29.6583 26.3716 30.2981C27.1104 30.9379 28.055 31.2901 29.0323 31.2901C30.0096 31.2901 30.9541 30.9379 31.6929 30.2981C32.4316 29.6583 32.9151 28.7737 33.0547 27.8065H35.4194C35.5734 27.8065 35.721 27.7453 35.8299 27.6364C35.9388 27.5275 36 27.3798 36 27.2258V17.9355C36 17.8241 35.968 17.715 35.9078 17.6212V17.6212ZM6.96774 30.129C6.39354 30.129 5.83223 29.9588 5.3548 29.6398C4.87736 29.3207 4.50525 28.8673 4.28551 28.3368C4.06577 27.8063 4.00828 27.2226 4.1203 26.6594C4.23232 26.0962 4.50883 25.5789 4.91485 25.1729C5.32087 24.7669 5.83818 24.4904 6.40135 24.3784C6.96452 24.2663 7.54826 24.3238 8.07876 24.5436C8.60925 24.7633 9.06268 25.1354 9.38169 25.6129C9.7007 26.0903 9.87097 26.6516 9.87097 27.2258C9.8702 27.9956 9.56408 28.7336 9.01978 29.2778C8.47549 29.8221 7.73749 30.1283 6.96774 30.129V30.129ZM22.0645 26.6452H10.9902C10.8506 25.6779 10.3671 24.7933 9.62837 24.1535C8.88961 23.5137 7.94504 23.1615 6.96774 23.1615C5.99044 23.1615 5.04587 23.5137 4.30712 24.1535C3.56836 24.7933 3.0849 25.6779 2.94532 26.6452H1.16129V20.8387H22.0645V26.6452ZM22.0645 19.6774H1.16129V6.03226C1.16148 5.80132 1.25331 5.5799 1.4166 5.4166C1.5799 5.25331 1.80132 5.16148 2.03226 5.16129H21.1935C21.4245 5.16148 21.6459 5.25331 21.8092 5.4166C21.9725 5.5799 22.0643 5.80132 22.0645 6.03226V19.6774ZM30.9963 12.129L34.356 17.3548H26.129V12.129H30.9963ZM29.0323 30.129C28.4581 30.129 27.8967 29.9588 27.4193 29.6398C26.9419 29.3207 26.5698 28.8673 26.35 28.3368C26.1303 27.8063 26.0728 27.2226 26.1848 26.6594C26.2968 26.0962 26.5733 25.5789 26.9794 25.1729C27.3854 24.7669 27.9027 24.4904 28.4659 24.3784C29.029 24.2663 29.6128 24.3238 30.1433 24.5436C30.6738 24.7633 31.1272 25.1354 31.4462 25.6129C31.7652 26.0903 31.9355 26.6516 31.9355 27.2258C31.9347 27.9956 31.6286 28.7336 31.0843 29.2778C30.54 29.8221 29.802 30.1283 29.0323 30.129V30.129ZM34.8387 22H33.6774C33.5234 22 33.3757 21.9388 33.2668 21.8299C33.1579 21.721 33.0968 21.5734 33.0968 21.4194C33.0968 21.2654 33.1579 21.1177 33.2668 21.0088C33.3757 20.8999 33.5234 20.8387 33.6774 20.8387H34.8387V22ZM34.8387 19.6774H33.6774C33.2154 19.6774 32.7724 19.8609 32.4457 20.1876C32.119 20.5143 31.9355 20.9574 31.9355 21.4194C31.9355 21.8813 32.119 22.3244 32.4457 22.6511C32.7724 22.9778 33.2154 23.1613 33.6774 23.1613H34.8387V26.6452H33.0547C32.9151 25.6779 32.4316 24.7933 31.6929 24.1535C30.9541 23.5137 30.0096 23.1615 29.0323 23.1615C28.055 23.1615 27.1104 23.5137 26.3716 24.1535C25.6329 24.7933 25.1494 25.6779 25.0098 26.6452H23.2258V10.3871H29.8764L30.2502 10.9677H25.5484C25.3944 10.9677 25.2467 11.0289 25.1378 11.1378C25.0289 11.2467 24.9677 11.3944 24.9677 11.5484V17.9355C24.9677 18.0895 25.0289 18.2372 25.1378 18.3461C25.2467 18.455 25.3944 18.5161 25.5484 18.5161H34.8387V19.6774Z" fill="black"/>
</svg>
