<svg width="36" height="36" viewBox="0 0 36 36" fill="none" xmlns="http://www.w3.org/2000/svg">
<g clip-path="url(#clip0_551_549)">
<path d="M29.7907 25.3464H32.0632C32.3544 25.3464 32.5905 25.1103 32.5905 24.819V6.6355C32.5905 6.34419 32.3544 6.10815 32.0632 6.10815H3.93677C3.64553 6.10815 3.40942 6.34419 3.40942 6.6355V24.819C3.40942 25.1103 3.64553 25.3464 3.93677 25.3464H27.3227C27.6139 25.3464 27.8501 25.1103 27.8501 24.819C27.8501 24.5277 27.6139 24.2917 27.3227 24.2917H4.46411V7.16284H31.5358V24.2917H29.7907C29.4994 24.2917 29.2633 24.5277 29.2633 24.819C29.2633 25.1103 29.4994 25.3464 29.7907 25.3464Z" fill="black"/>
<path d="M35.4727 26.5641H34.8637V5.78323C34.8637 4.70927 33.9897 3.83557 32.9154 3.83557H8.46492C8.17369 3.83557 7.93758 4.07161 7.93758 4.36292C7.93758 4.65422 8.17369 4.89026 8.46492 4.89026H32.9154C33.4081 4.89026 33.8091 5.29083 33.8091 5.78323V26.5641H2.19094V5.78323C2.19094 5.29083 2.59186 4.89026 3.08461 4.89026H5.99977C6.291 4.89026 6.52711 4.65422 6.52711 4.36292C6.52711 4.07161 6.291 3.83557 5.99977 3.83557H3.08461C2.0103 3.83557 1.13625 4.70927 1.13625 5.78323V26.5641H0.527344C0.236109 26.5641 0 26.8001 0 27.0914V29.9328C0 31.1634 1.00118 32.1645 2.23172 32.1645H4.81992C5.11116 32.1645 5.34727 31.9284 5.34727 31.6371C5.34727 31.3458 5.11116 31.1098 4.81992 31.1098H2.23172C1.58273 31.1098 1.05469 30.5817 1.05469 29.9328V27.6188H14.0609L14.344 28.5249C14.5995 29.3424 15.3467 29.8917 16.2032 29.8917H19.7966C20.6532 29.8917 21.4003 29.3424 21.6558 28.5249L21.939 27.6188H34.9453V29.9328C34.9453 30.5817 34.4173 31.1098 33.7683 31.1098H7.28789C6.99666 31.1098 6.76055 31.3458 6.76055 31.6371C6.76055 31.9284 6.99666 32.1645 7.28789 32.1645H33.7683C34.9988 32.1645 36 31.1634 36 29.9328V27.0914C36 26.8001 35.7639 26.5641 35.4727 26.5641V26.5641ZM20.6492 28.2102C20.5321 28.5852 20.1895 28.837 19.7967 28.837H16.2033C15.8105 28.837 15.4679 28.5852 15.3508 28.2102L15.1659 27.6188H20.8341L20.6492 28.2102Z" fill="black"/>
<path d="M13.2411 16.5386C13.4925 16.5386 13.7089 16.3612 13.7582 16.1147L14.3975 12.9184C14.4284 12.7635 14.3884 12.6029 14.2882 12.4807C14.188 12.3585 14.0384 12.2877 13.8804 12.2877H9.83183C9.5406 12.2877 9.30449 12.5237 9.30449 12.815C9.30449 13.1063 9.5406 13.3424 9.83183 13.3424H13.2371L12.8088 15.4839H8.70866L8.00659 11.6545C7.96068 11.404 7.7425 11.2223 7.48789 11.2223H6.20947C5.91824 11.2223 5.68213 11.4583 5.68213 11.7496C5.68213 12.0409 5.91824 12.277 6.20947 12.277H7.04851L7.74193 16.0592V18.2842C7.74193 18.5755 7.97804 18.8115 8.26928 18.8115H8.29396C8.27842 18.87 8.26928 18.9311 8.26928 18.9944C8.26928 19.3867 8.5873 19.7047 8.97957 19.7047C9.30139 19.7047 9.5728 19.4906 9.66013 19.1971C9.68087 19.1304 9.69205 19.0595 9.69205 18.9859C9.69205 18.9257 9.68375 18.8674 9.66962 18.8115H10.8509C10.8483 18.8221 10.845 18.8325 10.8429 18.8433C10.8322 18.892 10.8263 18.9425 10.8263 18.9945C10.8263 19.3868 11.1444 19.7048 11.5366 19.7048C11.8802 19.7048 12.1668 19.4607 12.2327 19.1365C12.2431 19.088 12.249 19.0377 12.249 18.986C12.249 18.9257 12.2407 18.8675 12.2265 18.8116H12.389C12.6802 18.8116 12.9163 18.5756 12.9163 18.2843C12.9163 17.993 12.6802 17.7569 12.389 17.7569H8.79669V16.5388H13.2411V16.5386Z" fill="black"/>
<path d="M20.374 10.0449C20.374 9.75362 20.1379 9.51758 19.8467 9.51758H17.5739C17.2826 9.51758 17.0465 9.75362 17.0465 10.0449V12.3178C17.0465 12.6091 17.2826 12.8451 17.5739 12.8451H19.8467C20.1379 12.8451 20.374 12.6091 20.374 12.3178V10.0449ZM19.3194 11.7905H18.1012V10.5723H19.3194V11.7905Z" fill="black"/>
<path d="M22.1196 12.8452H26.9495C27.2407 12.8452 27.4768 12.6092 27.4768 12.3179C27.4768 12.0266 27.2407 11.7905 26.9495 11.7905H22.1196C21.8284 11.7905 21.5923 12.0266 21.5923 12.3179C21.5923 12.6092 21.8284 12.8452 22.1196 12.8452V12.8452Z" fill="black"/>
<path d="M22.1196 10.5723H29.7906C30.0818 10.5723 30.3179 10.3362 30.3179 10.0449C30.3179 9.75362 30.0818 9.51758 29.7906 9.51758H22.1196C21.8284 9.51758 21.5923 9.75362 21.5923 10.0449C21.5923 10.3362 21.8284 10.5723 22.1196 10.5723Z" fill="black"/>
<path d="M20.374 14.5907C20.374 14.2994 20.1379 14.0634 19.8467 14.0634H17.5739C17.2826 14.0634 17.0465 14.2994 17.0465 14.5907V16.8636C17.0465 17.1549 17.2826 17.3909 17.5739 17.3909H19.8467C20.1379 17.3909 20.374 17.1549 20.374 16.8636V14.5907ZM19.3194 16.3362H18.1012V15.118H19.3194V16.3362Z" fill="black"/>
<path d="M22.1196 17.391H26.9495C27.2407 17.391 27.4768 17.155 27.4768 16.8636C27.4768 16.5723 27.2407 16.3363 26.9495 16.3363H22.1196C21.8284 16.3363 21.5923 16.5723 21.5923 16.8636C21.5923 17.155 21.8284 17.391 22.1196 17.391V17.391Z" fill="black"/>
<path d="M22.1196 15.118H29.7906C30.0818 15.118 30.3179 14.882 30.3179 14.5907C30.3179 14.2994 30.0818 14.0634 29.7906 14.0634H22.1196C21.8284 14.0634 21.5923 14.2994 21.5923 14.5907C21.5923 14.882 21.8284 15.118 22.1196 15.118Z" fill="black"/>
<path d="M19.8467 18.6091H17.5739C17.2826 18.6091 17.0465 18.8452 17.0465 19.1365V21.4093C17.0465 21.7006 17.2826 21.9367 17.5739 21.9367H19.8467C20.1379 21.9367 20.374 21.7006 20.374 21.4093V19.1365C20.374 18.8452 20.1379 18.6091 19.8467 18.6091ZM19.3194 20.882H18.1012V19.6638H19.3194V20.882Z" fill="black"/>
<path d="M22.1196 20.882C21.8284 20.882 21.5923 21.118 21.5923 21.4093C21.5923 21.7006 21.8284 21.9366 22.1196 21.9366H26.9495C27.2407 21.9366 27.4768 21.7006 27.4768 21.4093C27.4768 21.118 27.2407 20.882 26.9495 20.882H22.1196Z" fill="black"/>
<path d="M30.3179 19.1365C30.3179 18.8452 30.0818 18.6091 29.7906 18.6091H22.1196C21.8284 18.6091 21.5923 18.8452 21.5923 19.1365C21.5923 19.4278 21.8284 19.6638 22.1196 19.6638H29.7906C30.0818 19.6638 30.3179 19.4278 30.3179 19.1365Z" fill="black"/>
</g>
<defs>
<clipPath id="clip0_551_549">
<rect width="36" height="36" fill="white"/>
</clipPath>
</defs>
</svg>
