<svg width="36" height="36" viewBox="0 0 36 36" fill="none" xmlns="http://www.w3.org/2000/svg">
<g clip-path="url(#clip0_551_538)">
<path d="M32.2501 31.5H3.75012C3.33612 31.5 3.00012 31.164 3.00012 30.75C3.00012 30.336 3.33612 30 3.75012 30H32.2501C32.6641 30 33.0001 30.336 33.0001 30.75C33.0001 31.164 32.6641 31.5 32.2501 31.5Z" fill="black"/>
<path d="M32.2501 15H3.75012C3.33612 15 3.00012 14.664 3.00012 14.25C3.00012 13.836 3.33612 13.5 3.75012 13.5H32.2501C32.6641 13.5 33.0001 13.836 33.0001 14.25C33.0001 14.664 32.6641 15 32.2501 15Z" fill="black"/>
<path d="M29.25 31.5H18.75C18.336 31.5 18 31.164 18 30.75V20.25C18 19.836 18.336 19.5 18.75 19.5H29.25C29.664 19.5 30 19.836 30 20.25V30.75C30 31.164 29.664 31.5 29.25 31.5ZM19.5 30H28.5V21H19.5V30Z" fill="black"/>
<path d="M24.0001 25.5C23.5861 25.5 23.2501 25.164 23.2501 24.75V20.25C23.2501 19.836 23.5861 19.5 24.0001 19.5C24.4141 19.5 24.7501 19.836 24.7501 20.25V24.75C24.7501 25.164 24.4141 25.5 24.0001 25.5Z" fill="black"/>
<path d="M18.7501 15H8.25012C7.83612 15 7.50012 14.664 7.50012 14.25V3.75C7.50012 3.336 7.83612 3 8.25012 3H18.7501C19.1641 3 19.5001 3.336 19.5001 3.75V14.25C19.5001 14.664 19.1641 15 18.7501 15ZM9.00012 13.5H18.0001V4.5H9.00012V13.5Z" fill="black"/>
<path d="M13.4999 9C13.0859 9 12.7499 8.664 12.7499 8.25V3.75C12.7499 3.336 13.0859 3 13.4999 3C13.9139 3 14.2499 3.336 14.2499 3.75V8.25C14.2499 8.664 13.9139 9 13.4999 9Z" fill="black"/>
<path d="M15.7499 31.5H6.74988C6.33588 31.5 5.99988 31.164 5.99988 30.75V21.75C5.99988 21.336 6.33588 21 6.74988 21H15.7499C16.1639 21 16.4999 21.336 16.4999 21.75V30.75C16.4999 31.164 16.1639 31.5 15.7499 31.5ZM7.49988 30H14.9999V22.5H7.49988V30Z" fill="black"/>
<path d="M11.2499 25.5C10.8359 25.5 10.4999 25.164 10.4999 24.75V21.75C10.4999 21.336 10.8359 21 11.2499 21C11.6639 21 11.9999 21.336 11.9999 21.75V24.75C11.9999 25.164 11.6639 25.5 11.2499 25.5Z" fill="black"/>
<path d="M3.75 36H0.75C0.336 36 0 35.664 0 35.25V0.75C0 0.336 0.336 0 0.75 0H3.75C4.164 0 4.5 0.336 4.5 0.75V35.25C4.5 35.664 4.164 36 3.75 36ZM1.5 34.5H3V1.5H1.5V34.5Z" fill="black"/>
<path d="M35.25 36H32.25C31.836 36 31.5 35.664 31.5 35.25V0.75C31.5 0.336 31.836 0 32.25 0H35.25C35.664 0 36 0.336 36 0.75V35.25C36 35.664 35.664 36 35.25 36ZM33 34.5H34.5V1.5H33V34.5Z" fill="black"/>
</g>
<defs>
<clipPath id="clip0_551_538">
<rect width="36" height="36" fill="white"/>
</clipPath>
</defs>
</svg>
