<svg width="36" height="36" viewBox="0 0 36 36" fill="none" xmlns="http://www.w3.org/2000/svg">
<g clip-path="url(#clip0_551_531)">
<path d="M32.625 0.5625H5.625C4.07419 0.5625 2.8125 1.82419 2.8125 3.375V25.3125H2.25C1.31962 25.3125 0.5625 26.0696 0.5625 27V33.75C0.5625 34.6804 1.31962 35.4375 2.25 35.4375H11.25C12.1804 35.4375 12.9375 34.6804 12.9375 33.75V30.9375H32.625C34.1758 30.9375 35.4375 29.6758 35.4375 28.125V3.375C35.4375 1.82419 34.1758 0.5625 32.625 0.5625ZM26.4375 27.5625V26.334C26.6141 26.397 26.802 26.4375 27 26.4375C27.9304 26.4375 28.6875 25.6804 28.6875 24.75V9C28.6875 8.06962 27.9304 7.3125 27 7.3125C26.802 7.3125 26.6141 7.353 26.4375 7.416V6.1875H34.3125V27.5625H26.4375ZM17.4375 27.5625H15.084C15.147 27.3859 15.1875 27.198 15.1875 27V22.5C15.1875 22.302 15.147 22.1141 15.084 21.9375H16.875C17.073 21.9375 17.2609 21.897 17.4375 21.834V27.5625ZM11.25 25.3125H6.1875V22.5C6.1875 22.1895 6.44006 21.9375 6.75 21.9375H8.4375V24.1875H11.8125V21.9375H13.5C13.8099 21.9375 14.0625 22.1895 14.0625 22.5V27C14.0625 27.3105 13.8099 27.5625 13.5 27.5625H12.9375V27C12.9375 26.0696 12.1804 25.3125 11.25 25.3125ZM6.1875 27.5625V28.6875H5.0625V26.4375H8.4375V28.6875H7.3125V27.5625H6.1875ZM13.5 20.8125H10.125C9.81506 20.8125 9.5625 20.5605 9.5625 20.25V15.75C9.5625 15.4401 9.81506 15.1875 10.125 15.1875H11.8125V17.4375H15.1875V15.1875H16.875C17.1849 15.1875 17.4375 15.4401 17.4375 15.75V20.25C17.4375 20.5605 17.1849 20.8125 16.875 20.8125H13.5ZM9.5625 13.5V9C9.5625 8.69006 9.81506 8.4375 10.125 8.4375H11.8125V10.6875H15.1875V8.4375H16.875C17.1849 8.4375 17.4375 8.69006 17.4375 9V13.5C17.4375 13.8099 17.1849 14.0625 16.875 14.0625H10.125C9.81506 14.0625 9.5625 13.8099 9.5625 13.5ZM12.9375 8.4375H14.0625V9.5625H12.9375V8.4375ZM12.9375 15.1875H14.0625V16.3125H12.9375V15.1875ZM9.5625 21.9375H10.125H10.6875V23.0625H9.5625V21.9375ZM17.4375 7.416C17.2609 7.353 17.073 7.3125 16.875 7.3125H10.125C9.19462 7.3125 8.4375 8.06962 8.4375 9V13.5C8.4375 13.9337 8.60681 14.3257 8.87625 14.625C8.60625 14.9243 8.4375 15.3163 8.4375 15.75V20.25C8.4375 20.448 8.478 20.6359 8.541 20.8125H6.75C6.552 20.8125 6.36413 20.853 6.1875 20.916V6.1875H17.4375V7.416ZM18.5625 20.25V15.75V13.5V9V6.04912L25.3125 4.12031V9V24.75V29.6291L18.5625 27.7009V20.25ZM26.4375 9C26.4375 8.69006 26.6901 8.4375 27 8.4375C27.3099 8.4375 27.5625 8.69006 27.5625 9V24.75C27.5625 25.0605 27.3099 25.3125 27 25.3125C26.6901 25.3125 26.4375 25.0605 26.4375 24.75V9ZM26.4375 5.0625V3.9375H34.3125V5.0625H26.4375ZM5.625 1.6875H32.625C33.3574 1.6875 33.9761 2.15944 34.209 2.8125H4.041C4.27388 2.15944 4.89262 1.6875 5.625 1.6875V1.6875ZM3.9375 3.9375H21.8588L17.9213 5.0625H5.0625V22.5V25.3125H3.9375V3.9375ZM11.8125 33.75C11.8125 34.0605 11.5599 34.3125 11.25 34.3125H2.25C1.94006 34.3125 1.6875 34.0605 1.6875 33.75V27C1.6875 26.6895 1.94006 26.4375 2.25 26.4375H3.9375V29.8125H9.5625V26.4375H11.25C11.5599 26.4375 11.8125 26.6895 11.8125 27V33.75ZM12.9375 28.6875H13.5H17.9218L21.8588 29.8125H12.9375V28.6875ZM32.625 29.8125H26.4375V28.6875H34.209C33.9761 29.3406 33.3574 29.8125 32.625 29.8125Z" fill="black"/>
<path d="M31.5 7.3125C30.5696 7.3125 29.8125 8.06962 29.8125 9V24.75C29.8125 25.6804 30.5696 26.4375 31.5 26.4375C32.4304 26.4375 33.1875 25.6804 33.1875 24.75V9C33.1875 8.06962 32.4304 7.3125 31.5 7.3125ZM32.0625 24.75C32.0625 25.0605 31.8099 25.3125 31.5 25.3125C31.1901 25.3125 30.9375 25.0605 30.9375 24.75V9C30.9375 8.69006 31.1901 8.4375 31.5 8.4375C31.8099 8.4375 32.0625 8.69006 32.0625 9V24.75Z" fill="black"/>
</g>
<defs>
<clipPath id="clip0_551_531">
<rect width="36" height="36" fill="white"/>
</clipPath>
</defs>
</svg>
