<svg width="36" height="36" viewBox="0 0 36 36" fill="none" xmlns="http://www.w3.org/2000/svg">
<g clip-path="url(#clip0_551_536)">
<path d="M33.0882 22.303C32.9741 22.3603 32.8807 22.4531 32.824 22.5672L29.6741 28.8663C29.5784 29.0578 29.3531 29.1518 29.1492 29.0832C28.9287 29.0099 28.8057 28.777 28.8695 28.5535L29.7823 25.3588C29.8497 25.1229 29.7646 24.8699 29.5677 24.7227C29.3709 24.5761 29.1037 24.5654 28.8967 24.6978L23.6666 28.0262C23.4797 28.145 23.2598 28.1775 23.0476 28.1184C22.8354 28.0593 22.6639 27.9186 22.5652 27.7211C22.3985 27.3883 22.4936 26.9851 22.7916 26.7617L26.613 23.8962C26.8365 23.7289 26.9121 23.4274 26.7945 23.1738C26.6769 22.9202 26.3972 22.7842 26.1259 22.8469L19.9403 24.274C19.7009 24.3301 19.4538 24.2864 19.2475 24.1534C19.04 24.0192 18.8999 23.8128 18.8514 23.571C18.755 23.0892 19.0678 22.6133 19.5484 22.5099L26.383 21.0449C26.6591 20.9858 26.8548 20.7399 26.8507 20.4579C26.8459 20.1753 26.6426 19.9359 26.3653 19.8856L21.4431 18.9906C21.18 18.9427 20.953 18.7943 20.8029 18.5732C20.6527 18.3527 20.5989 18.0867 20.6515 17.8248C20.7503 17.3323 21.2007 16.9894 21.7015 17.0344L27.3928 17.5085C27.618 17.5333 27.8421 17.4121 27.9562 17.2117C28.0697 17.0113 28.0567 16.763 27.9231 16.5762L25.6594 13.408C25.4265 13.0823 25.4632 12.6401 25.7463 12.3569C26.0484 12.0548 26.5379 12.0377 26.8601 12.3197L30.5987 15.5913C30.7661 15.7367 31.0002 15.7769 31.2077 15.6953L37.1195 13.3306L36.6802 12.2328L31.1048 14.4627L30.2553 13.7196L28.1252 2.21698L28.1199 2.21816C28.1063 2.14308 28.0833 2.06919 28.0401 2.00238C27.9101 1.80197 27.6736 1.70029 27.4365 1.74344L7.67214 5.40227C7.51784 5.43124 7.38127 5.51932 7.2926 5.64879L3.50312 11.1598C3.41445 11.2893 3.38016 11.4477 3.40913 11.602L5.09399 20.7056L1.648 19.3275L1.20875 20.4254L7.12056 22.7901C7.32866 22.8729 7.56277 22.8321 7.72948 22.686L11.4681 19.4145C11.7897 19.1325 12.2798 19.149 12.5819 19.4517C12.8651 19.7349 12.9023 20.1777 12.6688 20.5028L10.4058 23.671C10.2722 23.8578 10.2591 24.1061 10.3727 24.3065C10.4862 24.5069 10.7073 24.6269 10.9361 24.6033L16.6274 24.1291C17.1305 24.0895 17.5792 24.4277 17.6773 24.9195C17.7293 25.1808 17.6761 25.4475 17.526 25.668C17.3758 25.8891 17.1488 26.0375 16.8857 26.0853L11.9635 26.9804C11.6857 27.0306 11.4829 27.2701 11.4782 27.5527C11.474 27.8352 11.6697 28.0812 11.9458 28.1397L18.7804 29.6046C19.2611 29.7081 19.5738 30.1834 19.4774 30.6658C19.429 30.9076 19.2883 31.1145 19.0813 31.2481C18.8744 31.3811 18.6285 31.4249 18.3879 31.3687L12.203 29.9416C11.9322 29.8795 11.652 30.0149 11.5343 30.2685C11.4167 30.5222 11.4918 30.8231 11.7152 30.9904L15.5366 33.8564C15.834 34.0799 15.9298 34.4837 15.763 34.8159C15.6643 35.0134 15.4929 35.1541 15.2806 35.2132C15.0672 35.2717 14.8479 35.2398 14.6623 35.121L9.43149 31.7926C9.20862 31.6513 8.91598 31.6744 8.71794 31.8529C8.52107 32.0309 8.46668 32.3182 8.58492 32.5558L9.76728 34.9206C9.94759 35.2806 9.80098 35.721 9.44036 35.9007C9.26655 35.9876 9.06851 36.0018 8.88288 35.9403C8.69784 35.8789 8.54768 35.7488 8.46018 35.5738L5.50427 29.662C5.44693 29.5479 5.35411 29.4545 5.24002 29.3977L1.69293 27.6242L1.16382 28.6818L4.53474 30.3673L7.40256 36.1029C7.63134 36.5599 8.02389 36.901 8.50866 37.0624C8.7073 37.1286 8.91184 37.1617 9.11521 37.1617C9.40844 37.1617 9.6993 37.0931 9.96947 36.9584C10.9124 36.486 11.2967 35.335 10.8249 34.3914L10.5967 33.9356L14.0267 36.1177C14.4926 36.4139 15.0643 36.4996 15.5957 36.3518C16.1272 36.2046 16.5736 35.8369 16.8201 35.3438C17.2422 34.499 17.0004 33.4757 16.2455 32.9099L14.6611 31.7217L18.1219 32.5204C18.6752 32.648 19.2439 32.5487 19.7222 32.2407C20.2005 31.9321 20.525 31.455 20.6368 30.897C20.8448 29.8553 20.2211 28.8355 19.2309 28.5133L21.4496 28.1025C21.4691 28.1515 21.4839 28.2018 21.5076 28.2503C21.7541 28.7433 22.2004 29.111 22.7319 29.2582C23.2628 29.4048 23.835 29.3197 24.3009 29.0241L28.2175 26.5317L27.7327 28.2296C27.4945 29.0637 27.9526 29.9322 28.775 30.2059C28.9417 30.262 29.1125 30.2886 29.281 30.2886C29.8793 30.2886 30.4527 29.954 30.7318 29.396L33.7929 23.2731L37.1638 21.5876L36.6347 20.53L33.0882 22.303ZM23.4058 7.29878L17.4928 8.39365L20.3347 4.2607L26.2477 3.16583L23.4058 7.29878ZM12.8426 9.25441L15.6844 5.12146L18.6906 4.56456L15.8488 8.69751L12.8426 9.25441ZM15.724 9.92303L16.9076 16.3173L13.4202 16.9634L12.2361 10.5686L15.724 9.92303ZM8.12794 6.52019L14.0403 5.42532L11.1985 9.55827L5.28613 10.6531L8.12794 6.52019ZM10.6901 18.5241L7.22402 21.5575L6.39282 21.2252L4.67898 11.9679L11.0732 10.7844L12.3649 17.7597C12.3951 17.9229 12.4932 18.0518 12.6203 18.1375C11.9712 17.9282 11.2346 18.0482 10.6901 18.5241V18.5241ZM16.5298 22.9515L12.1107 23.3192L13.6318 21.1892C14.2017 20.3917 14.1125 19.3086 13.419 18.6152C13.2529 18.4491 13.0613 18.3231 12.8586 18.228C12.8881 18.2327 12.9153 18.2433 12.9461 18.2433C12.9815 18.2433 13.0182 18.2404 13.0543 18.2333L17.7045 17.3725C17.8588 17.3435 17.9953 17.2555 18.084 17.126C18.1727 16.9965 18.207 16.8381 18.178 16.6838L16.8869 9.70784L23.2811 8.5243L23.5418 9.93367L24.7047 9.71907L24.3807 7.96918L27.2225 3.83564L28.8199 12.4645L27.6381 11.4305C26.8495 10.7412 25.6512 10.7802 24.9092 11.5216C24.2158 12.2156 24.1265 13.2987 24.6964 14.0956L26.2175 16.2256L21.7984 15.8579C20.697 15.7651 19.7074 16.5118 19.4904 17.5942C19.3752 18.1694 19.4934 18.7535 19.8233 19.2389C20.1532 19.7242 20.6527 20.0494 21.2303 20.1546L23.2149 20.5152L19.2995 21.3547C18.4039 21.5468 17.7707 22.3024 17.6737 23.1714C17.3297 23 16.9377 22.9178 16.5298 22.9515V22.9515ZM21.3574 26.9171L16.2756 27.8583L15.1133 27.6088L17.0979 27.2482C17.6755 27.143 18.1751 26.8178 18.5044 26.3325C18.7201 26.0144 18.8354 25.6526 18.8638 25.2796C19.2824 25.4741 19.7482 25.5314 20.2052 25.4262L23.666 24.6275L22.0816 25.8158C21.7086 26.0966 21.4614 26.4897 21.3574 26.9171Z" fill="black"/>
</g>
<defs>
<clipPath id="clip0_551_536">
<rect width="36" height="36" fill="white"/>
</clipPath>
</defs>
</svg>
