<svg width="52" height="52" viewBox="0 0 52 52" fill="none" xmlns="http://www.w3.org/2000/svg">
<g clip-path="url(#clip0_522_563)">
<path d="M12.3335 37.4835L15.056 42.1618C15.0631 42.1737 15.074 42.1825 15.0811 42.1944C15.0881 42.2062 15.0811 42.208 15.0894 42.2141L16.6187 44.4635C16.7861 44.7108 17.0651 44.8584 17.3638 44.8584H17.4539L27.9365 43.8392C28.0156 43.8313 28.0934 43.8128 28.1676 43.7851L30.9569 42.7299L28.5736 50.1074C28.4651 50.4492 28.5696 50.8231 28.8402 51.0581C29.1109 51.2936 29.4953 51.3463 29.8186 51.1917L35.0004 48.6726C35.1709 48.5896 35.311 48.4547 35.4006 48.2873L40.2591 39.2109L48.3567 36.1519C50.2164 35.4494 51.1543 33.3727 50.4519 31.5131C49.7494 29.6539 47.6727 28.7159 45.8135 29.418L37.7699 32.4594L36.7801 31.948C41.9206 25.3533 42.36 16.2387 37.8776 9.17966C33.3956 2.12061 24.9597 -1.35839 16.8045 0.488963C8.64938 2.33588 2.53576 9.11024 1.53278 17.4117C0.529809 25.7131 4.85363 33.7488 12.3344 37.4853L12.3335 37.4835ZM18.3615 39.7948L16.2281 40.6044L14.3944 37.451L15.4057 37.0688L18.3615 39.7948ZM33.9504 47.1807L30.9292 48.6498L33.1056 41.9154L37.7005 40.1779L33.9504 47.1807ZM46.4496 31.0997C47.3748 30.7632 48.3989 31.2332 48.7473 32.1545C49.0957 33.0753 48.6392 34.1055 47.7223 34.4658L27.636 42.0604L17.8036 43.0168L17.2179 42.1522L20.1333 41.049L46.4496 31.0997ZM30.6142 35.163C30.5857 35.1208 30.5536 35.0813 30.5189 35.0444L22.8395 29.0098L25.1789 27.9849L35.5061 33.3139L30.6142 35.163ZM20.0946 32.3873V34.1301C12.9508 33.5634 7.30461 27.8412 6.83322 20.6908H10.1976V18.8913H6.83322C7.30329 11.74 12.9504 6.01741 20.0946 5.452V8.09453H21.8941V5.43135C29.1996 5.80082 35.0668 11.5911 35.5329 18.8913H31.7912V20.6908H35.5355C35.3427 23.9308 34.0467 27.0074 31.8628 29.4092L25.6261 26.1889C25.385 26.0659 25.1016 26.0567 24.8529 26.1648L20.7413 27.9642C20.4522 28.0912 20.2515 28.3605 20.2115 28.6737C20.1715 28.987 20.2985 29.298 20.5463 29.4935L25.6213 33.4821C24.4141 33.8696 23.1607 34.0937 21.8941 34.1482V32.3873H20.0946ZM21.1833 1.79639C28.1215 1.78672 34.4456 5.77226 37.4303 12.0361C40.4151 18.2996 39.5276 25.7219 35.1498 31.105L33.5151 30.261C36.0148 27.3466 37.3859 23.6312 37.3785 19.7911C37.3679 10.8508 30.1231 3.6064 21.1833 3.59586H20.9834C12.0392 3.59893 4.79036 10.8522 4.79344 19.7963C4.79652 28.741 12.0497 35.9894 20.9944 35.9863H21.1833C23.2705 35.9832 25.3366 35.572 27.2661 34.7759L28.686 35.8962L24.5129 37.4734C22.5746 37.8424 20.5884 37.8859 18.6361 37.603L16.2185 35.3708C15.9672 35.141 15.6087 35.0716 15.2898 35.1907L13.2781 35.952C5.74721 32.2784 1.75025 23.8917 3.63978 15.7286C5.52887 7.56558 12.8041 1.7876 21.1833 1.79639V1.79639Z" fill="#0C499C"/>
<path d="M20.6938 20.5484L27.7063 25.0471L28.6777 23.5318L22.0738 19.2924L21.8941 10.7748L20.0946 10.8126L20.2796 19.8099C20.2861 20.1095 20.4412 20.3867 20.6938 20.5484Z" fill="#0C499C"/>
<path d="M2.70264 44.0764L5.87235 42.3718L6.72464 43.9569L3.55448 45.661L2.70264 44.0764Z" fill="#0C499C"/>
<path d="M7.45703 41.5173L11.4193 39.3866L12.2716 40.9712L8.30932 43.1024L7.45703 41.5173Z" fill="#0C499C"/>
<path d="M6.11267 50.4155L9.28239 48.7104L10.1347 50.2955L6.96496 52.0001L6.11267 50.4155Z" fill="#0C499C"/>
<path d="M10.8679 47.8568L14.8297 45.7266L15.682 47.3112L11.7198 49.4419L10.8679 47.8568Z" fill="#0C499C"/>
<path d="M4.40771 47.2457L9.95373 44.2627L10.806 45.8478L5.26 48.8303L4.40771 47.2457Z" fill="#0C499C"/>
<path d="M11.5388 43.41L13.1248 42.5573L13.9771 44.1423L12.3911 44.995L11.5388 43.41Z" fill="#0C499C"/>
</g>
<defs>
<clipPath id="clip0_522_563">
<rect width="52" height="52" fill="white"/>
</clipPath>
</defs>
</svg>
