<svg width="52" height="52" viewBox="0 0 52 52" fill="none" xmlns="http://www.w3.org/2000/svg">
<path d="M12.0798 21.5869C9.8342 24.5773 8.62511 28.2184 8.63591 31.9581V42.9305L8.35103 43.7855C8.10011 44.538 8.03162 45.3394 8.1512 46.1236C8.27078 46.9078 8.57501 47.6524 9.03881 48.2959C9.50261 48.9394 10.1127 49.4636 10.8188 49.825C11.5249 50.1865 12.3068 50.375 13.1001 50.375H38.8374C39.6307 50.375 40.4126 50.1865 41.1187 49.8251C41.8248 49.4636 42.4349 48.9395 42.8987 48.296C43.3625 47.6525 43.6668 46.908 43.7864 46.1238C43.9061 45.3396 43.8376 44.5383 43.5868 43.7857L43.3017 42.9307V31.9581C43.3126 28.2157 42.1017 24.5721 39.8531 21.5806C38.2723 19.4774 36.2381 17.7572 33.9015 16.5478C35.5453 15.974 36.9933 14.947 38.0783 13.5853L38.7909 12.6953C38.9256 12.527 38.9879 12.3122 38.9642 12.0979C38.9404 11.8837 38.8326 11.6877 38.6643 11.553C38.496 11.4184 38.2811 11.356 38.0669 11.3798C37.8527 11.4035 37.6567 11.5114 37.522 11.6797L36.8099 12.57C35.6605 14.0134 34.0252 14.9893 32.2091 15.3155L38.0304 6.12219C38.1082 5.99935 38.1516 5.85788 38.1561 5.71255C38.1606 5.56722 38.126 5.42334 38.0559 5.29594C37.9858 5.16854 37.8829 5.06227 37.7577 4.98823C37.6326 4.91419 37.4899 4.87509 37.3445 4.875H25.9695C25.754 4.875 25.5473 4.9606 25.395 5.11298C25.2426 5.26535 25.157 5.47201 25.157 5.6875V6.5H19.4695C19.3436 6.49987 19.2195 6.52897 19.1068 6.58502C18.9941 6.64107 18.896 6.72252 18.8202 6.82297C18.7443 6.92341 18.6929 7.0401 18.6698 7.16383C18.6468 7.28755 18.6528 7.41494 18.6874 7.53594L20.9285 15.3789C20.89 15.3847 20.8519 15.3933 20.8146 15.4046C17.3283 16.5015 14.2735 18.6637 12.0798 21.5869V21.5869ZM38.5531 22.5545C40.5905 25.2653 41.6876 28.567 41.6775 31.9581V43.0625C41.6776 43.1498 41.6916 43.2366 41.7193 43.3195L42.0459 44.2995C42.2153 44.8079 42.2615 45.3492 42.1807 45.8789C42.0998 46.4085 41.8943 46.9114 41.5809 47.3461C41.2676 47.7807 40.8554 48.1347 40.3784 48.3788C39.9014 48.6229 39.3733 48.7501 38.8374 48.75H13.1001C12.5643 48.7501 12.0362 48.6228 11.5592 48.3787C11.0823 48.1346 10.6702 47.7806 10.3569 47.346C10.0436 46.9114 9.8381 46.4085 9.75729 45.8788C9.67648 45.3492 9.7227 44.8079 9.89214 44.2996L10.2189 43.3195C10.2465 43.2366 10.2605 43.1498 10.2605 43.0625V31.9581C10.2505 28.5694 11.346 25.27 13.3807 22.5602C15.2986 20.0048 17.9438 18.0885 20.9697 17.0625C20.9697 17.0625 30.9234 17.0614 30.9634 17.0609C33.989 18.0856 36.6344 20.0005 38.5531 22.5545V22.5545ZM26.782 6.5H35.8678L30.2082 15.4375H26.782V6.5ZM25.157 8.125V15.4375H22.6362L20.546 8.125H25.157Z" fill="#0C499C"/>
<path d="M24.7739 30.4789C25.1104 30.2035 25.5334 30.056 25.9682 30.0625H25.9698C26.4046 30.056 26.8277 30.2035 27.1642 30.4789C27.2941 30.582 27.3999 30.7123 27.4742 30.8606C27.5484 31.0089 27.5893 31.1717 27.594 31.3375C27.594 31.553 27.6796 31.7597 27.832 31.912C27.9843 32.0644 28.191 32.15 28.4065 32.15C28.622 32.15 28.8286 32.0644 28.981 31.912C29.1334 31.7597 29.219 31.553 29.219 31.3375C29.2136 30.9373 29.1217 30.5429 28.9494 30.1816C28.7771 29.8203 28.5286 29.5006 28.221 29.2445C27.8061 28.8926 27.3122 28.6462 26.7815 28.5266V26.8125C26.7815 26.597 26.6959 26.3903 26.5435 26.238C26.3911 26.0856 26.1845 26 25.969 26C25.7535 26 25.5468 26.0856 25.3945 26.238C25.2421 26.3903 25.1565 26.597 25.1565 26.8125V28.5262C24.6258 28.6459 24.1319 28.8922 23.7169 29.2441C23.4094 29.5003 23.161 29.82 22.9889 30.1813C22.8167 30.5426 22.7248 30.9369 22.7195 31.3371V31.5161C22.7195 32.4475 23.2235 33.3272 24.0679 33.8695L26.9929 35.7484C27.3752 35.9939 27.5945 36.3533 27.5945 36.7344V36.9134C27.5898 37.0792 27.5489 37.242 27.4747 37.3903C27.4004 37.5386 27.2946 37.6689 27.1647 37.772C26.8282 38.0474 26.4052 38.1949 25.9705 38.1884H25.9686C25.5338 38.1949 25.1109 38.0474 24.7744 37.772C24.6444 37.6689 24.5386 37.5387 24.4643 37.3903C24.39 37.242 24.3491 37.0792 24.3445 36.9134C24.3445 36.6979 24.2589 36.4912 24.1065 36.3389C23.9541 36.1865 23.7475 36.1009 23.532 36.1009C23.3165 36.1009 23.1098 36.1865 22.9575 36.3389C22.8051 36.4912 22.7195 36.6979 22.7195 36.9134C22.7248 37.3136 22.8168 37.708 22.9891 38.0693C23.1614 38.4306 23.4098 38.7503 23.7174 39.0064C24.1323 39.3584 24.6262 39.6047 25.157 39.7244V41.4375C25.157 41.653 25.2426 41.8597 25.395 42.012C25.5473 42.1644 25.754 42.25 25.9695 42.25C26.185 42.25 26.3916 42.1644 26.544 42.012C26.6964 41.8597 26.782 41.653 26.782 41.4375V39.7238C27.3127 39.6041 27.8066 39.3578 28.2215 39.0059C28.5291 38.7498 28.7776 38.4301 28.9499 38.0688C29.1222 37.7075 29.2141 37.3131 29.2195 36.9129V36.7339C29.2195 35.8025 28.7153 34.9227 27.871 34.3805L24.946 32.5016C24.5638 32.2561 24.3445 31.8967 24.3445 31.5156V31.3371C24.3491 31.1714 24.39 31.0087 24.4641 30.8605C24.5383 30.7122 24.644 30.582 24.7739 30.4789Z" fill="#0C499C"/>
<path d="M38.9695 34.125C39.185 34.125 39.3916 34.0394 39.544 33.887C39.6964 33.7347 39.782 33.528 39.782 33.3125V31.6875C39.782 31.472 39.6964 31.2653 39.544 31.113C39.3916 30.9606 39.185 30.875 38.9695 30.875C38.754 30.875 38.5473 30.9606 38.395 31.113C38.2426 31.2653 38.157 31.472 38.157 31.6875V33.3125C38.157 33.528 38.2426 33.7347 38.395 33.887C38.5473 34.0394 38.754 34.125 38.9695 34.125Z" fill="#0C499C"/>
<path d="M38.9695 40.625C39.185 40.625 39.3916 40.5394 39.544 40.387C39.6964 40.2347 39.782 40.028 39.782 39.8125V36.5625C39.782 36.347 39.6964 36.1403 39.544 35.988C39.3916 35.8356 39.185 35.75 38.9695 35.75C38.754 35.75 38.5473 35.8356 38.395 35.988C38.2426 36.1403 38.157 36.347 38.157 36.5625V39.8125C38.157 40.028 38.2426 40.2347 38.395 40.387C38.5473 40.5394 38.754 40.625 38.9695 40.625Z" fill="#0C499C"/>
<path d="M43.032 1.625C42.8165 1.625 42.6098 1.7106 42.4575 1.86298C42.3051 2.01535 42.2195 2.22201 42.2195 2.4375V3.25C42.2195 3.46549 42.3051 3.67215 42.4575 3.82452C42.6098 3.9769 42.8165 4.0625 43.032 4.0625C43.2475 4.0625 43.4541 3.9769 43.6065 3.82452C43.7589 3.67215 43.8445 3.46549 43.8445 3.25V2.4375C43.8445 2.22201 43.7589 2.01535 43.6065 1.86298C43.4541 1.7106 43.2475 1.625 43.032 1.625V1.625Z" fill="#0C499C"/>
<path d="M42.2195 7.3125C42.2195 7.52799 42.3051 7.73465 42.4575 7.88702C42.6098 8.0394 42.8165 8.125 43.032 8.125C43.2475 8.125 43.4541 8.0394 43.6065 7.88702C43.7589 7.73465 43.8445 7.52799 43.8445 7.3125V6.5C43.8445 6.28451 43.7589 6.07785 43.6065 5.92548C43.4541 5.7731 43.2475 5.6875 43.032 5.6875C42.8165 5.6875 42.6098 5.7731 42.4575 5.92548C42.3051 6.07785 42.2195 6.28451 42.2195 6.5V7.3125Z" fill="#0C499C"/>
<path d="M44.657 5.6875H45.4695C45.685 5.6875 45.8916 5.6019 46.044 5.44952C46.1964 5.29715 46.282 5.09049 46.282 4.875C46.282 4.65951 46.1964 4.45285 46.044 4.30048C45.8916 4.1481 45.685 4.0625 45.4695 4.0625H44.657C44.4415 4.0625 44.2348 4.1481 44.0825 4.30048C43.9301 4.45285 43.8445 4.65951 43.8445 4.875C43.8445 5.09049 43.9301 5.29715 44.0825 5.44952C44.2348 5.6019 44.4415 5.6875 44.657 5.6875Z" fill="#0C499C"/>
<path d="M41.407 4.0625H40.5945C40.379 4.0625 40.1723 4.1481 40.02 4.30048C39.8676 4.45285 39.782 4.65951 39.782 4.875C39.782 5.09049 39.8676 5.29715 40.02 5.44952C40.1723 5.6019 40.379 5.6875 40.5945 5.6875H41.407C41.6225 5.6875 41.8291 5.6019 41.9815 5.44952C42.1339 5.29715 42.2195 5.09049 42.2195 4.875C42.2195 4.65951 42.1339 4.45285 41.9815 4.30048C41.8291 4.1481 41.6225 4.0625 41.407 4.0625Z" fill="#0C499C"/>
<path d="M10.532 13.8125C10.3165 13.8125 10.1098 13.8981 9.95746 14.0505C9.80509 14.2028 9.71948 14.4095 9.71948 14.625V15.4375C9.71948 15.653 9.80509 15.8597 9.95746 16.012C10.1098 16.1644 10.3165 16.25 10.532 16.25C10.7475 16.25 10.9541 16.1644 11.1065 16.012C11.2589 15.8597 11.3445 15.653 11.3445 15.4375V14.625C11.3445 14.4095 11.2589 14.2028 11.1065 14.0505C10.9541 13.8981 10.7475 13.8125 10.532 13.8125Z" fill="#0C499C"/>
<path d="M9.71948 19.5C9.71948 19.7155 9.80509 19.9222 9.95746 20.0745C10.1098 20.2269 10.3165 20.3125 10.532 20.3125C10.7475 20.3125 10.9541 20.2269 11.1065 20.0745C11.2589 19.9222 11.3445 19.7155 11.3445 19.5V18.6875C11.3445 18.472 11.2589 18.2653 11.1065 18.113C10.9541 17.9606 10.7475 17.875 10.532 17.875C10.3165 17.875 10.1098 17.9606 9.95746 18.113C9.80509 18.2653 9.71948 18.472 9.71948 18.6875V19.5Z" fill="#0C499C"/>
<path d="M12.9695 16.25H12.157C11.9415 16.25 11.7348 16.3356 11.5825 16.488C11.4301 16.6403 11.3445 16.847 11.3445 17.0625C11.3445 17.278 11.4301 17.4847 11.5825 17.637C11.7348 17.7894 11.9415 17.875 12.157 17.875H12.9695C13.185 17.875 13.3916 17.7894 13.544 17.637C13.6964 17.4847 13.782 17.278 13.782 17.0625C13.782 16.847 13.6964 16.6403 13.544 16.488C13.3916 16.3356 13.185 16.25 12.9695 16.25V16.25Z" fill="#0C499C"/>
<path d="M8.90698 16.25H8.09448C7.87899 16.25 7.67233 16.3356 7.51996 16.488C7.36759 16.6403 7.28198 16.847 7.28198 17.0625C7.28198 17.278 7.36759 17.4847 7.51996 17.637C7.67233 17.7894 7.87899 17.875 8.09448 17.875H8.90698C9.12247 17.875 9.32913 17.7894 9.48151 17.637C9.63388 17.4847 9.71948 17.278 9.71948 17.0625C9.71948 16.847 9.63388 16.6403 9.48151 16.488C9.32913 16.3356 9.12247 16.25 8.90698 16.25Z" fill="#0C499C"/>
</svg>
