<svg width="52" height="52" viewBox="0 0 52 52" fill="none" xmlns="http://www.w3.org/2000/svg">
<path d="M23.1252 15.3359C23.6301 15.3359 24.0393 14.9267 24.0393 14.4219C24.0393 13.9171 23.6301 13.5078 23.1252 13.5078C22.6204 13.5078 22.2112 13.9171 22.2112 14.4219C22.2112 14.9267 22.6204 15.3359 23.1252 15.3359Z" fill="#0C499C"/>
<path d="M28.8127 15.3359C29.3176 15.3359 29.7268 14.9267 29.7268 14.4219C29.7268 13.9171 29.3176 13.5078 28.8127 13.5078C28.3079 13.5078 27.8987 13.9171 27.8987 14.4219C27.8987 14.9267 28.3079 15.3359 28.8127 15.3359Z" fill="#0C499C"/>
<path d="M23.6173 19.1366C23.5209 19.3294 23.505 19.5525 23.5732 19.7569C23.6413 19.9613 23.7878 20.1303 23.9806 20.2267C24.5984 20.5339 25.279 20.6937 25.969 20.6937C26.6589 20.6937 27.3395 20.5339 27.9574 20.2267C28.0536 20.1795 28.1396 20.1137 28.2103 20.0331C28.2811 19.9525 28.3351 19.8587 28.3694 19.7571C28.4037 19.6555 28.4176 19.5481 28.4102 19.4411C28.4028 19.3342 28.3743 19.2297 28.3263 19.1338C28.2784 19.0379 28.2119 18.9524 28.1307 18.8823C28.0496 18.8122 27.9554 18.7589 27.8535 18.7254C27.7516 18.6919 27.6442 18.6789 27.5372 18.6871C27.4303 18.6953 27.3261 18.7246 27.2306 18.7733C26.8385 18.9681 26.4067 19.0695 25.969 19.0695C25.5312 19.0695 25.0994 18.9681 24.7074 18.7733C24.5146 18.677 24.2915 18.6611 24.0871 18.7292C23.8827 18.7974 23.7137 18.9439 23.6173 19.1366V19.1366Z" fill="#0C499C"/>
<path d="M38.4126 27.0413L36.7121 26.8288L33.2055 25.6599C33.1497 25.5375 33.0643 25.431 32.957 25.35L29.8937 23.0525C31.2262 22.0429 32.1189 20.559 32.3864 18.9087C33.0955 18.7452 33.7293 18.3485 34.1861 17.782C34.6429 17.2156 34.8964 16.5122 34.906 15.7846C34.9156 15.0569 34.6807 14.3471 34.2389 13.7688C33.7971 13.1906 33.1741 12.7773 32.4695 12.5952V11.318C33.2005 11.2125 33.9009 10.9541 34.5253 10.5597C35.1497 10.1653 35.684 9.64367 36.0933 9.02893L36.3951 8.57627C36.4768 8.45393 36.5238 8.31171 36.5309 8.16477C36.5381 8.01784 36.5053 7.8717 36.436 7.74197C36.3666 7.61223 36.2633 7.50376 36.1371 7.42813C36.011 7.3525 35.8666 7.31254 35.7195 7.31253H33.6181L31.4186 5.11299C30.8293 4.52052 30.1284 4.05081 29.3563 3.73103C28.5843 3.41125 27.7565 3.24777 26.9208 3.25003H25.0171C23.4437 3.24558 21.9253 3.8287 20.7593 4.88518C19.3115 4.97065 17.951 5.60601 16.9561 6.66132C15.9612 7.71664 15.4071 9.11217 15.407 10.5625V11.7573C15.4104 13.337 15.9219 14.8736 16.866 16.1401C16.9269 16.2212 17.0024 16.2901 17.0887 16.3433C17.2067 16.9636 17.5024 17.5362 17.9398 17.9916C18.3773 18.447 18.9376 18.7655 19.5527 18.9083C19.8202 20.5586 20.7128 22.0425 22.0453 23.0521L18.982 25.35C18.8745 25.431 18.7888 25.5375 18.7329 25.6599L15.2259 26.8288L13.5254 27.0413C12.0266 27.2308 10.6483 27.9601 9.64852 29.0926C8.64875 30.2251 8.09608 31.6832 8.09399 33.1939V41.4375C7.87851 41.4375 7.67184 41.5231 7.51947 41.6755C7.3671 41.8279 7.28149 42.0345 7.28149 42.25V47.9375C7.28149 48.0442 7.3025 48.1499 7.34333 48.2485C7.38416 48.347 7.44401 48.4366 7.51946 48.5121L9.14446 50.1371C9.21997 50.2126 9.30962 50.2725 9.40829 50.3133C9.50696 50.3541 9.61272 50.3751 9.7195 50.375H13.782C13.8694 50.375 13.9562 50.3609 14.0391 50.3334L16.3515 49.5625H39.782C40.8591 49.5613 41.8917 49.1329 42.6533 48.3713C43.4149 47.6097 43.8433 46.5771 43.8445 45.5V33.1939C43.8424 31.6832 43.2896 30.225 42.2898 29.0925C41.2899 27.9599 39.9115 27.2307 38.4126 27.0413ZM27.389 28.4375L27.4128 28.4503L26.9279 30.875H25.0101L24.5252 28.4503L24.5488 28.4375H27.389ZM23.0857 29.5394L23.5258 31.7393L23.3761 33.8343L22.1958 30.6869L22.3873 30.3998C22.5932 30.0922 22.827 29.8041 23.0857 29.5394V29.5394ZM24.7426 37.4783C24.7446 37.4632 24.7471 37.4478 24.7482 37.4329L25.1006 32.5H26.8374L27.1898 37.4329C27.1909 37.4484 27.1932 37.4634 27.1953 37.4784L25.9689 40.7487L24.7426 37.4783ZM28.5619 33.8343L28.4123 31.7392L28.8522 29.5394C29.111 29.8041 29.3448 30.0921 29.5508 30.3998L29.7421 30.6869L28.5619 33.8343ZM30.5906 29.0646C30.0496 28.3654 29.3918 27.765 28.6463 27.2899C28.6388 27.2734 28.6313 27.257 28.6227 27.241L29.5796 24.8488L31.513 26.2988L30.5906 29.0646ZM33.282 15.7422C33.2818 16.0274 33.2067 16.3075 33.0641 16.5544C32.9215 16.8014 32.7164 17.0065 32.4695 17.1492V14.3353C32.7164 14.4779 32.9215 14.683 33.0641 14.93C33.2067 15.1769 33.2818 15.457 33.282 15.7422V15.7422ZM17.032 10.5625C17.032 9.48508 17.46 8.45177 18.2219 7.6899C18.9837 6.92804 20.0171 6.50003 21.0945 6.50003C21.2012 6.50003 21.3069 6.47901 21.4055 6.43816C21.5041 6.39731 21.5937 6.33744 21.6691 6.26196C22.1078 5.82091 22.6295 5.47124 23.2042 5.23317C23.7788 4.9951 24.395 4.87337 25.0171 4.87503H26.9208C27.543 4.87332 28.1593 4.99504 28.7341 5.23312C29.3089 5.47121 29.8307 5.82094 30.2695 6.26206L32.707 8.69956C32.7825 8.77507 32.8721 8.83495 32.9708 8.87578C33.0695 8.91662 33.1752 8.9376 33.282 8.93753H34.0043C33.3553 9.46397 32.5447 9.75088 31.709 9.75003H29.9418C28.4944 9.75132 27.0602 9.47513 25.7168 8.93641L23.8335 8.18312C23.7041 8.13138 23.5635 8.11381 23.4254 8.13209C23.2872 8.15038 23.156 8.2039 23.0445 8.28753L19.7945 10.725C19.6936 10.8007 19.6117 10.8988 19.5553 11.0117C19.4989 11.1245 19.4695 11.2489 19.4695 11.375V12.5951C18.6555 12.8071 17.9548 13.3254 17.5138 14.0418C17.1978 13.3215 17.0337 12.5438 17.032 11.7573V10.5625ZM18.657 15.7422C18.6572 15.457 18.7323 15.1769 18.8749 14.93C19.0176 14.6831 19.2226 14.4779 19.4695 14.3353V17.1492C19.2226 17.0065 19.0176 16.8014 18.8749 16.5544C18.7323 16.3075 18.6572 16.0274 18.657 15.7422V15.7422ZM21.0945 17.875V11.7813L23.6539 9.86174L25.1132 10.4454C26.6483 11.0609 28.2872 11.3765 29.9411 11.375H30.844V17.875C30.844 19.168 30.3304 20.4079 29.4161 21.3222C28.5019 22.2364 27.2619 22.75 25.969 22.75C24.6761 22.75 23.4361 22.2364 22.5218 21.3222C21.6076 20.4079 21.094 19.168 21.094 17.875H21.0945ZM25.9695 24.375C26.7209 24.3755 27.4667 24.2451 28.1734 23.9897L27.0439 26.8125H24.8941L23.765 23.9897C24.4719 24.2452 25.2179 24.3756 25.9695 24.375V24.375ZM22.359 24.8486L23.3263 27.2672C22.5666 27.746 21.8968 28.3545 21.3475 29.0649L20.4255 26.2989L22.359 24.8486ZM9.7195 33.1939C9.72106 32.0792 10.1289 31.0033 10.8666 30.1676C11.6044 29.3319 12.6214 28.7938 13.7274 28.6541L15.5079 28.4314C15.5135 28.4307 15.519 28.4293 15.5247 28.4285C15.5332 28.4273 15.5417 28.4255 15.5502 28.424C15.5883 28.4175 15.6259 28.4082 15.6626 28.3964H15.664H15.6649L15.671 28.3943L19.0368 27.2724L20.3236 31.1328C20.3626 31.2486 20.4272 31.3542 20.5126 31.4416C20.5981 31.529 20.7022 31.5959 20.8171 31.6375L24.492 41.4375H16.7212L16.219 40.4332V34.9375C16.219 34.722 16.1334 34.5154 15.981 34.363C15.8286 34.2106 15.622 34.125 15.4065 34.125C15.191 34.125 14.9843 34.2106 14.832 34.363C14.6796 34.5154 14.594 34.722 14.594 34.9375V39.8125H12.969C12.8181 39.8125 12.6702 39.8546 12.5419 39.9339C12.4135 40.0132 12.3098 40.1267 12.2423 40.2616L11.6544 41.4375H9.7195V33.1939ZM13.65 48.75H10.0556L8.907 47.6011V43.0625H12.157C12.3079 43.0625 12.4558 43.0205 12.5842 42.9412C12.7126 42.8619 12.8163 42.7484 12.8838 42.6134L13.4712 41.4375H14.9044L15.4065 42.4419V48.1644L13.65 48.75ZM17.032 43.0625H18.657V47.9375H17.032V43.0625ZM42.2195 45.5C42.2188 46.1463 41.9617 46.7658 41.5048 47.2228C41.0478 47.6798 40.4282 47.9368 39.782 47.9375H20.282V43.0625H36.532C36.7475 43.0625 36.9542 42.9769 37.1065 42.8246C37.2589 42.6722 37.3445 42.4655 37.3445 42.25V34.9375C37.3445 34.722 37.2589 34.5154 37.1065 34.363C36.9542 34.2106 36.7475 34.125 36.532 34.125C36.3165 34.125 36.1099 34.2106 35.9575 34.363C35.8051 34.5154 35.7195 34.722 35.7195 34.9375V41.4375H27.446L31.1215 31.6367C31.2364 31.5952 31.3405 31.5283 31.4259 31.4409C31.5114 31.3535 31.5759 31.2479 31.6149 31.1321L32.9016 27.2717L36.2679 28.3934L36.274 28.3956H36.275H36.2764C36.3131 28.4074 36.3506 28.4166 36.3886 28.4232C36.3971 28.4247 36.4057 28.4264 36.4143 28.4277C36.42 28.4285 36.4254 28.4299 36.4311 28.4306L38.2114 28.6532C39.3174 28.793 40.3344 29.3311 41.0722 30.1668C41.81 31.0024 42.2178 32.0784 42.2194 33.1931L42.2195 45.5Z" fill="#0C499C"/>
<path d="M25.157 17.8751H26.782C26.9107 17.8751 27.0376 17.8445 27.1522 17.7858C27.2669 17.7272 27.3659 17.6421 27.4412 17.5377C27.5164 17.4332 27.5658 17.3124 27.5852 17.1851C27.6047 17.0578 27.5936 16.9277 27.5528 16.8056L26.7403 14.3681C26.6722 14.1637 26.5256 13.9947 26.3329 13.8983C26.1401 13.8019 25.917 13.7861 25.7125 13.8542C25.5081 13.9223 25.3391 14.0689 25.2427 14.2617C25.1463 14.4544 25.1305 14.6776 25.1986 14.882L25.6546 16.2501H25.157C24.9415 16.2501 24.7348 16.3357 24.5825 16.488C24.4301 16.6404 24.3445 16.8471 24.3445 17.0626C24.3445 17.278 24.4301 17.4847 24.5825 17.6371C24.7348 17.7895 24.9415 17.8751 25.157 17.8751Z" fill="#0C499C"/>
</svg>
