<svg width="35" height="35" viewBox="0 0 35 35" fill="none" xmlns="http://www.w3.org/2000/svg">
<g clip-path="url(#clip0_286_225)">
<path d="M24.7971 10.4867C24.4513 10.4857 24.1088 10.5533 23.7894 10.6857C23.4699 10.818 23.1799 11.0125 22.9362 11.2578L15.6641 18.5281L12.0686 14.9326C11.8247 14.6875 11.5346 14.4931 11.2151 14.3608C10.8956 14.2284 10.5531 14.1607 10.2073 14.1615C9.68628 14.161 9.17683 14.3152 8.74349 14.6044C8.31015 14.8937 7.97241 15.3051 7.77305 15.7864C7.57369 16.2678 7.52168 16.7975 7.62362 17.3085C7.72556 17.8194 7.97684 18.2886 8.34566 18.6566L13.8021 24.1134C14.2959 24.6065 14.9653 24.8835 15.6632 24.8835C16.361 24.8835 17.0304 24.6065 17.5242 24.1134L26.6584 14.9785C27.0259 14.6103 27.276 14.1414 27.3772 13.6311C27.4784 13.1208 27.4261 12.592 27.227 12.1114C27.0278 11.6308 26.6907 11.22 26.2583 10.9308C25.8258 10.6416 25.3174 10.4871 24.7971 10.4867ZM25.7496 14.0712L16.6155 23.2042C16.3588 23.4489 16.0178 23.5854 15.6632 23.5854C15.3085 23.5854 14.9675 23.4489 14.7109 23.2042L9.25408 17.7482C9.06577 17.5598 8.93752 17.3199 8.88553 17.0587C8.83355 16.7974 8.86017 16.5266 8.96202 16.2805C9.06387 16.0344 9.2364 15.824 9.45778 15.6759C9.67916 15.5279 9.93948 15.4487 10.2058 15.4485C10.3828 15.4481 10.5581 15.4828 10.7217 15.5505C10.8852 15.6181 11.0337 15.7175 11.1587 15.8429L15.2088 19.8922C15.2684 19.9519 15.3392 19.9993 15.4172 20.0316C15.4952 20.064 15.5788 20.0806 15.6632 20.0806C15.7476 20.0806 15.8311 20.064 15.9091 20.0316C15.9871 19.9993 16.0579 19.9519 16.1175 19.8922L23.845 12.1651C24.1016 11.9203 24.4426 11.7837 24.7973 11.7837C25.152 11.7837 25.493 11.9203 25.7496 12.1651C26.0022 12.4177 26.144 12.7602 26.144 13.1174C26.144 13.4746 26.0022 13.8171 25.7496 14.0697V14.0712Z" fill="#0C499C"/>
<path d="M17.5 0.333984C14.1049 0.333984 10.786 1.34075 7.96308 3.22698C5.14014 5.11321 2.93993 7.79417 1.64068 10.9309C0.341422 14.0675 0.00147781 17.519 0.663832 20.8489C1.32619 24.1788 2.96109 27.2375 5.3618 29.6382C7.76251 32.0389 10.8212 33.6738 14.1511 34.3362C17.481 34.9985 20.9325 34.6586 24.0692 33.3593C27.2058 32.0601 29.8868 29.8599 31.773 27.0369C33.6593 24.214 34.666 20.8951 34.666 17.5C34.6612 12.9488 32.851 8.58536 29.6328 5.36716C26.4146 2.14896 22.0512 0.338844 17.5 0.333984ZM17.5 33.3809C14.3591 33.3809 11.2887 32.4495 8.67708 30.7045C6.06548 28.9594 4.02999 26.4792 2.82801 23.5773C1.62602 20.6755 1.31153 17.4824 1.92429 14.4018C2.53706 11.3212 4.04957 8.49152 6.27055 6.27054C8.49152 4.04956 11.3212 2.53705 14.4018 1.92429C17.4824 1.31152 20.6755 1.62601 23.5773 2.828C26.4792 4.02998 28.9594 6.06547 30.7045 8.67707C32.4495 11.2887 33.3809 14.3591 33.3809 17.5C33.376 21.7104 31.7013 25.7469 28.7241 28.7241C25.7469 31.7013 21.7104 33.376 17.5 33.3809Z" fill="#0C499C"/>
</g>
<defs>
<clipPath id="clip0_286_225">
<rect width="35" height="35" fill="white"/>
</clipPath>
</defs>
</svg>
