<svg width="68" height="55" viewBox="0 0 68 55" fill="none" xmlns="http://www.w3.org/2000/svg">
<path d="M21.9767 18.668C20.0657 18.668 18.4731 20.2545 18.4731 22.1584V50.6103C18.4731 51.1391 18.8978 51.5093 19.3756 51.5622H34.0266C34.5575 51.5622 34.929 51.1391 34.9821 50.6632V22.1584C34.9821 20.2545 33.3896 18.668 31.4786 18.668H21.9767ZM33.1242 22.1584V49.7112H20.3311V22.1584C20.3311 21.2593 21.0742 20.5189 21.9767 20.5189H31.4786C32.381 20.5189 33.1242 21.2593 33.1242 22.1584Z" fill="#0C499C"/>
<path d="M39.0164 2.64423C39.0164 1.21635 37.8486 0 36.3622 0H28.4528C25.6924 0 23.4098 2.16827 23.2506 4.91827H21.2334C11.2537 4.91827 3.18501 12.9567 3.18501 22.899V34.6923H3.07884C1.38017 34.6923 0 36.0673 0 37.7596C0 39.399 1.274 40.774 2.97268 40.8269L1.53942 47.7019C1.22092 49.2356 2.38876 50.7163 3.98126 50.7163H7.69711C9.28962 50.7163 10.4575 49.2885 10.139 47.7019L8.7057 40.8269C10.4044 40.774 11.7315 39.3462 11.6784 37.6538C11.6253 36.0144 10.2451 34.6923 8.59953 34.6923H8.49336V22.899C8.49336 15.8654 14.2264 10.2067 21.2865 10.1538H23.3037V11.899H22.0297C21.4988 11.899 21.1272 12.3221 21.0742 12.7981V15.3365C17.6237 15.8125 15.0757 18.7212 15.0757 22.1587V54.0481C15.0757 54.5769 15.5004 54.9471 15.9781 55H37.477C38.0078 55 38.3794 54.5769 38.4325 54.101V22.1587C38.4325 18.7212 35.8845 15.8125 32.434 15.3365V12.851C32.434 12.3221 32.0094 11.9519 31.5316 11.899H30.2576V9.41346L32.9649 11.2115C34.292 12.1106 35.9906 11.5288 36.6807 10.3654C37.3708 9.20192 37.0523 7.61538 35.8314 6.82212L33.4426 5.28846H36.3622C37.8486 5.28846 39.0164 4.125 39.0164 2.64423ZM7.64403 48.8654H3.92818C3.50351 48.8654 3.2381 48.4952 3.29118 48.0721L4.8306 40.8269H6.74161L8.28103 48.0721C8.3872 48.4423 8.0687 48.8654 7.64403 48.8654ZM9.71429 37.7596C9.71429 38.4471 9.18345 38.976 8.49336 38.976H3.07884C2.38876 38.976 1.85792 38.4471 1.85792 37.7596C1.85792 37.0721 2.38876 36.5433 3.07884 36.5433H8.54645C9.18345 36.5962 9.71429 37.125 9.71429 37.7596ZM21.2334 8.35577C13.1647 8.35577 6.63544 14.8606 6.58236 22.9519V34.7452H4.98985V22.899C4.98985 14.0144 12.2623 6.76923 21.1803 6.76923H23.1975V8.35577H21.2334ZM36.5746 22.1587V53.0962H16.9336V22.1587C16.9336 19.3558 19.2162 17.1346 21.9766 17.1346H31.4785C34.292 17.1346 36.5746 19.4087 36.5746 22.1587ZM30.5761 15.2837H22.879V13.8029H30.523V15.2837H30.5761ZM25.1085 11.9519V5.23558C25.1085 3.38462 26.5948 1.90385 28.4528 1.90385H36.3622C36.7869 1.90385 37.1585 2.27404 37.1585 2.69712C37.1585 3.12019 36.7869 3.49038 36.3622 3.49038H29.3021C28.7713 3.49038 28.3466 3.91346 28.3466 4.44231V12.0048H25.1085V11.9519ZM33.9735 9.67788L30.2576 7.24519V5.39423L34.8228 8.40865C35.6721 8.9375 34.8228 10.2596 33.9735 9.67788Z" fill="#0C499C"/>
<path d="M27.7097 29.6679C26.9665 29.1391 26.011 29.8794 26.2764 30.7256C26.7542 32.1535 26.2233 33.6871 25.4271 34.216C25.1616 33.74 25.0024 33.1583 25.0024 32.6294C25.0024 31.8362 24.0469 31.4131 23.463 31.9419C22.2951 32.9996 21.552 34.4275 21.4458 36.0141C21.4989 38.4467 23.3568 40.7737 26.5949 40.7737C29.7799 40.7737 31.7971 39.1871 31.9033 36.6487C32.1156 32.7881 27.8689 29.7737 27.7097 29.6679ZM26.2764 38.9227C24.6839 38.9227 23.3568 37.6006 23.3037 36.0141C23.3568 35.591 23.463 35.1679 23.6222 34.7977C23.8876 35.4323 24.4716 35.9083 25.1086 36.0141C26.9134 36.1727 27.9751 34.1102 28.1874 32.6294C29.0898 33.6342 30.0453 35.0621 29.9922 36.5429C29.9922 38.7112 27.6566 38.9756 26.2764 38.9227Z" fill="#0C499C"/>
<path d="M53.7735 45.6391C55.6314 45.6391 57.0647 44.1583 57.1178 42.3074V35.1151C57.0647 33.2641 55.5253 31.8362 53.7204 31.8891C51.9687 31.942 50.5354 33.3699 50.4823 35.1151V42.3074C50.4293 44.1583 51.9156 45.6391 53.7735 45.6391ZM53.7735 43.7882C52.9773 43.7882 52.2872 43.1535 52.2872 42.3074V39.1343C53.1896 39.6103 54.3044 39.6103 55.2068 39.1343V42.3074C55.2068 43.1535 54.5698 43.7882 53.7735 43.7882ZM52.2872 35.1151C52.3403 34.3218 52.9773 33.6872 53.8266 33.7401C54.5698 33.793 55.2068 34.3747 55.2068 35.1151V36.2257C55.1537 37.0189 54.5167 37.6535 53.6673 37.6007C52.9242 37.5478 52.2872 36.966 52.2872 36.2257V35.1151Z" fill="#0C499C"/>
<path d="M65.3988 12.0049H42.0951C40.6619 12.0049 39.5471 13.1683 39.5471 14.5433C39.5471 15.9712 40.715 17.0818 42.0951 17.0818H42.5198V21.3655C42.5198 21.5241 42.5729 21.7357 42.679 21.8414L46.5011 27.553V52.0385C46.5011 53.6251 47.7751 54.9472 49.4207 54.9472H58.1264C59.7189 54.9472 61.0459 53.678 61.0459 52.0385V27.6058L64.868 21.8943C64.9741 21.7357 65.0272 21.5241 65.0272 21.4183V17.1347H65.4519C66.8851 17.1347 67.9999 15.9712 67.9999 14.5962C67.9468 13.1155 66.779 12.0049 65.3988 12.0049ZM59.1349 49.1828H48.359V28.2405H59.188L59.1349 49.1828ZM59.1349 52.0914C59.1349 52.6732 58.6572 53.1491 58.0733 53.1491H49.3676C48.7837 53.1491 48.3059 52.6732 48.3059 52.0914V51.0337H59.1349V52.0914ZM59.5596 26.3895H47.8812L45.174 22.3174H62.2669L59.5596 26.3895ZM63.1162 20.4664H44.3777V17.0818H63.1162V20.4664ZM65.3988 15.2308H42.0951C41.7235 15.2308 41.405 14.9135 41.405 14.5433C41.405 14.1732 41.7235 13.8558 42.0951 13.8558H65.3988C65.7704 13.8558 66.0889 14.1732 66.0889 14.5433C66.0889 14.9135 65.7704 15.2308 65.3988 15.2308Z" fill="#0C499C"/>
</svg>
