<svg width="49" height="49" viewBox="0 0 49 49" fill="none" xmlns="http://www.w3.org/2000/svg">
<g clip-path="url(#clip0_575_597)">
<path d="M34.5898 14.544C34.1116 14.5425 33.6378 14.6361 33.1959 14.8191C32.754 15.0022 32.3529 15.2711 32.0157 15.6104L21.957 25.6681L16.9845 20.6966C16.647 20.3564 16.2455 20.0862 15.8033 19.9015C15.3611 19.7168 14.8867 19.6212 14.4075 19.6203C13.9282 19.6194 13.4535 19.7131 13.0106 19.8961C12.5677 20.0791 12.1652 20.3478 11.8264 20.6867C11.4875 21.0256 11.2189 21.4281 11.036 21.8711C10.8531 22.3141 10.7595 22.7888 10.7605 23.268C10.7615 23.7473 10.8572 24.2216 11.042 24.6638C11.2267 25.106 11.497 25.5073 11.8373 25.8448L19.3834 33.3909C20.0661 34.0733 20.9918 34.4566 21.957 34.4566C22.9222 34.4566 23.8479 34.0733 24.5306 33.3909L37.1634 20.7581C37.6726 20.249 38.0193 19.6004 38.1598 18.8943C38.3003 18.1882 38.2283 17.4563 37.9528 16.7912C37.6773 16.126 37.2108 15.5575 36.6122 15.1575C36.0136 14.7575 35.3098 14.544 34.5898 14.544V14.544ZM35.9066 19.5012L23.2738 32.1336C22.919 32.4722 22.4474 32.6612 21.957 32.6612C21.4666 32.6612 20.995 32.4722 20.6402 32.1336L13.0936 24.588C12.7443 24.2387 12.548 23.7649 12.5479 23.2709C12.5479 23.0263 12.5961 22.7841 12.6897 22.5581C12.7832 22.332 12.9204 22.1267 13.0934 21.9537C13.2663 21.7807 13.4717 21.6435 13.6977 21.5499C13.9236 21.4562 14.1659 21.408 14.4105 21.408C14.9045 21.408 15.3783 21.6042 15.7277 21.9535L21.3283 27.5536C21.4108 27.6362 21.5088 27.7017 21.6166 27.7464C21.7244 27.7911 21.84 27.8141 21.9567 27.8141C22.0735 27.8141 22.1891 27.7911 22.2969 27.7464C22.4047 27.7017 22.5027 27.6362 22.5852 27.5536L33.2726 16.8667C33.6275 16.5282 34.0991 16.3394 34.5896 16.3394C35.08 16.3394 35.5517 16.5282 35.9066 16.8667C36.2554 17.2164 36.4513 17.6901 36.4513 18.184C36.4513 18.6778 36.2554 19.1516 35.9066 19.5012Z" fill="#0C499C"/>
<path d="M43.2891 0.759766H5.71094C4.39826 0.761244 3.13977 1.28336 2.21156 2.21156C1.28336 3.13977 0.761244 4.39826 0.759766 5.71094V43.2891C0.761244 44.6017 1.28336 45.8602 2.21156 46.7884C3.13977 47.7166 4.39826 48.2388 5.71094 48.2402H43.2891C44.6017 48.2388 45.8602 47.7166 46.7884 46.7884C47.7166 45.8602 48.2388 44.6017 48.2402 43.2891V5.71094C48.2388 4.39826 47.7166 3.13977 46.7884 2.21156C45.8602 1.28336 44.6017 0.761244 43.2891 0.759766V0.759766ZM46.4629 43.2891C46.4619 44.1305 46.1273 44.9373 45.5323 45.5323C44.9373 46.1273 44.1305 46.4619 43.2891 46.4629H5.71094C4.86947 46.4619 4.06275 46.1273 3.46774 45.5323C2.87274 44.9373 2.53805 44.1305 2.53711 43.2891V5.71094C2.53805 4.86947 2.87274 4.06275 3.46774 3.46774C4.06275 2.87274 4.86947 2.53805 5.71094 2.53711H43.2891C44.1305 2.53805 44.9373 2.87274 45.5323 3.46774C46.1273 4.06275 46.4619 4.86947 46.4629 5.71094V43.2891Z" fill="#0C499C"/>
</g>
<defs>
<clipPath id="clip0_575_597">
<rect width="49" height="49" fill="white"/>
</clipPath>
</defs>
</svg>
