<svg width="55" height="55" viewBox="0 0 55 55" fill="none" xmlns="http://www.w3.org/2000/svg">
<path d="M27.5 0C12.3366 0 0 12.3366 0 27.5C0 42.6634 12.3366 55 27.5 55C42.6634 55 55 42.6634 55 27.5C55 12.3366 42.6634 0 27.5 0ZM27.5 2.11538C40.4341 2.11538 52.8846 14.5659 52.8846 27.5C52.8846 40.4341 40.4341 52.8846 27.5 52.8846C14.5659 52.8846 2.11538 40.4341 2.11538 27.5C2.11538 14.5659 14.5659 2.11538 27.5 2.11538ZM27.4087 8.01636C24.8347 8.01636 22.7466 10.1085 22.7466 12.6812C22.7466 13.0098 22.7785 13.3369 22.8486 13.6587L24.8413 22.9399C25.0421 23.8763 24.8901 24.8554 24.4116 25.6846C23.9331 26.5151 23.1614 27.1359 22.2498 27.4302L13.2156 30.3467C12.9021 30.4471 12.6005 30.5805 12.3159 30.7441C10.087 32.0311 9.3236 34.8854 10.6106 37.1143C11.8976 39.3431 14.7492 40.1066 16.978 38.8196C17.2627 38.6546 17.5309 38.4622 17.7756 38.2422L24.8171 31.8748C25.528 31.2326 26.4503 30.8757 27.4087 30.8757C28.3671 30.8757 29.2921 31.2326 30.0029 31.8748L37.0444 38.2422C37.2892 38.4622 37.5534 38.656 37.8394 38.8196C40.0682 40.1066 42.9225 39.3431 44.2095 37.1143C45.4937 34.8868 44.7277 32.0311 42.4988 30.7441C42.2142 30.5791 41.9153 30.4471 41.6018 30.3467L32.5676 27.4302C31.656 27.1359 30.8856 26.5137 30.4058 25.6846C29.9259 24.8554 29.7726 23.8763 29.9734 22.9399L31.9661 13.6587C32.0348 13.3369 32.0708 13.0112 32.0708 12.6812C32.0708 10.1072 29.9827 8.01636 27.4087 8.01636ZM27.5 25.4375C28.6385 25.4375 29.5625 26.3615 29.5625 27.5C29.5625 28.6385 28.6385 29.5625 27.5 29.5625C26.3615 29.5625 25.4375 28.6385 25.4375 27.5C25.4375 26.3615 26.3615 25.4375 27.5 25.4375Z" fill="#0C499C"/>
</svg>
