<svg width="65" height="55" viewBox="0 0 65 55" fill="none" xmlns="http://www.w3.org/2000/svg">
<path d="M59.9264 29.9775L56.2097 17.6505C55.9836 16.8725 55.5094 16.1892 54.8591 15.7042C54.2088 15.2192 53.4178 14.9589 52.6058 14.9627H41.4845C40.4889 14.9638 39.5345 15.3589 38.8305 16.0612C38.1266 16.7635 37.7306 17.7157 37.7294 18.7089V19.9521H33.7411V10.9456C33.7411 10.688 33.6386 10.441 33.456 10.2588C33.2734 10.0767 33.0258 9.97437 32.7676 9.97437H27.8075V0.971242C27.8075 0.843676 27.7824 0.717346 27.7335 0.599477C27.6846 0.481608 27.6129 0.37451 27.5225 0.284307C27.4321 0.194105 27.3247 0.122567 27.2066 0.0737829C27.0884 0.0249993 26.9618 -7.27985e-05 26.8339 1.58766e-07H14.966C14.7078 1.58766e-07 14.4602 0.102327 14.2776 0.28447C14.095 0.466613 13.9925 0.713652 13.9925 0.971242V9.97437H9.03235C8.7742 9.97452 8.52665 10.0769 8.34411 10.259C8.16156 10.4411 8.05895 10.6881 8.0588 10.9456V19.9521H7.08525C7.0769 19.9521 7.06967 19.9521 7.06132 19.9521H3.09868C2.84052 19.9522 2.59298 20.0546 2.41044 20.2367C2.22789 20.4188 2.12528 20.6658 2.12513 20.9233V30.0646C1.51699 30.2344 0.980731 30.5969 0.597354 31.0975C0.213977 31.5981 0.00430214 32.2096 0 32.8396C0.00791199 33.5221 0.253776 34.1806 0.695371 34.702C1.13697 35.2233 1.74674 35.575 2.41998 35.6967V45.1988C2.43682 46.2074 2.85388 47.1681 3.57972 47.8704C4.30555 48.5726 5.28092 48.9591 6.29194 48.945H8.56894C8.84562 50.6354 9.71578 52.1725 11.0239 53.2817C12.3321 54.391 13.993 55 15.7098 55C17.4267 55 19.0875 54.391 20.3957 53.2817C21.7039 52.1725 22.574 50.6354 22.8507 48.945H42.1488C42.4577 50.601 43.3378 52.097 44.6364 53.1737C45.935 54.2503 47.5703 54.8397 49.2588 54.8397C50.9472 54.8397 52.5825 54.2503 53.8811 53.1737C55.1797 52.097 56.0598 50.601 56.3688 48.945H61.2449C62.2404 48.9438 63.1949 48.5488 63.8989 47.8465C64.6028 47.1442 64.9988 46.192 65 45.1988V35.725C64.9977 34.3158 64.4817 32.9556 63.5481 31.8981C62.6146 30.8405 61.3273 30.1579 59.9264 29.9775V29.9775ZM54.3443 18.2061L57.8775 29.9253H47.6674V16.9051H52.6053C52.9975 16.9037 53.3795 17.0299 53.6932 17.2647C54.007 17.4995 54.2354 17.83 54.3438 18.2061H54.3443ZM39.6765 18.7089C39.6771 18.2307 39.8677 17.7722 40.2067 17.4341C40.5456 17.096 41.0052 16.9057 41.4845 16.9051H45.7203V29.9253H39.6765V18.7089ZM37.7294 29.9253H27.8103V21.8945H29.8469V24.6856C29.8471 24.9432 29.9497 25.1901 30.1322 25.3722C30.3148 25.5543 30.5623 25.6567 30.8205 25.6569H34.7147C34.9729 25.6569 35.2205 25.5545 35.4031 25.3724C35.5857 25.1902 35.6883 24.9432 35.6883 24.6856V21.8945H37.7294V29.9253ZM15.9385 29.9253V21.8945H17.9801V24.6856C17.9803 24.9432 18.0829 25.1901 18.2655 25.3722C18.448 25.5543 18.6955 25.6567 18.9537 25.6569H22.8479C23.1061 25.6569 23.3537 25.5545 23.5363 25.3724C23.7189 25.1902 23.8215 24.9432 23.8215 24.6856V21.8945H25.8631V29.9253H15.9385ZM8.0588 21.8945H10.0059V23.7144H8.0588V21.8945ZM31.794 21.8945H33.7411V23.7144H31.794V21.8945ZM19.9273 21.8945H21.8744V23.7144H19.9273V21.8945ZM31.7946 19.9521H21.8744V11.9168H23.9138V14.7107C23.914 14.9682 24.0166 15.2152 24.1991 15.3973C24.3817 15.5794 24.6292 15.6818 24.8874 15.6819H28.7816C29.0398 15.6819 29.2874 15.5796 29.47 15.3975C29.6526 15.2153 29.7551 14.9683 29.7551 14.7107V11.9168H31.7946V19.9521ZM27.8075 11.9168V13.7395H25.8604V11.9168H27.8075ZM21.8744 1.94193V3.76398H19.9273V1.94193H21.8744ZM15.9401 1.94193H17.9801V4.73522C17.9801 4.99281 18.0827 5.23984 18.2653 5.42199C18.4479 5.60413 18.6955 5.70646 18.9537 5.70646H22.8479C22.9758 5.70653 23.1024 5.68146 23.2206 5.63267C23.3387 5.58389 23.4461 5.51235 23.5365 5.42215C23.6269 5.33195 23.6986 5.22485 23.7475 5.10698C23.7964 4.98911 23.8215 4.86278 23.8215 4.73522V1.94193H25.8609V9.97437H15.9396L15.9401 1.94193ZM15.9401 11.9168V13.7395H13.993V11.9168H15.9401ZM10.0065 11.9168H12.0459V14.7107C12.0461 14.9682 12.1487 15.2152 12.3312 15.3973C12.5138 15.5794 12.7613 15.6818 13.0195 15.6819H16.9137C17.1719 15.6819 17.4195 15.5796 17.6021 15.3975C17.7847 15.2153 17.8872 14.9683 17.8872 14.7107V11.9168H19.9273V19.9521H10.0059L10.0065 11.9168ZM4.07224 21.8945H6.11169V24.6856C6.11184 24.9432 6.21446 25.1901 6.397 25.3722C6.57955 25.5543 6.82709 25.6567 7.08525 25.6569H10.9795C11.2377 25.6569 11.4853 25.5545 11.6679 25.3724C11.8504 25.1902 11.953 24.9432 11.953 24.6856V21.8945H13.9914V29.9253H4.07224V21.8945ZM1.94711 32.839C1.9601 32.5721 2.07749 32.3209 2.27407 32.1393C2.47065 31.9577 2.73075 31.8602 2.99855 31.8678H37.7294V33.8103H2.99855C2.7302 33.8199 2.46895 33.7231 2.27192 33.5411C2.07489 33.3591 1.95811 33.1067 1.94711 32.839V32.839ZM4.36708 45.1988V35.7528H37.7294V47.0025H22.9063C22.7143 45.2315 21.8731 43.5937 20.5443 42.4038C19.2155 41.2138 17.4929 40.5556 15.7073 40.5556C13.9217 40.5556 12.1991 41.2138 10.8703 42.4038C9.54155 43.5937 8.70035 45.2315 8.5083 47.0025H6.29194C5.79718 47.017 5.31683 46.8354 4.95606 46.4973C4.59528 46.1592 4.3835 45.6923 4.36708 45.1988V45.1988ZM15.7048 53.0575C14.6579 53.057 13.6346 52.7467 12.7645 52.166C11.8943 51.5853 11.2162 50.7602 10.8161 49.795C10.416 48.8299 10.3117 47.768 10.5165 46.7438C10.7213 45.7195 11.2259 44.7788 11.9666 44.0407C12.7073 43.3026 13.6507 42.8001 14.6776 42.5969C15.7046 42.3937 16.7688 42.4988 17.7358 42.899C18.7029 43.2992 19.5292 43.9765 20.1104 44.8452C20.6916 45.7139 21.0015 46.7351 21.0009 47.7795C21.0026 48.4735 20.8666 49.1611 20.601 49.8025C20.3353 50.4439 19.9452 51.0267 19.453 51.5172C18.9608 52.0077 18.3763 52.3963 17.733 52.6606C17.0898 52.925 16.4005 53.0599 15.7048 53.0575ZM49.2618 52.9021C48.2149 52.9027 47.1913 52.5935 46.3205 52.0137C45.4497 51.4339 44.7708 50.6095 44.3697 49.6448C43.9685 48.68 43.8631 47.6183 44.0669 46.5938C44.2706 45.5693 44.7742 44.6281 45.5141 43.8892C46.254 43.1503 47.1969 42.6469 48.2236 42.4426C49.2503 42.2383 50.3147 42.3423 51.2821 42.7415C52.2496 43.1407 53.0766 43.8171 53.6587 44.6852C54.2408 45.5533 54.5518 46.5741 54.5524 47.6186C54.5528 48.3121 54.4163 48.9989 54.1507 49.6397C53.885 50.2806 53.4954 50.863 53.0041 51.3536C52.5128 51.8442 51.9295 52.2335 51.2874 52.4992C50.6453 52.7649 49.957 52.9018 49.2618 52.9021ZM63.0529 45.1988C63.0523 45.677 62.8616 46.1354 62.5227 46.4736C62.1837 46.8117 61.7242 47.0019 61.2449 47.0025H56.4733C56.3178 45.2006 55.4904 43.5225 54.1546 42.2997C52.8189 41.0769 51.0719 40.3985 49.259 40.3985C47.4461 40.3985 45.6992 41.0769 44.3634 42.2997C43.0277 43.5225 42.2003 45.2006 42.0447 47.0025H39.6765V31.8678H59.1865C60.2116 31.869 61.1943 32.2757 61.9192 32.9989C62.644 33.722 63.0517 34.7024 63.0529 35.725V45.1988Z" fill="#0C499C"/>
<path d="M46.6939 33.8105H43.9601C43.7019 33.8105 43.4543 33.9129 43.2717 34.095C43.0891 34.2772 42.9866 34.5242 42.9866 34.7818C42.9866 35.0394 43.0891 35.2864 43.2717 35.4686C43.4543 35.6507 43.7019 35.753 43.9601 35.753H46.6916C46.9498 35.753 47.1975 35.6507 47.38 35.4686C47.5626 35.2864 47.6652 35.0394 47.6652 34.7818C47.6652 34.5242 47.5626 34.2772 47.38 34.095C47.1975 33.9129 46.9498 33.8105 46.6916 33.8105H46.6939Z" fill="#0C499C"/>
<path d="M15.7048 44.4385C15.0432 44.439 14.3966 44.6352 13.8468 45.0022C13.2969 45.3693 12.8684 45.8907 12.6155 46.5005C12.3626 47.1104 12.2966 47.7814 12.4258 48.4287C12.555 49.076 12.8736 49.6706 13.3414 50.1373C13.8092 50.604 14.4052 50.9219 15.0541 51.0508C15.7029 51.1797 16.3755 51.1138 16.9868 50.8615C17.5982 50.6092 18.1208 50.1817 18.4887 49.6332C18.8566 49.0846 19.0533 48.4396 19.0538 47.7795C19.0535 46.8935 18.7006 46.0439 18.0726 45.4174C17.4446 44.7909 16.5929 44.4388 15.7048 44.4385V44.4385ZM17.0956 47.8989C17.0713 48.168 16.9691 48.4242 16.8014 48.6364C16.6338 48.8486 16.4079 49.0076 16.1512 49.0939C15.8946 49.1803 15.6183 49.1904 15.3561 49.1229C15.0938 49.0554 14.8569 48.9133 14.6742 48.7139C14.4915 48.5144 14.3708 48.2663 14.3269 47.9997C14.2831 47.733 14.3179 47.4594 14.4271 47.2122C14.5363 46.965 14.7152 46.7547 14.9421 46.6071C15.169 46.4596 15.434 46.381 15.7048 46.381C15.8989 46.3808 16.0908 46.421 16.2685 46.4989C16.4461 46.5769 16.6055 46.6909 16.7366 46.8337C16.8676 46.9765 16.9674 47.1449 17.0296 47.3283C17.0918 47.5117 17.115 47.706 17.0978 47.8989H17.0956Z" fill="#0C499C"/>
<path d="M49.2618 44.2832C48.6211 44.2824 47.9936 44.465 47.4539 44.8096C46.9141 45.1541 46.4849 45.646 46.2172 46.2267C45.9495 46.8075 45.8545 47.4527 45.9436 48.0857C46.0327 48.7187 46.3021 49.3129 46.7198 49.7977C47.1375 50.2824 47.6859 50.6373 48.2999 50.8202C48.9138 51.0031 49.5675 51.0063 50.1833 50.8295C50.799 50.6526 51.3509 50.3031 51.7733 49.8225C52.1958 49.3418 52.471 48.7503 52.5664 48.1182V48.1127C52.6369 47.6385 52.6042 47.1547 52.4706 46.6942C52.337 46.2336 52.1056 45.8072 51.7921 45.4439C51.4786 45.0806 51.0903 44.7889 50.6537 44.5886C50.2171 44.3883 49.7424 44.2842 49.2618 44.2832V44.2832ZM47.8599 47.6187C47.8599 47.2485 48.0073 46.8935 48.2697 46.6317C48.5321 46.37 48.888 46.2229 49.2591 46.2229C49.6301 46.2229 49.986 46.37 50.2484 46.6317C50.5108 46.8935 50.6582 47.2485 50.6582 47.6187C50.6582 47.6254 50.6582 47.6309 50.6582 47.6376C50.6507 48.0032 50.501 48.3516 50.2407 48.609C49.9805 48.8665 49.63 49.0129 49.2635 49.0173C49.079 49.0184 48.8962 48.983 48.7255 48.9131C48.5548 48.8433 48.3997 48.7403 48.2692 48.6102C48.1386 48.4802 48.0352 48.3256 47.965 48.1554C47.8948 47.9852 47.859 47.8028 47.8599 47.6187V47.6187Z" fill="#0C499C"/>
</svg>
