<svg width="55" height="55" viewBox="0 0 55 55" fill="none" xmlns="http://www.w3.org/2000/svg">
<g clip-path="url(#clip0_575_607)">
<path d="M13.8438 0.1875C8.70909 0.1875 4.5 4.39659 4.5 9.53125V31.5037C1.9436 33.9864 0.1875 37.3231 0.1875 41.1562C0.1875 48.6726 6.32739 54.8125 13.8438 54.8125C21.3601 54.8125 27.5 48.6726 27.5 41.1562C27.5 37.3248 25.7434 33.9894 23.1875 31.5065V9.53125C23.1875 4.39659 18.9784 0.1875 13.8438 0.1875ZM41.802 3.1355C41.0358 3.1355 40.282 3.19998 39.5503 3.32361L39.0983 5.19629C38.3968 8.10291 35.4047 9.83045 32.5369 8.98376L30.9646 8.52051C30.0173 9.73951 29.26 11.1218 28.7354 12.6196L29.9033 13.7455C32.0409 15.8025 32.0409 19.2213 29.9033 21.2783L28.7354 22.4014C29.26 23.9007 30.0173 25.2843 30.9646 26.5033L32.5369 26.04C35.4047 25.1919 38.3968 26.9195 39.0983 29.8275L39.5503 31.7002C40.2834 31.8238 41.0358 31.8883 41.802 31.8883C42.5682 31.8883 43.3206 31.8238 44.0537 31.7002L44.5029 29.8275C45.2044 26.9195 48.1993 25.1934 51.0671 26.04L52.6394 26.5033C53.5867 25.2843 54.344 23.8992 54.8687 22.4014L53.7007 21.2783C51.5631 19.2213 51.5631 15.8025 53.7007 13.7455L54.8687 12.6196C54.344 11.1203 53.5867 9.73951 52.6394 8.52051L51.0671 8.98376C48.1993 9.83189 45.2044 8.10435 44.5029 5.19629L44.0537 3.32361C43.3206 3.19998 42.5682 3.1355 41.802 3.1355ZM13.8438 1.84798C18.6875 1.69597 21.5 6.72804 21.5 9.53125V31.7753C21.5002 32.0982 21.36 32.2089 21.5 32.5C21.64 32.7911 22.2479 33.2981 22.5 33.5C24.6384 35.214 26 39.0353 26 42C26 47.1854 19.1854 53 14 53C8.81461 53 2 46.6854 2 41.5C2 38.5336 3.28348 34.8275 5.42227 33.1132C5.67438 32.9113 6.36005 32.7911 6.5 32.5C6.63995 32.2089 6.49977 32.323 6.5 32V9.5C6.5 6.69679 9 2 13.8438 1.84798ZM41.802 13.198C44.1839 13.198 46.1145 15.1286 46.1145 17.5105C46.1145 19.8924 44.1839 21.823 41.802 21.823C39.4201 21.823 37.4895 19.8924 37.4895 17.5105C37.4895 15.1286 39.4201 13.198 41.802 13.198ZM13.8101 17.4066C13.2387 17.4155 12.6942 17.6509 12.2962 18.061C11.8982 18.4711 11.6793 19.0224 11.6875 19.5938V35.0665C10.2552 35.5796 9.04955 36.5812 8.28253 37.8952C7.51551 39.2091 7.23619 40.7514 7.49365 42.2509C7.75111 43.7505 8.52889 45.1112 9.69027 46.0941C10.8516 47.077 12.3223 47.619 13.8438 47.625C15.3694 47.6246 16.8458 47.0849 18.012 46.1014C19.1783 45.1179 19.9595 43.7538 20.2175 42.2502C20.4755 40.7465 20.1937 39.2001 19.422 37.884C18.6503 36.568 17.4382 35.5671 16 35.0581V19.5938C16.0041 19.3051 15.9503 19.0187 15.8417 18.7512C15.7331 18.4838 15.5719 18.241 15.3676 18.037C15.1634 17.833 14.9203 17.6721 14.6528 17.5639C14.3852 17.4556 14.0987 17.4021 13.8101 17.4066Z" fill="#0C499C"/>
</g>
<defs>
<clipPath id="clip0_575_607">
<rect width="55" height="55" fill="white"/>
</clipPath>
</defs>
</svg>
