<svg width="19" height="20" viewBox="0 0 19 20" fill="none" xmlns="http://www.w3.org/2000/svg">
<path d="M17.2795 8.92903L8.89862 16.8038C8.1255 17.5302 7.07692 17.9383 5.98355 17.9383C4.89019 17.9383 3.8416 17.5302 3.06848 16.8038C2.29535 16.0773 1.86102 15.0921 1.86102 14.0647C1.86102 13.0374 2.29535 12.0521 3.06848 11.3257L12.1781 2.76618C12.6613 2.31216 13.3166 2.05709 14 2.05709C14.6834 2.05709 15.3387 2.31216 15.8219 2.76618C16.3051 3.22021 16.5766 3.836 16.5766 4.47808C16.5766 5.12017 16.3051 5.73596 15.8219 6.18999L8.16985 13.38C7.97657 13.5616 7.71443 13.6636 7.44109 13.6636C7.16774 13.6636 6.9056 13.5616 6.71232 13.38C6.51904 13.1984 6.41045 12.952 6.41045 12.6952C6.41045 12.4384 6.51904 12.1921 6.71232 12.0104L13.6356 5.50522L12.5425 4.47808L5.61917 10.9833C5.13596 11.4373 4.8645 12.0531 4.8645 12.6952C4.8645 13.3373 5.13596 13.9531 5.61917 14.4071C6.10237 14.8611 6.75773 15.1162 7.44109 15.1162C8.12444 15.1162 8.7798 14.8611 9.26301 14.4071L16.9151 7.21713C17.6882 6.49069 18.1225 5.50542 18.1225 4.47808C18.1225 3.45074 17.6882 2.46548 16.9151 1.73904C16.1419 1.0126 15.0934 0.604494 14 0.604494C12.9066 0.604494 11.8581 1.0126 11.0849 1.73904L1.97533 10.2985C0.912278 11.2974 0.315064 12.6521 0.315064 14.0647C0.315064 15.4773 0.912278 16.8321 1.97533 17.8309C3.03837 18.8298 4.48017 19.3909 5.98355 19.3909C7.48693 19.3909 8.92873 18.8298 9.99178 17.8309L18.3726 9.95617L17.2795 8.92903Z" fill="#9A9A9A"/>
</svg>
