<svg width="48" height="48" viewBox="0 0 48 48" fill="none" xmlns="http://www.w3.org/2000/svg">
<g clip-path="url(#clip0_420_521)">
<path d="M10.8855 36.1846L5.05001 38.3001C3.84728 38.7392 2.80819 39.5366 2.07297 40.5849C1.33775 41.6331 0.941784 42.8817 0.938507 44.1621V46.8576C0.938507 47.0896 1.03069 47.3122 1.19479 47.4763C1.35888 47.6404 1.58144 47.7326 1.81351 47.7326H36.26C36.4921 47.7326 36.7146 47.6404 36.8787 47.4763C37.0428 47.3122 37.135 47.0896 37.135 46.8576V44.1621C37.1317 42.8816 36.7357 41.633 36.0003 40.5848C35.265 39.5365 34.2258 38.7391 33.023 38.3001L27.1915 36.1876L24.875 34.7916V32.7416C26.5283 31.7419 27.8949 30.3316 28.842 28.6477C29.789 26.9638 30.2844 25.0635 30.28 23.1316V21.5001H30.3545C31.2039 21.5013 32.0344 21.2494 32.74 20.7766C33.4457 20.3038 33.9945 19.6315 34.3164 18.8455C34.6383 18.0595 34.7187 17.1954 34.5474 16.3634C34.3761 15.5315 33.9608 14.7695 33.3545 14.1746V7.92905C33.3524 5.89819 32.5448 3.95109 31.1088 2.51495C29.6729 1.07882 27.7259 0.270937 25.695 0.268555H11.945C11.0323 0.269395 10.1469 0.580714 9.43454 1.15135C8.72215 1.72199 8.22508 2.51799 8.02501 3.40855C6.93365 3.59442 5.94312 4.16008 5.22846 5.00558C4.5138 5.85108 4.12101 6.92198 4.11951 8.02905V14.9291C3.67394 15.6103 3.43611 16.4065 3.43501 17.2206C3.43633 18.3552 3.8877 19.443 4.69008 20.2453C5.49247 21.0476 6.58033 21.4989 7.71501 21.5001H7.79001V23.1331C7.78935 23.8588 7.85833 24.583 7.99601 25.2956C8.29448 26.8321 8.91183 28.2889 9.8082 29.572C10.7046 30.8552 11.86 31.9361 13.2 32.7451V34.7916L10.8855 36.1846ZM18.16 45.9816H2.69001V44.1611C2.69232 43.2397 2.97742 42.3412 3.50678 41.587C4.03614 40.8329 4.78424 40.2594 5.65001 39.9441L10.764 38.0911L13.264 44.2746C13.3133 44.3966 13.3895 44.5059 13.487 44.5943C13.5845 44.6827 13.7007 44.7479 13.827 44.7851C13.9008 44.8063 13.9772 44.8176 14.054 44.8186C14.061 44.8186 14.068 44.8216 14.075 44.8216C14.082 44.8216 14.101 44.8161 14.1145 44.8151C14.1761 44.8124 14.2373 44.8032 14.297 44.7876C14.319 44.7816 14.34 44.7766 14.361 44.7696C14.4376 44.744 14.5103 44.708 14.577 44.6626L18.16 42.1566V45.9816ZM16.3225 36.3716C16.3055 36.354 16.288 36.3371 16.27 36.3216L14.95 34.9366V33.6116C17.5793 34.6329 20.4957 34.6329 23.125 33.6116V34.9376L22.4295 35.6686C22.4095 35.6861 22.39 35.7046 22.372 35.7236L19.035 39.2101L16.3225 36.3716ZM27.3105 38.0916L32.4265 39.9416C33.2918 40.2575 34.0394 40.8313 34.5685 41.5854C35.0975 42.3396 35.3825 43.2379 35.385 44.1591V45.9796H19.91V42.1546L23.493 44.6606C23.5594 44.7058 23.6318 44.7416 23.708 44.7671C23.7305 44.7746 23.7525 44.7796 23.775 44.7856C23.8326 44.8005 23.8916 44.8096 23.951 44.8126C23.966 44.8126 23.98 44.8196 23.995 44.8196C24.01 44.8196 24.0105 44.8161 24.0185 44.8161C24.0944 44.8151 24.1699 44.8042 24.243 44.7836C24.3692 44.7463 24.4854 44.6811 24.5829 44.5927C24.6804 44.5043 24.7567 44.395 24.806 44.2731L27.3105 38.0916ZM25.724 37.3466L23.597 42.5966L20.373 40.3421L23.585 36.9841C23.605 36.9661 23.625 36.9476 23.644 36.9276L24.15 36.4001L25.724 37.3466ZM32.885 17.2191C32.8828 17.8895 32.6155 18.5319 32.1414 19.0061C31.6673 19.4802 31.025 19.7477 30.3545 19.7501H30.28V14.6891H30.3545C31.0247 14.6918 31.6667 14.9592 32.1406 15.4331C32.6146 15.907 32.8821 16.5489 32.885 17.2191ZM7.79001 19.7501H7.71501C7.0443 19.7494 6.40124 19.4827 5.92693 19.0085C5.45262 18.5343 5.1858 17.8913 5.18501 17.2206C5.18227 16.6692 5.3635 16.1328 5.70001 15.6961C5.76993 15.6016 5.84699 15.5127 5.93051 15.4301C6.16364 15.1941 6.4415 15.007 6.74783 14.8798C7.05416 14.7525 7.3828 14.6877 7.71451 14.6891H7.78951L7.79001 19.7501ZM7.97201 11.6806C7.85135 12.0563 7.78995 12.4485 7.79001 12.8431V12.9431H7.71501C7.07594 12.9432 6.44512 13.0874 5.86951 13.3651V8.02905C5.87031 7.30018 6.14193 6.59761 6.63163 6.05774C7.12133 5.51787 7.79416 5.17923 8.51951 5.10755C8.65125 5.15226 8.79173 5.16495 8.92935 5.14456C9.06696 5.12418 9.19775 5.07132 9.31087 4.99035C9.42399 4.90938 9.51621 4.80263 9.57988 4.67894C9.64355 4.55525 9.67684 4.41817 9.67701 4.27905C9.67846 3.67911 9.91778 3.10424 10.3425 2.68048C10.7672 2.25673 11.3426 2.01869 11.9425 2.01855H25.6925C27.2598 2.01975 28.7627 2.64279 29.8711 3.75093C30.9795 4.85906 31.6029 6.36172 31.6045 7.92905V13.1291C31.1997 13.0034 30.7784 12.9389 30.3545 12.9376H30.28V12.8376C30.2807 12.2889 30.1607 11.7469 29.9286 11.2497C29.6965 10.7526 29.3579 10.3126 28.9368 9.96094C28.5158 9.60924 28.0225 9.35443 27.492 9.21455C26.9615 9.07468 26.4067 9.05318 25.867 9.15156C23.6124 9.55676 21.3257 9.75708 19.035 9.75005C16.7449 9.75788 14.4587 9.55857 12.2045 9.15455C11.3131 8.99313 10.3934 9.15986 9.61533 9.62392C8.8373 10.088 8.25356 10.818 7.97201 11.6791V11.6806ZM9.71451 24.9631C9.59771 24.3601 9.53928 23.7472 9.54001 23.1331V12.8416C9.54025 12.6298 9.57296 12.4194 9.63701 12.2176C9.76756 11.8188 10.0206 11.4715 10.36 11.2249C10.6994 10.9783 11.108 10.845 11.5275 10.8441C11.6481 10.844 11.7684 10.855 11.887 10.8771C14.246 11.2999 16.6384 11.5084 19.035 11.5001C21.4323 11.5081 23.8254 11.2989 26.185 10.8751C26.4723 10.8233 26.7675 10.8352 27.0497 10.9101C27.3319 10.985 27.5942 11.121 27.8181 11.3085C28.0419 11.4959 28.2218 11.7303 28.3451 11.9949C28.4684 12.2596 28.532 12.5481 28.5315 12.8401V23.1301C28.5322 23.7437 28.474 24.356 28.3575 24.9586C28.0879 26.3279 27.5203 27.6211 26.6951 28.7467C25.87 29.8722 24.8073 30.8025 23.5825 31.4716C22.1833 32.2152 20.623 32.604 19.0385 32.604C17.454 32.604 15.8937 32.2152 14.4945 31.4716C13.2665 30.8068 12.2009 29.8782 11.3744 28.7526C10.548 27.627 9.98107 26.3323 9.71451 24.9616V24.9631ZM13.926 36.3986L15.049 37.5786C15.0678 37.5986 15.0877 37.6176 15.1085 37.6356L17.7 40.3436L14.476 42.5986L12.35 37.3461L13.926 36.3986Z" fill="#2A384B"/>
<path d="M44.8235 30.5599V26.9799C45.8538 26.2803 46.6326 25.2689 47.0456 24.094C47.4585 22.9192 47.4839 21.6429 47.118 20.4525C46.7521 19.2622 46.0141 18.2206 45.0125 17.4806C44.0108 16.7406 42.7983 16.3413 41.553 16.3413C40.3077 16.3413 39.0952 16.7406 38.0936 17.4806C37.0919 18.2206 36.354 19.2622 35.988 20.4525C35.6221 21.6429 35.6475 22.9192 36.0605 24.094C36.4735 25.2689 37.2523 26.2803 38.2825 26.9799V34.5104C38.2825 34.7189 38.357 34.9205 38.4925 35.0789L40.888 37.8829C40.9702 37.979 41.0722 38.0562 41.187 38.1092C41.3019 38.1621 41.4268 38.1895 41.5533 38.1895C41.6797 38.1895 41.8047 38.1621 41.9195 38.1092C42.0344 38.0562 42.1364 37.979 42.2185 37.8829L44.614 35.0789C44.7347 34.9376 44.8072 34.7616 44.8211 34.5763C44.8351 34.391 44.7897 34.2061 44.6915 34.0484L43.725 32.4954L44.6805 31.0399C44.7739 30.8972 44.8236 30.7304 44.8235 30.5599ZM43.5235 25.7269C43.3871 25.8027 43.2735 25.9136 43.1944 26.0481C43.1153 26.1826 43.0735 26.3358 43.0735 26.4919V30.2999L41.955 32.0034C41.8634 32.143 41.8136 32.306 41.8116 32.473C41.8096 32.64 41.8553 32.8041 41.9435 32.9459L42.8675 34.4289L41.553 35.9669L40.0325 34.1879V26.4919C40.0325 26.3358 39.9908 26.1826 39.9116 26.0481C39.8325 25.9136 39.7189 25.8027 39.5825 25.7269C38.7925 25.2899 38.1702 24.6028 37.8133 23.7736C37.4564 22.9443 37.3851 22.02 37.6108 21.1459C37.8364 20.2718 38.3462 19.4974 39.0599 18.9446C39.7736 18.3917 40.6507 18.0917 41.5535 18.0917C42.4563 18.0917 43.3335 18.3917 44.0472 18.9446C44.7609 19.4974 45.2706 20.2718 45.4963 21.1459C45.7219 22.02 45.6507 22.9443 45.2938 23.7736C44.9369 24.6028 44.3145 25.2899 43.5245 25.7269H43.5235Z" fill="#2A384B"/>
<path d="M42.75 21.0109C42.7501 20.7746 42.6802 20.5437 42.549 20.3472C42.4178 20.1507 42.2312 19.9975 42.013 19.907C41.7947 19.8165 41.5545 19.7928 41.3228 19.8388C41.0911 19.8848 40.8782 19.9986 40.7111 20.1656C40.544 20.3326 40.4301 20.5455 40.384 20.7772C40.3379 21.0089 40.3615 21.2491 40.4519 21.4674C40.5423 21.6857 40.6954 21.8723 40.8918 22.0036C41.0883 22.1348 41.3193 22.2049 41.5555 22.2049C41.8722 22.2049 42.176 22.0791 42.4 21.8552C42.624 21.6313 42.7499 21.3276 42.75 21.0109Z" fill="#2A384B"/>
</g>
<defs>
<clipPath id="clip0_420_521">
<rect width="48" height="48" fill="white"/>
</clipPath>
</defs>
</svg>
