<svg width="32" height="48" viewBox="0 0 32 48" fill="none" xmlns="http://www.w3.org/2000/svg">
<g clip-path="url(#clip0_420_519)">
<path d="M31.6935 14.5915C31.6893 10.8886 30.2164 7.33852 27.598 4.72019C24.9795 2.10187 21.4294 0.629102 17.7265 0.625H14.268C10.5649 0.628838 7.01453 2.10149 4.3959 4.71984C1.77727 7.33819 0.304235 10.8884 0.299999 14.5915V22.3735C0.299999 22.386 0.303501 22.3985 0.304001 22.4115V24.0355C0.305722 24.854 0.632001 25.6384 1.21127 26.2166C1.79055 26.7949 2.57551 27.1197 3.394 27.12H6.2555C6.285 27.4025 6.3235 27.685 6.378 27.97C6.6354 29.298 7.16619 30.558 7.93667 31.6698C8.70715 32.7817 9.70046 33.7211 10.8535 34.4285V36.05L8.933 37.206L3.9235 39.022C2.86496 39.4085 1.95048 40.1104 1.30349 41.033C0.656505 41.9557 0.308169 43.0546 0.3055 44.1815V46.5C0.3055 46.7321 0.397687 46.9546 0.561781 47.1187C0.725875 47.2828 0.948436 47.375 1.1805 47.375H30.8185C31.0506 47.375 31.2731 47.2828 31.4372 47.1187C31.6013 46.9546 31.6935 46.7321 31.6935 46.5V44.1815C31.6907 43.0544 31.3422 41.9554 30.6951 41.0327C30.0479 40.1099 29.1332 39.408 28.0745 39.0215L23.067 37.2085L21.144 36.05V34.423C21.7914 34.0246 22.3903 33.5523 22.9285 33.0155C23.5247 32.4147 24.0416 31.74 24.4665 31.008C25.4916 30.8966 26.4536 30.4582 27.21 29.7575C27.9665 29.0567 28.4772 28.1311 28.6665 27.1175C29.476 27.105 30.2482 26.775 30.8166 26.1984C31.385 25.6219 31.704 24.8451 31.705 24.0355V20.7095C31.705 20.63 31.699 20.552 31.6935 20.474V14.5915ZM2.051 14.5915C2.05471 11.3525 3.34306 8.2473 5.6334 5.95705C7.92374 3.6668 11.029 2.37857 14.268 2.375H17.7265C20.9655 2.37857 24.0708 3.6668 26.3611 5.95705C28.6514 8.2473 29.9398 11.3525 29.9435 14.5915V17.927C29.5304 17.7295 29.0784 17.627 28.6205 17.627H28.44V13.005C28.4374 11.2253 27.7289 9.51931 26.47 8.26129C25.2112 7.00327 23.5047 6.29595 21.725 6.2945H9.895C9.0962 6.29524 8.32058 6.56308 7.69154 7.05541C7.06249 7.54773 6.61614 8.23627 6.4235 9.0115C5.47336 9.19183 4.61576 9.69763 3.99824 10.4419C3.38072 11.1862 3.04188 12.1224 3.04 13.0895V17.6465C2.69637 17.6868 2.362 17.7849 2.051 17.9365V14.5915ZM6.2 25.37H3.395C3.04048 25.3703 2.70032 25.2299 2.44913 24.9798C2.19793 24.7296 2.05619 24.39 2.055 24.0355V20.7095C2.05619 20.355 2.19793 20.0154 2.44913 19.7652C2.70032 19.5151 3.04048 19.3747 3.395 19.375H6.2V25.37ZM11.58 37.656L12.48 38.5995C12.4975 38.6185 12.5165 38.636 12.5355 38.653L13.806 39.982L14.6615 40.8775L12.128 42.65L10.396 38.369L11.58 37.656ZM12.6045 36.194V35.281C12.648 35.297 12.692 35.308 12.7355 35.323C14.8878 36.0853 17.2391 36.0703 19.3815 35.2805H19.394V36.194L18.7865 36.829L18.78 36.8355L16 39.7445L13.75 37.395L12.6045 36.194ZM23.187 39.1135L27.4775 40.667C28.1989 40.9299 28.8222 41.4079 29.2632 42.0364C29.7042 42.6649 29.9417 43.4137 29.9435 44.1815V45.625H2.0555V44.1815C2.05723 43.4138 2.29454 42.6651 2.73536 42.0366C3.17619 41.4081 3.79929 40.9301 4.5205 40.667L8.8095 39.1125L10.9185 44.324C10.9676 44.4461 11.0437 44.5554 11.1411 44.6438C11.2386 44.7323 11.3548 44.7974 11.481 44.8345C11.5545 44.8556 11.6305 44.8667 11.707 44.8675C11.7144 44.8692 11.7219 44.8703 11.7295 44.871C11.744 44.871 11.7575 44.865 11.772 44.8645C11.8318 44.862 11.8912 44.853 11.949 44.8375C11.972 44.831 11.9945 44.826 12.0165 44.818C12.0927 44.7932 12.1651 44.7579 12.2315 44.713L15.997 42.078L19.763 44.713C19.8293 44.7578 19.9015 44.7931 19.9775 44.818C20 44.826 20.0225 44.831 20.0455 44.838C20.1029 44.8521 20.1615 44.861 20.2205 44.8645C20.2355 44.8645 20.25 44.871 20.265 44.871C20.28 44.871 20.2805 44.8675 20.2885 44.8675C20.4589 44.8657 20.6249 44.813 20.7652 44.7163C20.9055 44.6195 21.0137 44.4831 21.076 44.3245L23.187 39.1135ZM21.6 38.369L19.867 42.65L17.335 40.8775L20 38.094C20.018 38.078 20.0355 38.0605 20.0525 38.044L20.4205 37.658L21.6 38.369ZM24.045 26.086C24.0447 26.6063 23.9945 27.1253 23.895 27.636C23.7847 28.2029 23.613 28.7562 23.383 29.286H17.958C17.7259 29.286 17.5034 29.3782 17.3393 29.5423C17.1752 29.7064 17.083 29.9289 17.083 30.161C17.083 30.3931 17.1752 30.6156 17.3393 30.7797C17.5034 30.9438 17.7259 31.036 17.958 31.036H22.34C22.1384 31.2965 21.9214 31.5446 21.69 31.779C21.1463 32.3245 20.5266 32.7885 19.85 33.1565C18.6645 33.7866 17.3425 34.116 16 34.116C14.6575 34.116 13.3355 33.7866 12.15 33.1565C11.1093 32.5928 10.2065 31.8055 9.5062 30.8514C8.80595 29.8972 8.32572 28.7998 8.1 27.638C8.01698 27.1966 7.97082 26.7491 7.962 26.3C7.962 26.2815 7.9675 26.2645 7.9675 26.245V18.492C7.97055 18.3328 7.96555 18.1736 7.9525 18.015V17.232C7.95242 17.0623 7.97856 16.8937 8.03 16.732C8.13398 16.413 8.33595 16.135 8.60716 15.9375C8.87838 15.74 9.205 15.6331 9.5405 15.632C9.63695 15.6324 9.73317 15.6414 9.828 15.659C11.8638 16.0249 13.9286 16.206 15.997 16.2C18.0669 16.2068 20.1332 16.026 22.1705 15.66C22.3989 15.6176 22.6338 15.6262 22.8585 15.685C23.0832 15.7439 23.2922 15.8516 23.4705 16.0005C23.6511 16.1505 23.7963 16.3384 23.896 16.5509C23.9956 16.7634 24.0472 16.9953 24.047 17.23L24.045 26.086ZM24.588 14.657C24.2128 14.3441 23.7733 14.1176 23.3007 13.9938C22.828 13.8699 22.3339 13.8518 21.8535 13.9405C19.9207 14.2869 17.9605 14.4574 15.997 14.45C14.0341 14.4567 12.0746 14.2858 10.1425 13.9395C9.34642 13.7941 8.52463 13.9423 7.82947 14.3566C7.13431 14.7709 6.61294 15.4231 6.362 16.1925C6.25436 16.5278 6.19954 16.8778 6.1995 17.23V17.623H4.79V13.0895C4.79129 12.4963 5.01178 11.9244 5.4091 11.4839C5.80643 11.0434 6.35255 10.7653 6.9425 10.703C7.07321 10.7423 7.21129 10.7505 7.34572 10.7269C7.48015 10.7033 7.60721 10.6486 7.71675 10.5672C7.82629 10.4858 7.91528 10.3799 7.97662 10.258C8.03795 10.1361 8.06993 10.0015 8.07 9.865C8.07119 9.38176 8.26399 8.91872 8.60612 8.57744C8.94824 8.23616 9.41176 8.0445 9.895 8.0445H21.725C23.0407 8.04543 24.3024 8.5682 25.2332 9.49815C26.164 10.4281 26.6879 11.6893 26.69 13.005V17.625H25.795V17.2295V17.219C25.7936 16.7296 25.6848 16.2466 25.4762 15.8039C25.2676 15.3612 24.9644 14.9697 24.588 14.657ZM25.3695 28.9365C25.4682 28.6181 25.5505 28.2948 25.616 27.968C25.6705 27.6835 25.7085 27.402 25.738 27.118H26.8705C26.7534 27.5055 26.5604 27.8658 26.3027 28.178C26.045 28.4902 25.7278 28.7481 25.3695 28.9365V28.9365ZM29.955 24.0365C29.9546 24.3903 29.8139 24.7295 29.5637 24.9797C29.3135 25.2299 28.9743 25.3706 28.6205 25.371H25.795V19.375H28.6205C28.9531 19.376 29.2733 19.5014 29.5181 19.7265C29.7629 19.9516 29.9147 20.2602 29.9435 20.5915V22.3735C29.9448 22.4132 29.9486 22.4528 29.955 22.492V24.0365Z" fill="#2A384B"/>
</g>
<defs>
<clipPath id="clip0_420_519">
<rect width="32" height="48" fill="white"/>
</clipPath>
</defs>
</svg>
