<svg width="50" height="46" viewBox="0 0 50 46" fill="none" xmlns="http://www.w3.org/2000/svg">
<path fill-rule="evenodd" clip-rule="evenodd" d="M19.0447 7.43989C26.3227 7.31871 30.3687 13.0142 28.0943 20.1397C25.8199 27.2652 18.0871 33.1546 10.8092 33.2758C4.60853 33.3727 0.730151 29.2526 1.16108 23.5813H8.00811C8.48692 25.6171 10.2585 26.9986 12.8202 26.9501C15.5734 26.9017 18.4462 25.2536 20.2178 22.9269H11.7668L13.3229 18.0554H21.9894C21.8937 15.5106 19.9784 13.6929 17.0337 13.7413C14.8791 13.7656 12.6526 14.8077 10.9289 16.3589H3.81849C7.19412 11.2692 13.2511 7.53683 19.0447 7.43989Z" fill="#0C499C"/>
<path fill-rule="evenodd" clip-rule="evenodd" d="M26.4903 27.7259H33.8161V33.6153L40.6871 27.532H48.3242L40.5195 34.4393L50 46.0001H40.9265L35.2765 39.0927L33.8161 40.3772V46.0001H26.4903V27.7259Z" fill="#0C499C"/>
<path fill-rule="evenodd" clip-rule="evenodd" d="M41.5011 9.98486C44.2064 9.98486 46.385 12.1904 46.385 14.9291C46.385 17.6678 44.2064 19.8733 41.5011 19.8733C38.7958 19.8733 36.6172 17.6678 36.6172 14.9291C36.6172 12.2146 38.7958 9.98486 41.5011 9.98486Z" fill="#0C499C"/>
<path fill-rule="evenodd" clip-rule="evenodd" d="M14.6636 11.4876C2.81299 21.7395 -3.05247 34.2212 1.59201 39.3593C5.30281 43.4795 14.6397 41.6133 24.3117 35.4088V30.5131C14.6397 38.0748 4.63247 41.1043 1.2329 37.2508C-2.45396 33.0821 2.95663 22.4666 13.299 13.5234C23.6413 4.5802 35.0132 0.702393 38.7 4.87104C39.6098 5.88897 39.9449 7.29467 39.8252 8.94274C40.304 8.82156 40.8068 8.74885 41.3095 8.74885C42.9615 8.74885 44.4458 9.40323 45.547 10.4939C46.5047 7.02807 46.2413 4.09548 44.5176 2.20505C39.8731 -2.93305 26.5142 1.21136 14.6636 11.4876ZM36.0426 18.0798C34.2949 20.7216 31.9966 23.4845 29.2435 26.1748H35.5159C37.1918 24.454 38.6761 22.709 39.9689 20.964C38.317 20.6004 36.9045 19.534 36.0426 18.0798Z" fill="#0C499C"/>
</svg>
