<svg width="59" height="59" viewBox="0 0 59 59" fill="none" xmlns="http://www.w3.org/2000/svg">
<g clip-path="url(#clip0_318_153)">
<path d="M55.7351 15.9977C53.6692 11.991 50.6564 8.4529 47.0228 5.76587C46.4895 5.37166 45.7379 5.48432 45.3435 6.0174C44.9491 6.55049 45.062 7.30229 45.5951 7.6967C48.9342 10.166 51.7025 13.4169 53.6009 17.0983C55.59 20.9558 56.5985 25.1282 56.5985 29.5001C56.5985 44.4423 44.4421 56.5987 29.4999 56.5987C14.5577 56.5987 2.40128 44.4423 2.40128 29.4999C2.40128 14.5575 14.5577 2.40128 29.4999 2.40128C30.1629 2.40128 30.7005 1.86359 30.7005 1.20064C30.7005 0.537686 30.1629 0 29.4999 0C13.2336 0 0 13.2336 0 29.4999C0 45.7662 13.2336 58.9998 29.4999 58.9998C45.7662 58.9998 58.9998 45.7662 58.9998 29.4999C58.9998 24.8086 57.871 20.1397 55.7351 15.9977Z" fill="white"/>
<path d="M21.9515 15.8021C21.5761 16.0156 21.3442 16.4142 21.3442 16.8459V43.1947C21.3442 43.8578 21.8819 44.3953 22.5448 44.3953C23.2078 44.3953 23.7455 43.8578 23.7455 43.1947V18.958L41.5215 29.5402L28.4498 37.9621C27.8925 38.3213 27.7316 39.0643 28.0908 39.6216C28.4502 40.1791 29.193 40.34 29.7504 39.9806L44.4513 30.5089C44.8007 30.2838 45.0088 29.894 45.0014 29.4784C44.994 29.0628 44.7722 28.6806 44.415 28.4678L23.1589 15.8141C22.7875 15.5934 22.3269 15.5886 21.9515 15.8021Z" fill="white"/>
</g>
<defs>
<clipPath id="clip0_318_153">
<rect width="59" height="59" fill="white"/>
</clipPath>
</defs>
</svg>
