<svg width="50" height="49" viewBox="0 0 50 49" fill="none" xmlns="http://www.w3.org/2000/svg">
<path d="M20.3127 35.2188V29.0938C20.3127 28.4846 20.0658 27.9004 19.6262 27.4696C19.1867 27.0389 18.5905 26.7969 17.9689 26.7969C17.3473 26.7969 16.7512 27.0389 16.3117 27.4696C15.8721 27.9004 15.6252 28.4846 15.6252 29.0938V35.2188C15.0371 35.6547 14.5869 36.2449 14.3267 36.921C14.0665 37.5972 14.0069 38.3318 14.1548 39.0397C14.3027 39.7477 14.6521 40.4002 15.1626 40.9217C15.673 41.4432 16.3236 41.8125 17.0392 41.9869C17.3435 42.0616 17.6553 42.1027 17.9689 42.1094C18.7888 42.1094 19.5879 41.8566 20.253 41.3868C20.9181 40.917 21.4155 40.254 21.6747 39.4918C21.934 38.7296 21.942 37.9067 21.6975 37.1398C21.453 36.3729 20.9686 35.7008 20.3127 35.2188V35.2188ZM19.4221 40.0652C19.1716 40.2738 18.8791 40.4285 18.5636 40.5192C18.2481 40.6099 17.9167 40.6345 17.5909 40.5915C17.2651 40.5484 16.9521 40.4387 16.6724 40.2694C16.3927 40.1001 16.1524 39.875 15.9673 39.6087C15.7821 39.3425 15.6562 39.0411 15.5977 38.724C15.5392 38.407 15.5494 38.0814 15.6276 37.7685C15.7059 37.4555 15.8504 37.1622 16.0519 36.9076C16.2534 36.653 16.5073 36.4428 16.7971 36.2906C16.9163 36.2232 17.0152 36.126 17.0838 36.0091C17.1524 35.8921 17.1882 35.7594 17.1877 35.6245V29.0938C17.1877 28.8907 17.27 28.696 17.4165 28.5524C17.563 28.4088 17.7617 28.3281 17.9689 28.3281C18.1761 28.3281 18.3748 28.4088 18.5214 28.5524C18.6679 28.696 18.7502 28.8907 18.7502 29.0938V35.6398C18.7496 35.7748 18.7855 35.9074 18.8541 36.0244C18.9227 36.1414 19.0216 36.2385 19.1408 36.3059C19.4688 36.4941 19.7451 36.7577 19.946 37.0738C20.1469 37.39 20.2664 37.7493 20.294 38.1207C20.3217 38.4922 20.2568 38.8647 20.1049 39.2061C19.953 39.5475 19.7186 39.8476 19.4221 40.0805V40.0652Z" fill="white"/>
<path d="M47.8281 29.0938L45.2422 28.5348C43.9493 28.2443 42.7295 27.7014 41.6557 26.9384C40.5818 26.1754 39.6759 25.2081 38.9922 24.0942C38.923 23.98 38.8247 23.8853 38.7069 23.8196C38.5891 23.7539 38.4559 23.7193 38.3203 23.7193C38.1848 23.7193 38.0515 23.7539 37.9337 23.8196C37.8159 23.8853 37.7176 23.98 37.6484 24.0942C36.6795 25.6634 35.2725 26.9279 33.5938 27.7386V24.5C33.5934 23.7555 33.3714 23.0272 32.9552 22.4044C32.5389 21.7816 31.9463 21.2912 31.25 20.9934V13.7812C31.25 10.3293 29.8507 7.01872 27.36 4.57781C24.8693 2.13691 21.4912 0.765625 17.9688 0.765625C14.4463 0.765625 11.0682 2.13691 8.57749 4.57781C6.08677 7.01872 4.6875 10.3293 4.6875 13.7812V20.9934C3.9912 21.2912 3.39863 21.7816 2.98235 22.4044C2.56607 23.0272 2.34414 23.7555 2.34375 24.5V26.7969H1.5625C1.3553 26.7969 1.15659 26.8775 1.01007 27.0211C0.86356 27.1647 0.78125 27.3594 0.78125 27.5625V41.3438C0.78125 41.5468 0.86356 41.7415 1.01007 41.8851C1.15659 42.0287 1.3553 42.1094 1.5625 42.1094H2.34375V44.4062C2.34375 45.4215 2.7553 46.3952 3.48786 47.1131C4.22043 47.8311 5.214 48.2344 6.25 48.2344H29.6875C30.7235 48.2344 31.7171 47.8311 32.4496 47.1131C33.1822 46.3952 33.5938 45.4215 33.5938 44.4062V44.3067C34.6653 45.5364 35.8703 46.648 37.1875 47.6219L37.8125 48.0812C37.9477 48.1806 38.1122 48.2344 38.2812 48.2344C38.4503 48.2344 38.6148 48.1806 38.75 48.0812L39.375 47.6219C42.1821 45.5476 44.4611 42.8645 46.0333 39.7829C47.6056 36.7013 48.4285 33.3047 48.4375 29.8594C48.4419 29.6824 48.3836 29.5094 48.2725 29.3698C48.1614 29.2302 48.0044 29.1326 47.8281 29.0938ZM6.25 13.7812C6.25 10.7354 7.48465 7.81431 9.68234 5.66057C11.88 3.50683 14.8607 2.29688 17.9688 2.29688C21.0768 2.29688 24.0575 3.50683 26.2552 5.66057C28.4528 7.81431 29.6875 10.7354 29.6875 13.7812V20.6719H26.5625V13.7812C26.5625 11.5476 25.6571 9.40549 24.0454 7.82609C22.4338 6.24668 20.248 5.35938 17.9688 5.35938C15.6895 5.35938 13.5037 6.24668 11.8921 7.82609C10.2804 9.40549 9.375 11.5476 9.375 13.7812V20.6719H6.25V13.7812ZM25 20.6719H10.9375V13.7812C10.9375 11.9537 11.6783 10.2011 12.9969 8.90884C14.3155 7.6166 16.1039 6.89063 17.9688 6.89062C19.8336 6.89063 21.622 7.6166 22.9406 8.90884C24.2592 10.2011 25 11.9537 25 13.7812V20.6719ZM10.1562 28.3281V31.3906H2.34375V28.3281H10.1562ZM2.34375 40.5781V37.5156H10.1562V40.5781H2.34375ZM10.1562 35.9844H2.34375V32.9219H10.1562V35.9844ZM32.0312 44.4062C32.0312 45.0154 31.7843 45.5996 31.3448 46.0304C30.9052 46.4611 30.3091 46.7031 29.6875 46.7031H6.25C5.6284 46.7031 5.03226 46.4611 4.59272 46.0304C4.15318 45.5996 3.90625 45.0154 3.90625 44.4062V42.1094H10.9375C11.1447 42.1094 11.3434 42.0287 11.4899 41.8851C11.6364 41.7415 11.7188 41.5468 11.7188 41.3438V27.5625C11.7188 27.3594 11.6364 27.1647 11.4899 27.0211C11.3434 26.8775 11.1447 26.7969 10.9375 26.7969H3.90625V24.5C3.90625 23.8908 4.15318 23.3066 4.59272 22.8759C5.03226 22.4451 5.6284 22.2031 6.25 22.2031H29.6875C30.3091 22.2031 30.9052 22.4451 31.3448 22.8759C31.7843 23.3066 32.0312 23.8908 32.0312 24.5V28.3281C31.7969 28.397 31.5625 28.4659 31.3203 28.5195L28.7344 29.0938C28.5581 29.1326 28.4011 29.2302 28.29 29.3698C28.1789 29.5094 28.1206 29.6824 28.125 29.8594C28.1377 34.2922 29.4976 38.6209 32.0312 42.2931V44.4062ZM38.4375 46.3969L38.2812 46.5117L38.125 46.3969C35.5942 44.5286 33.5226 42.1284 32.0625 39.3725C30.6024 36.6167 29.7909 33.5754 29.6875 30.4719L31.6484 30.0431C34.2943 29.4669 36.6451 27.9881 38.2812 25.8705C39.9155 27.9866 42.2633 29.4653 44.9062 30.0431L46.875 30.4719C46.7716 33.5754 45.9601 36.6167 44.5 39.3725C43.0399 42.1284 40.9683 44.5286 38.4375 46.3969V46.3969Z" fill="white"/>
<path d="M42.8825 30.9696L41.4919 30.2805L40.9606 31.3141C39.7547 30.6156 38.3236 30.3907 36.9553 30.6849C35.587 30.979 34.3832 31.7703 33.5864 32.8994C32.7896 34.0285 32.4589 35.4115 32.6609 36.7699C32.863 38.1284 33.5827 39.3614 34.6752 40.2206C35.7677 41.0798 37.1518 41.5015 38.5488 41.4007C39.9459 41.2999 41.252 40.6841 42.2043 39.6773C43.1566 38.6706 43.6843 37.3476 43.6812 35.9748C43.678 34.602 43.1442 33.2813 42.1872 32.2788L42.8825 30.9696ZM42.1872 35.9844C42.1961 36.8393 41.9156 37.6729 41.3896 38.3549C40.8637 39.037 40.1219 39.5289 39.2803 39.7539C38.4387 39.9789 37.5448 39.9241 36.7383 39.5983C35.9318 39.2724 35.2583 38.6938 34.823 37.953C34.3877 37.2121 34.2153 36.3507 34.3326 35.5036C34.45 34.6565 34.8505 33.8714 35.4716 33.271C36.0927 32.6707 36.8992 32.289 37.7652 32.1857C38.6311 32.0824 39.5076 32.2632 40.2575 32.6999L38.1481 36.8343L36.5856 34.7594L35.3356 35.6782L37.6794 38.7407C37.7522 38.8358 37.8465 38.9129 37.955 38.9661C38.0635 39.0193 38.1831 39.0469 38.3044 39.0469H38.3747C38.5068 39.0345 38.6335 38.9894 38.7428 38.9157C38.8522 38.842 38.9406 38.7423 38.9997 38.6258L41.4763 33.7718C41.9449 34.4177 42.1936 35.1919 42.1872 35.9844V35.9844Z" fill="white"/>
</svg>
