<svg width="50" height="50" viewBox="0 0 50 50" fill="none" xmlns="http://www.w3.org/2000/svg">
<path d="M47.6562 30.4688H42.9688C42.7615 30.4688 42.5628 30.5511 42.4163 30.6976C42.2698 30.8441 42.1875 31.0428 42.1875 31.25H40.9453L39.7891 30.0938L39.3281 27.3203C39.2812 27.0426 39.1916 26.7738 39.0625 26.5234V2.34375C39.0625 2.13655 38.9802 1.93784 38.8337 1.79132C38.6872 1.64481 38.4885 1.5625 38.2812 1.5625H2.34375C2.13655 1.5625 1.93784 1.64481 1.79132 1.79132C1.64481 1.93784 1.5625 2.13655 1.5625 2.34375V47.6562C1.5625 47.8635 1.64481 48.0622 1.79132 48.2087C1.93784 48.3552 2.13655 48.4375 2.34375 48.4375H38.2812C38.4885 48.4375 38.6872 48.3552 38.8337 48.2087C38.9802 48.0622 39.0625 47.8635 39.0625 47.6562V43.75H39.8438C40.0509 43.7485 40.2495 43.6673 40.3984 43.5234L41.7266 42.1875H42.1875C42.1875 42.3947 42.2698 42.5934 42.4163 42.7399C42.5628 42.8864 42.7615 42.9688 42.9688 42.9688H47.6562C47.8635 42.9688 48.0622 42.8864 48.2087 42.7399C48.3552 42.5934 48.4375 42.3947 48.4375 42.1875V31.25C48.4375 31.0428 48.3552 30.8441 48.2087 30.6976C48.0622 30.5511 47.8635 30.4688 47.6562 30.4688ZM37.5 46.875H3.125V3.125H37.5V25.1563C37.2091 25.0526 36.9026 24.9998 36.5938 25C36.0111 24.9998 35.4432 25.1831 34.9706 25.5238C34.498 25.8646 34.1448 26.3456 33.9609 26.8984L33.6328 27.875C33.6084 27.9562 33.5953 28.0403 33.5938 28.125V29.6875H28.125C27.504 29.6894 26.9089 29.9369 26.4698 30.376C26.0306 30.8152 25.7831 31.4102 25.7812 32.0312C25.7828 32.6098 26.0001 33.1669 26.3906 33.5938C25.9987 34.0197 25.7812 34.5774 25.7812 35.1562C25.7812 35.7351 25.9987 36.2928 26.3906 36.7188C26.1604 36.9703 25.9884 37.2693 25.8868 37.5948C25.7852 37.9203 25.7565 38.2641 25.8028 38.6019C25.849 38.9397 25.969 39.2632 26.1543 39.5493C26.3396 39.8355 26.5857 40.0774 26.875 40.2578C26.6718 40.6065 26.564 41.0026 26.5625 41.4062C26.5644 42.0273 26.8119 42.6223 27.251 43.0615C27.6902 43.5006 28.2852 43.7481 28.9062 43.75H37.5V46.875ZM28.125 34.375H30.4688C30.676 34.375 30.8747 34.4573 31.0212 34.6038C31.1677 34.7503 31.25 34.949 31.25 35.1562C31.25 35.3635 31.1677 35.5622 31.0212 35.7087C30.8747 35.8552 30.676 35.9375 30.4688 35.9375H28.125C27.9178 35.9375 27.7191 35.8552 27.5726 35.7087C27.4261 35.5622 27.3438 35.3635 27.3438 35.1562C27.3438 34.949 27.4261 34.7503 27.5726 34.6038C27.7191 34.4573 27.9178 34.375 28.125 34.375ZM27.3438 32.0312C27.3438 31.824 27.4261 31.6253 27.5726 31.4788C27.7191 31.3323 27.9178 31.25 28.125 31.25H30.4688C30.676 31.25 30.8747 31.3323 31.0212 31.4788C31.1677 31.6253 31.25 31.824 31.25 32.0312C31.25 32.2385 31.1677 32.4372 31.0212 32.5837C30.8747 32.7302 30.676 32.8125 30.4688 32.8125H28.125C27.9178 32.8125 27.7191 32.7302 27.5726 32.5837C27.4261 32.4372 27.3438 32.2385 27.3438 32.0312ZM28.125 37.5H30.4688C30.676 37.5 30.8747 37.5823 31.0212 37.7288C31.1677 37.8753 31.25 38.074 31.25 38.2812C31.25 38.4885 31.1677 38.6872 31.0212 38.8337C30.8747 38.9802 30.676 39.0625 30.4688 39.0625H28.125C27.9178 39.0625 27.7191 38.9802 27.5726 38.8337C27.4261 38.6872 27.3438 38.4885 27.3438 38.2812C27.3438 38.074 27.4261 37.8753 27.5726 37.7288C27.7191 37.5823 27.9178 37.5 28.125 37.5ZM28.9062 40.625H31.25C31.4572 40.625 31.6559 40.7073 31.8024 40.8538C31.9489 41.0003 32.0312 41.199 32.0312 41.4062C32.0312 41.6135 31.9489 41.8122 31.8024 41.9587C31.6559 42.1052 31.4572 42.1875 31.25 42.1875H28.9062C28.699 42.1875 28.5003 42.1052 28.3538 41.9587C28.2073 41.8122 28.125 41.6135 28.125 41.4062C28.125 41.199 28.2073 41.0003 28.3538 40.8538C28.5003 40.7073 28.699 40.625 28.9062 40.625ZM42.1875 40.625H41.4062C41.1991 40.6265 41.0005 40.7077 40.8516 40.8516L39.5234 42.1875H33.4531C33.6358 41.6883 33.6407 41.1414 33.4671 40.6391C33.2934 40.1367 32.9519 39.7096 32.5 39.4297C32.7032 39.081 32.811 38.6849 32.8125 38.2812C32.811 37.7027 32.5937 37.1456 32.2031 36.7188C32.595 36.2928 32.8125 35.7351 32.8125 35.1562C32.8125 34.5774 32.595 34.0197 32.2031 33.5938C32.5937 33.1669 32.811 32.6098 32.8125 32.0312C32.8104 31.7647 32.7628 31.5005 32.6719 31.25H33.5938V34.1719C33.5964 34.8453 33.7725 35.5068 34.105 36.0924C34.4375 36.6781 34.9152 37.1682 35.4922 37.5156L37.8828 38.9531L38.6797 37.6094L36.2969 36.1797C35.9507 35.9707 35.6641 35.6763 35.4643 35.3247C35.2646 34.9732 35.1585 34.5762 35.1562 34.1719V28.25L35.4453 27.3906C35.5309 27.1339 35.7001 26.9132 35.9259 26.7639C36.1516 26.6145 36.4208 26.5451 36.6906 26.5667C36.9604 26.5883 37.2152 26.6996 37.4143 26.883C37.6134 27.0663 37.7453 27.311 37.7891 27.5781L38.2891 30.5937C38.32 30.7547 38.3958 30.9037 38.5078 31.0234L40.0703 32.5859C40.2193 32.7298 40.4179 32.811 40.625 32.8125H42.1875V40.625ZM46.875 41.4062H43.75V32.0312H46.875V41.4062Z" fill="white"/>
<path d="M11.7188 24.2189H14.361L15.7071 26.9118C15.772 27.0417 15.8718 27.1509 15.9953 27.2272C16.1188 27.3036 16.2611 27.3439 16.4063 27.3439H16.4211C16.5686 27.341 16.7121 27.2965 16.8353 27.2155C16.9585 27.1345 17.0562 27.0203 17.1172 26.8861L19.4204 21.8204C20.0129 21.8934 20.6122 21.8934 21.2047 21.8204L23.5079 26.8861C23.5689 27.0203 23.6666 27.1345 23.7898 27.2155C23.913 27.2965 24.0566 27.341 24.204 27.3439H24.2188C24.364 27.3439 24.5063 27.3036 24.6298 27.2272C24.7533 27.1509 24.8531 27.0417 24.918 26.9118L26.2641 24.2189H28.9063C29.0526 24.219 29.196 24.178 29.3202 24.1006C29.4443 24.0232 29.5442 23.9125 29.6086 23.7811C29.6729 23.6497 29.699 23.5028 29.684 23.3573C29.6689 23.2118 29.6133 23.0734 29.5235 22.9579L26.4063 18.9431C27.3288 17.7948 27.9078 16.4091 28.0767 14.9458C28.2455 13.4826 27.9973 12.0014 27.3605 10.6732C26.7238 9.34492 25.7246 8.22375 24.4781 7.43897C23.2316 6.6542 21.7886 6.23779 20.3157 6.23779C18.8427 6.23779 17.3998 6.6542 16.1533 7.43897C14.9068 8.22375 13.9075 9.34492 13.2708 10.6732C12.6341 12.0014 12.3858 13.4826 12.5547 14.9458C12.7235 16.4091 13.3026 17.7948 14.2251 18.9431L11.1016 22.9579C11.0118 23.0734 10.9562 23.2118 10.9411 23.3573C10.9261 23.5028 10.9522 23.6497 11.0166 23.7811C11.0809 23.9125 11.1808 24.0232 11.305 24.1006C11.4291 24.178 11.5725 24.219 11.7188 24.2189V24.2189ZM25.7813 22.6564C25.6355 22.6556 25.4923 22.6956 25.368 22.772C25.2438 22.8483 25.1434 22.9579 25.0782 23.0884L24.2485 24.7486L22.7641 21.4751C23.6897 21.1686 24.5498 20.6916 25.3001 20.0689L27.3094 22.6564H25.7813ZM20.3126 7.81262C21.5487 7.81262 22.7571 8.17918 23.7849 8.86593C24.8127 9.55269 25.6138 10.5288 26.0868 11.6708C26.5599 12.8129 26.6836 14.0696 26.4425 15.2819C26.2013 16.4943 25.6061 17.608 24.732 18.482C23.8579 19.3561 22.7443 19.9514 21.5319 20.1925C20.3195 20.4337 19.0628 20.3099 17.9208 19.8369C16.7787 19.3638 15.8026 18.5627 15.1159 17.5349C14.4291 16.5071 14.0626 15.2988 14.0626 14.0626C14.0644 12.4056 14.7235 10.817 15.8952 9.64526C17.0669 8.47356 18.6555 7.81448 20.3126 7.81262V7.81262ZM15.3251 20.0704C16.0753 20.6932 16.9354 21.1702 17.861 21.4767L16.3766 24.7501L15.5469 23.0884C15.4817 22.9579 15.3813 22.8483 15.2571 22.772C15.1328 22.6956 14.9896 22.6556 14.8438 22.6564H13.3149L15.3251 20.0704Z" fill="white"/>
<path d="M20.3125 18.75C21.2396 18.75 22.1459 18.4751 22.9167 17.96C23.6876 17.4449 24.2884 16.7129 24.6432 15.8563C24.998 14.9998 25.0908 14.0573 24.9099 13.148C24.7291 12.2387 24.2826 11.4035 23.6271 10.7479C22.9715 10.0924 22.1363 9.64594 21.227 9.46507C20.3177 9.2842 19.3752 9.37703 18.5187 9.73182C17.6621 10.0866 16.9301 10.6874 16.415 11.4583C15.8999 12.2291 15.625 13.1354 15.625 14.0625C15.6262 15.3053 16.1205 16.4969 16.9993 17.3757C17.8781 18.2545 19.0697 18.7488 20.3125 18.75V18.75ZM20.3125 10.9375C20.9306 10.9375 21.5348 11.1208 22.0487 11.4642C22.5626 11.8075 22.9631 12.2956 23.1996 12.8666C23.4361 13.4376 23.498 14.066 23.3775 14.6722C23.2569 15.2784 22.9592 15.8352 22.5222 16.2722C22.0852 16.7092 21.5283 17.0069 20.9222 17.1275C20.316 17.248 19.6876 17.1861 19.1166 16.9496C18.5456 16.7131 18.0575 16.3126 17.7142 15.7987C17.3708 15.2848 17.1875 14.6806 17.1875 14.0625C17.1875 13.2337 17.5167 12.4388 18.1028 11.8528C18.6888 11.2667 19.4837 10.9375 20.3125 10.9375Z" fill="white"/>
<path d="M6.25 31.25H10.1562V32.8125H6.25V31.25Z" fill="white"/>
<path d="M12.5 31.25H25V32.8125H12.5V31.25Z" fill="white"/>
<path d="M6.25 35.1562H16.4062V36.7188H6.25V35.1562Z" fill="white"/>
<path d="M18.75 35.1562H25V36.7188H18.75V35.1562Z" fill="white"/>
<path d="M6.25 39.0625H12.5V40.625H6.25V39.0625Z" fill="white"/>
</svg>
