<svg width="50" height="55" viewBox="0 0 50 55" fill="none" xmlns="http://www.w3.org/2000/svg">
<g clip-path="url(#clip0_558_623)">
<path d="M25.0278 24.9492C24.1073 24.9492 23.3611 25.77 23.3611 26.7826C23.361 27.5147 23.7521 28.1447 24.3161 28.4386V30.6673C24.3161 31.0995 24.6346 31.4501 25.0277 31.4501C25.4208 31.4501 25.7393 31.0997 25.7393 30.6673V28.4386C26.3034 28.1447 26.6945 27.5147 26.6945 26.7826C26.6945 25.77 25.9483 24.9492 25.0278 24.9492Z" fill="white"/>
<path d="M42.7866 11.9399C39.7233 10.6065 37.2918 8.15063 35.9402 5.02487C35.5726 4.17484 34.7781 3.62549 33.9158 3.62549H16.0836C15.2215 3.62549 14.427 4.17474 14.0594 5.02487C12.7078 8.15063 10.2763 10.6065 7.21291 11.9399C6.35364 12.3139 5.79846 13.2149 5.79846 14.2353V19.0061C5.79846 25.2601 7.45637 31.4381 10.593 36.8723C13.7601 42.3598 18.3493 46.9457 23.8643 50.1342L23.9541 50.1862C24.2816 50.3755 24.6407 50.4701 24.9998 50.4701C25.3588 50.4701 25.718 50.3755 26.0452 50.1863L26.1354 50.1342C31.6504 46.9456 36.2396 42.3598 39.4068 36.8723C42.5433 31.438 44.2012 25.26 44.2012 19.0061V14.2353C44.2012 13.2148 43.6458 12.3139 42.7866 11.9399ZM42.7781 19.0063C42.7781 24.9625 41.1968 30.8503 38.2053 36.0334C35.1712 41.2902 30.7685 45.6871 25.4735 48.7486L25.3833 48.8006C25.1432 48.9396 24.8565 48.9395 24.6162 48.8006L24.5264 48.7487C19.2312 45.6872 14.8284 41.2903 11.7943 36.0334C8.80276 30.8504 7.22151 24.9625 7.22151 19.0061V14.2353C7.22151 13.8614 7.42366 13.5317 7.73645 13.3956C11.1359 11.916 13.8377 9.18199 15.3445 5.69733C15.4774 5.38978 15.7675 5.19105 16.0835 5.19105H33.9159C34.232 5.19105 34.522 5.38978 34.655 5.69733C36.1618 9.18199 38.8638 11.916 42.2631 13.3957C42.5759 13.5318 42.7781 13.8615 42.7781 14.2354V19.0063Z" fill="white"/>
<path d="M46.3545 26.4343C45.9712 26.3389 45.5901 26.6035 45.5036 27.0252C43.3364 37.5716 36.736 46.7178 27.3946 52.1187L25.2238 53.3738C25.0837 53.4548 24.9163 53.4548 24.7761 53.3738L22.6053 52.1187C13.2493 46.7093 6.64558 37.5473 4.48747 26.9819C4.40144 26.5602 4.02058 26.295 3.63728 26.3898C3.25388 26.4846 3.01287 26.9033 3.099 27.3251C5.34861 38.3391 12.2171 47.8811 21.9432 53.5043L24.114 54.7594C24.3915 54.9197 24.6957 55 25 55C25.3042 55 25.6086 54.9197 25.8859 54.7593L28.0567 53.5042C37.7676 47.8898 44.6326 38.3644 46.8918 27.3703C46.9783 26.9486 46.7378 26.5296 46.3545 26.4343Z" fill="white"/>
<path d="M46.0085 8.95651C42.2088 8.51555 39.2211 5.58175 38.7429 1.8222C38.6108 0.78332 37.7992 0 36.855 0H13.1456C12.2016 0 11.39 0.78332 11.2578 1.8222C10.7795 5.58186 7.79182 8.51555 3.99221 8.95651C3.02942 9.06823 2.30334 9.96295 2.30334 11.0376V19.4427C2.30334 20.6641 2.36086 21.8989 2.47434 23.113C2.51204 23.5158 2.82102 23.8158 3.18137 23.8158C3.20569 23.8158 3.2303 23.8144 3.255 23.8116C3.64592 23.7674 3.9303 23.3829 3.89006 22.9529C3.78157 21.7918 3.72649 20.6108 3.72649 19.4427V11.0376C3.72649 10.7707 3.90881 10.5402 4.14153 10.5133C8.59231 9.99679 12.0982 6.51202 12.6673 2.03908C12.7023 1.76462 12.9033 1.56546 13.1456 1.56546H36.8549C37.0972 1.56546 37.2985 1.76462 37.3333 2.03908C37.9023 6.51202 41.4082 9.99668 45.859 10.5133C46.0917 10.5402 46.2741 10.7707 46.2741 11.0376V19.4427C46.2741 20.5985 46.2201 21.7672 46.1139 22.9167C46.0741 23.3467 46.3589 23.7309 46.7498 23.7746C47.1406 23.8187 47.49 23.5051 47.5298 23.0751C47.6409 21.8732 47.6972 20.6512 47.6972 19.4427V11.0376C47.6973 9.96295 46.9713 9.06823 46.0085 8.95651Z" fill="white"/>
<path d="M33.1507 19.5362H31.9807V15.7998C31.9807 11.5826 28.8616 8.15161 25.0276 8.15161C21.1937 8.15161 18.0746 11.5826 18.0746 15.7998V19.5362H16.9047C15.6568 19.5362 14.6416 20.6529 14.6416 22.0256V33.2328C14.6416 34.6054 15.6568 35.7222 16.9047 35.7222H33.1507C34.3985 35.7222 35.4138 34.6054 35.4138 33.2328V22.0256C35.4138 20.6529 34.3985 19.5362 33.1507 19.5362ZM19.4978 15.7999C19.4978 12.4459 21.9785 9.71718 25.0277 9.71718C28.0769 9.71718 30.5576 12.4459 30.5576 15.7999V19.5363H19.4978V15.7999ZM33.9906 33.2328C33.9906 33.7422 33.6138 34.1567 33.1507 34.1567H16.9047C16.4415 34.1567 16.0647 33.7422 16.0647 33.2328V22.0256C16.0647 21.5162 16.4416 21.1016 16.9047 21.1016H33.1507C33.6138 21.1016 33.9906 21.5161 33.9906 22.0256V33.2328Z" fill="white"/>
</g>
<defs>
<clipPath id="clip0_558_623">
<rect width="50" height="55" fill="white"/>
</clipPath>
</defs>
</svg>
