<svg width="35" height="35" viewBox="0 0 35 35" fill="none" xmlns="http://www.w3.org/2000/svg">
<g clip-path="url(#clip0_534_580)">
<path d="M34.2656 21.5469H30.7969C30.6435 21.5469 30.4965 21.6078 30.3881 21.7162C30.2797 21.8246 30.2188 21.9717 30.2188 22.125H29.2995L28.4439 21.2694L28.1028 19.217C28.0681 19.0115 28.0018 18.8126 27.9062 18.6273V0.734375C27.9062 0.581047 27.8453 0.433998 27.7369 0.325579C27.6285 0.217159 27.4815 0.15625 27.3281 0.15625H0.734375C0.581047 0.15625 0.433998 0.217159 0.325579 0.325579C0.217159 0.433998 0.15625 0.581047 0.15625 0.734375V34.2656C0.15625 34.419 0.217159 34.566 0.325579 34.6744C0.433998 34.7828 0.581047 34.8438 0.734375 34.8438H27.3281C27.4815 34.8438 27.6285 34.7828 27.7369 34.6744C27.8453 34.566 27.9062 34.419 27.9062 34.2656V31.375H28.4844C28.6376 31.3739 28.7846 31.3138 28.8948 31.2073L29.8777 30.2188H30.2188C30.2188 30.3721 30.2797 30.5191 30.3881 30.6275C30.4965 30.736 30.6435 30.7969 30.7969 30.7969H34.2656C34.419 30.7969 34.566 30.736 34.6744 30.6275C34.7828 30.5191 34.8438 30.3721 34.8438 30.2188V22.125C34.8438 21.9717 34.7828 21.8246 34.6744 21.7162C34.566 21.6078 34.419 21.5469 34.2656 21.5469ZM26.75 33.6875H1.3125V1.3125H26.75V17.6156C26.5347 17.5389 26.3079 17.4998 26.0794 17.5C25.6482 17.4998 25.228 17.6355 24.8783 17.8876C24.5285 18.1398 24.2671 18.4957 24.1311 18.9048L23.8883 19.6275C23.8702 19.6876 23.8605 19.7498 23.8594 19.8125V20.9688H19.8125C19.3529 20.9701 18.9126 21.1533 18.5876 21.4783C18.2627 21.8032 18.0795 22.2436 18.0781 22.7031C18.0792 23.1312 18.24 23.5435 18.5291 23.8594C18.2391 24.1746 18.0781 24.5873 18.0781 25.0156C18.0781 25.444 18.2391 25.8566 18.5291 26.1719C18.3587 26.358 18.2314 26.5793 18.1563 26.8202C18.0811 27.061 18.0598 27.3154 18.094 27.5654C18.1283 27.8154 18.2171 28.0547 18.3542 28.2665C18.4913 28.4783 18.6734 28.6573 18.8875 28.7908C18.7371 29.0488 18.6574 29.342 18.6562 29.6406C18.6576 30.1002 18.8408 30.5405 19.1658 30.8655C19.4907 31.1905 19.9311 31.3736 20.3906 31.375H26.75V33.6875ZM19.8125 24.4375H21.5469C21.7002 24.4375 21.8473 24.4984 21.9557 24.6068C22.0641 24.7152 22.125 24.8623 22.125 25.0156C22.125 25.169 22.0641 25.316 21.9557 25.4244C21.8473 25.5328 21.7002 25.5938 21.5469 25.5938H19.8125C19.6592 25.5938 19.5121 25.5328 19.4037 25.4244C19.2953 25.316 19.2344 25.169 19.2344 25.0156C19.2344 24.8623 19.2953 24.7152 19.4037 24.6068C19.5121 24.4984 19.6592 24.4375 19.8125 24.4375ZM19.2344 22.7031C19.2344 22.5498 19.2953 22.4027 19.4037 22.2943C19.5121 22.1859 19.6592 22.125 19.8125 22.125H21.5469C21.7002 22.125 21.8473 22.1859 21.9557 22.2943C22.0641 22.4027 22.125 22.5498 22.125 22.7031C22.125 22.8565 22.0641 23.0035 21.9557 23.1119C21.8473 23.2203 21.7002 23.2812 21.5469 23.2812H19.8125C19.6592 23.2812 19.5121 23.2203 19.4037 23.1119C19.2953 23.0035 19.2344 22.8565 19.2344 22.7031ZM19.8125 26.75H21.5469C21.7002 26.75 21.8473 26.8109 21.9557 26.9193C22.0641 27.0277 22.125 27.1748 22.125 27.3281C22.125 27.4815 22.0641 27.6285 21.9557 27.7369C21.8473 27.8453 21.7002 27.9062 21.5469 27.9062H19.8125C19.6592 27.9062 19.5121 27.8453 19.4037 27.7369C19.2953 27.6285 19.2344 27.4815 19.2344 27.3281C19.2344 27.1748 19.2953 27.0277 19.4037 26.9193C19.5121 26.8109 19.6592 26.75 19.8125 26.75ZM20.3906 29.0625H22.125C22.2783 29.0625 22.4254 29.1234 22.5338 29.2318C22.6422 29.3402 22.7031 29.4873 22.7031 29.6406C22.7031 29.794 22.6422 29.941 22.5338 30.0494C22.4254 30.1578 22.2783 30.2188 22.125 30.2188H20.3906C20.2373 30.2188 20.0902 30.1578 19.9818 30.0494C19.8734 29.941 19.8125 29.794 19.8125 29.6406C19.8125 29.4873 19.8734 29.3402 19.9818 29.2318C20.0902 29.1234 20.2373 29.0625 20.3906 29.0625ZM30.2188 29.0625H29.6406C29.4874 29.0636 29.3404 29.1237 29.2302 29.2302L28.2473 30.2188H23.7553C23.8905 29.8494 23.8941 29.4447 23.7656 29.0729C23.6371 28.7012 23.3844 28.3851 23.05 28.178C23.2004 27.9199 23.2801 27.6268 23.2812 27.3281C23.2801 26.9 23.1193 26.4877 22.8303 26.1719C23.1203 25.8566 23.2813 25.444 23.2813 25.0156C23.2813 24.5873 23.1203 24.1746 22.8303 23.8594C23.1193 23.5435 23.2801 23.1312 23.2812 22.7031C23.2797 22.5059 23.2445 22.3104 23.1772 22.125H23.8594V24.2872C23.8613 24.7856 23.9916 25.275 24.2377 25.7084C24.4837 26.1418 24.8373 26.5045 25.2642 26.7616L27.0333 27.8253L27.623 26.8309L25.8597 25.773C25.6035 25.6183 25.3914 25.4005 25.2436 25.1403C25.0958 24.8802 25.0173 24.5864 25.0156 24.2872V19.905L25.2295 19.2691C25.2929 19.0791 25.4181 18.9158 25.5851 18.8053C25.7522 18.6948 25.9514 18.6434 26.151 18.6594C26.3507 18.6753 26.5392 18.7577 26.6866 18.8934C26.8339 19.029 26.9315 19.2102 26.9639 19.4078L27.3339 21.6394C27.3568 21.7585 27.4129 21.8687 27.4958 21.9573L28.652 23.1136C28.7623 23.2201 28.9092 23.2801 29.0625 23.2812H30.2188V29.0625ZM33.6875 29.6406H31.375V22.7031H33.6875V29.6406Z" fill="white"/>
<path d="M7.67191 16.9219H9.62713L10.6232 18.9147C10.6713 19.0108 10.7451 19.0916 10.8365 19.1481C10.9279 19.2046 11.0332 19.2345 11.1407 19.2344H11.1516C11.2607 19.2323 11.367 19.1994 11.4581 19.1394C11.5493 19.0795 11.6216 18.9949 11.6668 18.8956L13.3711 15.1471C13.8096 15.201 14.253 15.201 14.6915 15.1471L16.3958 18.8956C16.441 18.9949 16.5133 19.0795 16.6044 19.1394C16.6956 19.1994 16.8018 19.2323 16.9109 19.2344H16.9219C17.0293 19.2345 17.1347 19.2046 17.2261 19.1481C17.3175 19.0916 17.3913 19.0108 17.4393 18.9147L18.4354 16.9219H20.3907C20.4989 16.922 20.605 16.8917 20.6969 16.8344C20.7888 16.7771 20.8627 16.6952 20.9103 16.5979C20.9579 16.5007 20.9773 16.392 20.9661 16.2844C20.955 16.1767 20.9139 16.0743 20.8474 15.9888L18.5407 13.0178C19.2233 12.1681 19.6518 11.1426 19.7767 10.0598C19.9017 8.97703 19.718 7.88096 19.2468 6.89807C18.7756 5.91518 18.0362 5.08551 17.1138 4.50478C16.1914 3.92405 15.1236 3.61591 14.0336 3.61591C12.9436 3.61591 11.8758 3.92405 10.9534 4.50478C10.031 5.08551 9.29158 5.91518 8.8204 6.89807C8.34923 7.88096 8.16551 8.97703 8.29045 10.0598C8.41539 11.1426 8.8439 12.1681 9.52654 13.0178L7.21519 15.9888C7.14872 16.0743 7.10757 16.1767 7.09645 16.2844C7.08532 16.392 7.10465 16.5007 7.15225 16.5979C7.19985 16.6952 7.27379 16.7771 7.36566 16.8344C7.45754 16.8917 7.56365 16.922 7.67191 16.9219V16.9219ZM18.0782 15.7657C17.9702 15.7651 17.8643 15.7947 17.7723 15.8512C17.6804 15.9077 17.6061 15.9888 17.5578 16.0854L16.9439 17.3139L15.8454 14.8915C16.5304 14.6647 17.1669 14.3118 17.722 13.8509L19.209 15.7657H18.0782ZM14.0313 4.78128C14.946 4.78128 15.8402 5.05253 16.6008 5.56073C17.3614 6.06893 17.9542 6.79126 18.3042 7.63637C18.6543 8.48147 18.7459 9.41141 18.5674 10.3086C18.389 11.2057 17.9485 12.0298 17.3017 12.6766C16.6548 13.3235 15.8307 13.764 14.9336 13.9424C14.0364 14.1209 13.1065 14.0293 12.2614 13.6792C11.4163 13.3292 10.6939 12.7364 10.1857 11.9758C9.67754 11.2152 9.40629 10.321 9.40629 9.40628C9.40766 8.18007 9.89538 7.00449 10.7624 6.13743C11.6295 5.27037 12.8051 4.78265 14.0313 4.78128V4.78128ZM10.3405 13.8521C10.8957 14.3129 11.5322 14.6659 12.2171 14.8927L11.1187 17.315L10.5047 16.0854C10.4565 15.9888 10.3822 15.9077 10.2902 15.8512C10.1983 15.7947 10.0923 15.7651 9.98441 15.7657H8.85302L10.3405 13.8521Z" fill="white"/>
<path d="M14.0312 12.875C14.7173 12.875 15.388 12.6716 15.9584 12.2904C16.5288 11.9093 16.9734 11.3675 17.236 10.7337C17.4985 10.0999 17.5672 9.4024 17.4333 8.72953C17.2995 8.05666 16.9691 7.43859 16.484 6.95347C15.9989 6.46836 15.3808 6.138 14.708 6.00415C14.0351 5.87031 13.3376 5.939 12.7038 6.20154C12.07 6.46409 11.5282 6.90868 11.1471 7.47912C10.7659 8.04955 10.5625 8.7202 10.5625 9.40625C10.5634 10.3259 10.9292 11.2077 11.5795 11.858C12.2298 12.5083 13.1116 12.8741 14.0312 12.875V12.875ZM14.0312 7.09375C14.4886 7.09375 14.9357 7.22938 15.316 7.48348C15.6963 7.73758 15.9927 8.09874 16.1677 8.5213C16.3427 8.94385 16.3885 9.40882 16.2993 9.8574C16.2101 10.306 15.9898 10.718 15.6664 11.0414C15.343 11.3648 14.931 11.5851 14.4824 11.6743C14.0338 11.7635 13.5688 11.7178 13.1463 11.5427C12.7237 11.3677 12.3626 11.0713 12.1085 10.691C11.8544 10.3107 11.7187 9.86362 11.7187 9.40625C11.7187 8.79294 11.9624 8.20474 12.3961 7.77107C12.8297 7.33739 13.4179 7.09375 14.0312 7.09375Z" fill="white"/>
<path d="M3.625 22.125H6.51562V23.2812H3.625V22.125Z" fill="white"/>
<path d="M8.25 22.125H17.5V23.2812H8.25V22.125Z" fill="white"/>
<path d="M3.625 25.0156H11.1406V26.1719H3.625V25.0156Z" fill="white"/>
<path d="M12.875 25.0156H17.5V26.1719H12.875V25.0156Z" fill="white"/>
<path d="M3.625 27.9062H8.25V29.0625H3.625V27.9062Z" fill="white"/>
</g>
<defs>
<clipPath id="clip0_534_580">
<rect width="35" height="35" fill="white"/>
</clipPath>
</defs>
</svg>
