<svg width="39" height="33" viewBox="0 0 39 33" fill="none" xmlns="http://www.w3.org/2000/svg">
<g clip-path="url(#clip0_534_610)">
<path d="M39 24.1074C39 23.3724 38.402 22.7744 37.667 22.7744H37.5045V19.2416C37.5045 18.6606 37.0319 18.1879 36.4508 18.1879H35.5925V6.44533C35.5925 6.12983 35.3367 5.87404 35.0212 5.87404C34.7056 5.87404 34.4499 6.12983 34.4499 6.44533V18.1879H32.5089V12.0742C32.5089 11.521 32.0589 11.071 31.5058 11.071H31.4555V7.0707C31.4555 6.53346 31.0185 6.09639 30.4812 6.09639H28.5264V1.82848H34.4499V3.85549C34.4499 4.17099 34.7057 4.42678 35.0212 4.42678C35.3368 4.42678 35.5925 4.17099 35.5925 3.85549V1.68916C35.5925 1.136 35.1425 0.685974 34.5893 0.685974H13.3752C12.8219 0.685974 12.3719 1.136 12.3719 1.68916V7.532H6.43211C5.85107 7.532 5.37842 8.00472 5.37842 8.58568V12.8073H2.49874C1.94535 12.8073 1.49518 13.2575 1.49518 13.8108V22.7744H1.33301C0.598025 22.7744 0 23.3724 0 24.1074V30.9812C0 31.7162 0.598025 32.3142 1.33301 32.3142H37.667C38.402 32.3142 39 31.7162 39 30.9812V24.1074ZM20.6807 26.3962V28.6923H18.3193V26.3962H20.6807ZM21.8232 26.3962H34.3535V28.6923H21.8232V26.3962ZM35.4961 26.3962H37.8574V28.6923H35.4961V26.3962ZM36.3619 22.7742H29.5641V19.3305H30.4733V20.2636C30.4733 20.7801 30.8936 21.2003 31.41 21.2003H34.5161C35.0325 21.2003 35.4528 20.78 35.4528 20.2636V19.3305H36.362V22.7742H36.3619ZM31.6159 19.3305H34.3102V20.0577H31.6159V19.3305ZM30.3129 11.0706H26.4813V7.23897H30.3129V11.0706ZM20.5418 1.82848H27.3838V6.09646H26.313C25.7758 6.09646 25.3387 6.53354 25.3387 7.07078V7.30196H20.5417V1.82848H20.5418ZM13.5145 1.82848H19.3992V7.49231C19.3992 8.01737 19.8263 8.44446 20.3514 8.44446H25.3388V11.0709H24.6797C24.3641 11.0709 24.1084 11.3267 24.1084 11.6422C24.1084 11.9577 24.3641 12.2135 24.6797 12.2135H31.3664V18.1878H29.4752C28.8941 18.1878 28.4215 18.6606 28.4215 19.2415V22.7741H22.2449V16.0471C22.2449 15.4994 21.7993 15.0539 21.2517 15.0539H20.8057V12.2135H22.0898C22.4054 12.2135 22.6611 11.9577 22.6611 11.6422C22.6611 11.3267 22.4054 11.0709 22.0898 11.0709H20.6664C20.1132 11.0709 19.6631 11.521 19.6631 12.0742V15.0539H17.6611V8.58561C17.6611 8.00465 17.1885 7.53192 16.6074 7.53192H13.5145V1.82848ZM13.0774 22.7743V16.1966H21.1024V17.8401H18.7792C18.2316 17.8401 17.786 18.2856 17.786 18.8333V20.3945C17.786 20.9421 18.2316 21.3877 18.7792 21.3877H21.1024V22.7743H13.0774ZM21.1024 20.2451H18.9285V18.9827H21.1024V20.2451ZM11.6349 8.6745H13.8424V10.0886H11.6349V8.6745ZM6.521 8.6745H10.4923V10.274C10.4923 10.8018 10.9218 11.2311 11.4495 11.2311H14.0278C14.5556 11.2311 14.985 10.8018 14.985 10.274V8.6745H16.5186V15.0539H12.928C12.3804 15.0539 11.9348 15.4994 11.9348 16.0471V22.7741H9.2465V13.8107C9.2465 13.2574 8.79633 12.8072 8.24302 12.8072H6.521V8.6745ZM2.63776 13.9498H8.10393V22.7744H2.63776V13.9498ZM1.14258 24.1074C1.14258 24.0024 1.22797 23.917 1.33301 23.917H37.667C37.772 23.917 37.8574 24.0024 37.8574 24.1074V25.2536H10.3086C9.99306 25.2536 9.73736 25.5094 9.73736 25.8249C9.73736 26.1404 9.99306 26.3962 10.3086 26.3962H17.1768V28.6923H4.64648V26.3962H7.71872C8.0343 26.3962 8.29001 26.1404 8.29001 25.8249C8.29001 25.5094 8.0343 25.2536 7.71872 25.2536H1.14258V24.1074ZM1.14258 26.3962H3.50391V28.6923H1.14258V26.3962ZM37.8574 30.9811C37.8574 31.0861 37.772 31.1716 37.667 31.1716H1.33301C1.22797 31.1716 1.14258 31.0861 1.14258 30.9811V29.8349H37.8574V30.9811Z" fill="white"/>
<path d="M15.2792 17.1934H15.1945C14.8789 17.1934 14.6232 17.4492 14.6232 17.7647C14.6232 18.0802 14.8789 18.336 15.1945 18.336H15.2792C15.5948 18.336 15.8505 18.0802 15.8505 17.7647C15.8505 17.4492 15.5947 17.1934 15.2792 17.1934Z" fill="white"/>
<path d="M15.2792 18.8164H15.1945C14.8789 18.8164 14.6232 19.0722 14.6232 19.3877C14.6232 19.7032 14.8789 19.959 15.1945 19.959H15.2792C15.5948 19.959 15.8505 19.7032 15.8505 19.3877C15.8505 19.0722 15.5947 18.8164 15.2792 18.8164Z" fill="white"/>
<path d="M24.6313 16.6346H29.4859C29.8014 16.6346 30.0571 16.3789 30.0571 16.0634C30.0571 15.7479 29.8014 15.4921 29.4859 15.4921H24.6313C24.3158 15.4921 24.0601 15.7479 24.0601 16.0634C24.0601 16.3789 24.3158 16.6346 24.6313 16.6346Z" fill="white"/>
<path d="M27.5256 14.6708H29.4858C29.8014 14.6708 30.0571 14.415 30.0571 14.0995C30.0571 13.784 29.8014 13.5282 29.4858 13.5282H27.5256C27.2101 13.5282 26.9543 13.784 26.9543 14.0995C26.9543 14.415 27.2101 14.6708 27.5256 14.6708Z" fill="white"/>
<path d="M15.2368 4.23633H15.3215C15.6371 4.23633 15.8928 3.98054 15.8928 3.66504C15.8928 3.34954 15.6371 3.09375 15.3215 3.09375H15.2368C14.9212 3.09375 14.6655 3.34954 14.6655 3.66504C14.6655 3.98054 14.9213 4.23633 15.2368 4.23633Z" fill="white"/>
<path d="M15.2368 5.91211H15.3215C15.6371 5.91211 15.8928 5.65632 15.8928 5.34082C15.8928 5.02532 15.6371 4.76953 15.3215 4.76953H15.2368C14.9212 4.76953 14.6655 5.02532 14.6655 5.34082C14.6655 5.65632 14.9213 5.91211 15.2368 5.91211Z" fill="white"/>
<path d="M5.76221 15.3819C5.5423 15.1751 5.19938 15.175 4.97954 15.3819L4.00271 16.3004C3.77283 16.5165 3.76171 16.878 3.97788 17.1079C4.09031 17.2275 4.24205 17.2878 4.39416 17.2878C4.53455 17.2878 4.67508 17.2365 4.78546 17.1328L4.7997 17.1194V17.9032C4.7997 18.2187 5.05541 18.4745 5.37099 18.4745C5.68657 18.4745 5.94228 18.2187 5.94228 17.9032V17.1195L5.95645 17.1328C6.18633 17.3489 6.54785 17.3379 6.76402 17.108C6.9802 16.8781 6.969 16.5166 6.73919 16.3004L5.76221 15.3819Z" fill="white"/>
</g>
<defs>
<clipPath id="clip0_534_610">
<rect width="39" height="33" fill="white"/>
</clipPath>
</defs>
</svg>
