<svg width="35" height="36" viewBox="0 0 35 36" fill="none" xmlns="http://www.w3.org/2000/svg">
<g clip-path="url(#clip0_562_576)">
<path d="M17.4883 35.9998C17.3731 35.9998 17.2565 35.9713 17.1515 35.9143L0.392292 26.9143C0.151667 26.7853 0 26.5288 0 26.2498V9.37474C0 9.11524 0.13125 8.87374 0.345625 8.73724C0.56 8.60074 0.829792 8.58874 1.05437 8.70424L17.8135 17.3293C18.06 17.4568 18.216 17.7163 18.216 17.9998V35.2498C18.216 35.5123 18.0833 35.7553 17.8646 35.8918C17.7508 35.9638 17.6196 35.9998 17.4883 35.9998ZM1.45833 25.7953L16.7592 34.0123V18.4633L1.45833 10.5883V25.7953Z" fill="black"/>
<path d="M17.5119 35.9999C17.3806 35.9999 17.2494 35.9639 17.1341 35.8919C16.9169 35.7554 16.7827 35.5124 16.7827 35.2499V17.9999C16.7827 17.7164 16.9387 17.4569 17.1852 17.3294L33.9444 8.70438C34.1675 8.58738 34.4387 8.59938 34.6531 8.73738C34.8689 8.87388 35.0002 9.11538 35.0002 9.37488V26.2499C35.0002 26.5289 34.8485 26.7854 34.6079 26.9144L17.8487 35.9144C17.7437 35.9714 17.6271 35.9999 17.5119 35.9999ZM18.241 18.4634V34.0124L33.5419 25.7954V10.5884L18.241 18.4634ZM34.271 26.2499H34.2856H34.271Z" fill="black"/>
<path d="M0.728241 10.1252C0.459908 10.1252 0.203241 9.97373 0.0749078 9.71123C-0.105926 9.34073 0.041366 8.89073 0.401574 8.70473L17.1841 0.0797266C17.3897 -0.0252734 17.6318 -0.0252734 17.836 0.0797266L34.5951 8.70473C34.9553 8.89073 35.1012 9.34073 34.9218 9.71123C34.741 10.0817 34.3049 10.2302 33.9433 10.0472L17.5108 1.58873L1.05491 10.0457C0.949908 10.0997 0.839074 10.1252 0.728241 10.1252Z" fill="black"/>
<path d="M26.2499 22.4998C25.8474 22.4998 25.5208 22.1638 25.5208 21.7498V13.9633L9.16409 5.54525C8.80388 5.36075 8.65804 4.90925 8.83888 4.53875C9.01971 4.16825 9.45721 4.01975 9.81742 4.20275L26.5766 12.8278C26.823 12.9568 26.9791 13.2163 26.9791 13.4998V21.7498C26.9791 22.1638 26.6524 22.4998 26.2499 22.4998Z" fill="black"/>
</g>
<defs>
<clipPath id="clip0_562_576">
<rect width="35" height="36" fill="white"/>
</clipPath>
</defs>
</svg>
