<svg width="39" height="33" viewBox="0 0 39 33" fill="none" xmlns="http://www.w3.org/2000/svg">
<g clip-path="url(#clip0_562_582)">
<path d="M39 24.1075C39 23.3725 38.402 22.7745 37.667 22.7745H37.5045V19.2417C37.5045 18.6607 37.0319 18.188 36.4508 18.188H35.5925V6.44539C35.5925 6.12989 35.3367 5.8741 35.0212 5.8741C34.7056 5.8741 34.4499 6.12989 34.4499 6.44539V18.188H32.5089V12.0743C32.5089 11.5211 32.0589 11.0711 31.5058 11.0711H31.4555V7.07076C31.4555 6.53352 31.0185 6.09645 30.4812 6.09645H28.5264V1.82854H34.4499V3.85555C34.4499 4.17105 34.7057 4.42684 35.0212 4.42684C35.3368 4.42684 35.5925 4.17105 35.5925 3.85555V1.68922C35.5925 1.13606 35.1425 0.686035 34.5893 0.686035H13.3752C12.8219 0.686035 12.3719 1.13606 12.3719 1.68922V7.53206H6.43211C5.85107 7.53206 5.37842 8.00478 5.37842 8.58574V12.8074H2.49874C1.94535 12.8074 1.49518 13.2576 1.49518 13.8109V22.7745H1.33301C0.598025 22.7745 0 23.3725 0 24.1075V30.9813C0 31.7163 0.598025 32.3143 1.33301 32.3143H37.667C38.402 32.3143 39 31.7163 39 30.9813V24.1075ZM20.6807 26.3963V28.6924H18.3193V26.3963H20.6807ZM21.8232 26.3963H34.3535V28.6924H21.8232V26.3963ZM35.4961 26.3963H37.8574V28.6924H35.4961V26.3963ZM36.3619 22.7743H29.5641V19.3306H30.4733V20.2637C30.4733 20.7802 30.8936 21.2004 31.41 21.2004H34.5161C35.0325 21.2004 35.4528 20.7801 35.4528 20.2637V19.3306H36.362V22.7743H36.3619ZM31.6159 19.3306H34.3102V20.0578H31.6159V19.3306ZM30.3129 11.0707H26.4813V7.23903H30.3129V11.0707ZM20.5418 1.82854H27.3838V6.09652H26.313C25.7758 6.09652 25.3387 6.5336 25.3387 7.07084V7.30202H20.5417V1.82854H20.5418ZM13.5145 1.82854H19.3992V7.49237C19.3992 8.01743 19.8263 8.44452 20.3514 8.44452H25.3388V11.071H24.6797C24.3641 11.071 24.1084 11.3268 24.1084 11.6423C24.1084 11.9578 24.3641 12.2136 24.6797 12.2136H31.3664V18.1879H29.4752C28.8941 18.1879 28.4215 18.6607 28.4215 19.2416V22.7742H22.2449V16.0472C22.2449 15.4995 21.7993 15.054 21.2517 15.054H20.8057V12.2136H22.0898C22.4054 12.2136 22.6611 11.9578 22.6611 11.6423C22.6611 11.3268 22.4054 11.071 22.0898 11.071H20.6664C20.1132 11.071 19.6631 11.5211 19.6631 12.0743V15.054H17.6611V8.58567C17.6611 8.00471 17.1885 7.53198 16.6074 7.53198H13.5145V1.82854ZM13.0774 22.7744V16.1967H21.1024V17.8402H18.7792C18.2316 17.8402 17.786 18.2857 17.786 18.8334V20.3946C17.786 20.9422 18.2316 21.3878 18.7792 21.3878H21.1024V22.7744H13.0774ZM21.1024 20.2452H18.9285V18.9828H21.1024V20.2452ZM11.6349 8.67456H13.8424V10.0887H11.6349V8.67456ZM6.521 8.67456H10.4923V10.2741C10.4923 10.8019 10.9218 11.2312 11.4495 11.2312H14.0278C14.5556 11.2312 14.985 10.8019 14.985 10.2741V8.67456H16.5186V15.054H12.928C12.3804 15.054 11.9348 15.4995 11.9348 16.0472V22.7742H9.2465V13.8108C9.2465 13.2575 8.79633 12.8073 8.24302 12.8073H6.521V8.67456ZM2.63776 13.9499H8.10393V22.7745H2.63776V13.9499ZM1.14258 24.1075C1.14258 24.0025 1.22797 23.9171 1.33301 23.9171H37.667C37.772 23.9171 37.8574 24.0025 37.8574 24.1075V25.2537H10.3086C9.99306 25.2537 9.73736 25.5095 9.73736 25.825C9.73736 26.1405 9.99306 26.3963 10.3086 26.3963H17.1768V28.6924H4.64648V26.3963H7.71872C8.0343 26.3963 8.29001 26.1405 8.29001 25.825C8.29001 25.5095 8.0343 25.2537 7.71872 25.2537H1.14258V24.1075ZM1.14258 26.3963H3.50391V28.6924H1.14258V26.3963ZM37.8574 30.9812C37.8574 31.0862 37.772 31.1717 37.667 31.1717H1.33301C1.22797 31.1717 1.14258 31.0862 1.14258 30.9812V29.835H37.8574V30.9812Z" fill="black"/>
<path d="M15.279 17.1934H15.1943C14.8787 17.1934 14.623 17.4492 14.623 17.7647C14.623 18.0802 14.8787 18.336 15.1943 18.336H15.279C15.5946 18.336 15.8503 18.0802 15.8503 17.7647C15.8503 17.4492 15.5945 17.1934 15.279 17.1934Z" fill="black"/>
<path d="M15.279 18.8164H15.1943C14.8787 18.8164 14.623 19.0722 14.623 19.3877C14.623 19.7032 14.8787 19.959 15.1943 19.959H15.279C15.5946 19.959 15.8503 19.7032 15.8503 19.3877C15.8503 19.0722 15.5945 18.8164 15.279 18.8164Z" fill="black"/>
<path d="M24.6313 16.6347H29.4859C29.8014 16.6347 30.0571 16.379 30.0571 16.0635C30.0571 15.748 29.8014 15.4922 29.4859 15.4922H24.6313C24.3158 15.4922 24.0601 15.748 24.0601 16.0635C24.0601 16.379 24.3158 16.6347 24.6313 16.6347Z" fill="black"/>
<path d="M27.5254 14.6709H29.4856C29.8012 14.6709 30.0569 14.4151 30.0569 14.0996C30.0569 13.7841 29.8012 13.5283 29.4856 13.5283H27.5254C27.2099 13.5283 26.9541 13.7841 26.9541 14.0996C26.9541 14.4151 27.2099 14.6709 27.5254 14.6709Z" fill="black"/>
<path d="M15.2368 4.23633H15.3215C15.6371 4.23633 15.8928 3.98054 15.8928 3.66504C15.8928 3.34954 15.6371 3.09375 15.3215 3.09375H15.2368C14.9212 3.09375 14.6655 3.34954 14.6655 3.66504C14.6655 3.98054 14.9213 4.23633 15.2368 4.23633Z" fill="black"/>
<path d="M15.2368 5.91211H15.3215C15.6371 5.91211 15.8928 5.65632 15.8928 5.34082C15.8928 5.02532 15.6371 4.76953 15.3215 4.76953H15.2368C14.9212 4.76953 14.6655 5.02532 14.6655 5.34082C14.6655 5.65632 14.9213 5.91211 15.2368 5.91211Z" fill="black"/>
<path d="M5.76221 15.3822C5.5423 15.1754 5.19938 15.1753 4.97954 15.3822L4.00271 16.3007C3.77283 16.5168 3.76171 16.8783 3.97788 17.1082C4.09031 17.2278 4.24205 17.2881 4.39416 17.2881C4.53455 17.2881 4.67508 17.2368 4.78546 17.1331L4.7997 17.1197V17.9035C4.7997 18.219 5.05541 18.4748 5.37099 18.4748C5.68657 18.4748 5.94228 18.219 5.94228 17.9035V17.1198L5.95645 17.1331C6.18633 17.3492 6.54785 17.3382 6.76402 17.1083C6.9802 16.8784 6.969 16.5169 6.73919 16.3007L5.76221 15.3822Z" fill="black"/>
</g>
<defs>
<clipPath id="clip0_562_582">
<rect width="39" height="33" fill="white"/>
</clipPath>
</defs>
</svg>
