<svg width="35" height="35" viewBox="0 0 35 35" fill="none" xmlns="http://www.w3.org/2000/svg">
<g clip-path="url(#clip0_562_533)">
<path d="M34.2656 21.5469H30.7969C30.6435 21.5469 30.4965 21.6078 30.3881 21.7162C30.2797 21.8246 30.2188 21.9717 30.2188 22.125H29.2995L28.4439 21.2694L28.1028 19.217C28.0681 19.0115 28.0018 18.8126 27.9062 18.6273V0.734375C27.9062 0.581047 27.8453 0.433998 27.7369 0.325579C27.6285 0.217159 27.4815 0.15625 27.3281 0.15625H0.734375C0.581047 0.15625 0.433998 0.217159 0.325579 0.325579C0.217159 0.433998 0.15625 0.581047 0.15625 0.734375V34.2656C0.15625 34.419 0.217159 34.566 0.325579 34.6744C0.433998 34.7828 0.581047 34.8438 0.734375 34.8438H27.3281C27.4815 34.8438 27.6285 34.7828 27.7369 34.6744C27.8453 34.566 27.9062 34.419 27.9062 34.2656V31.375H28.4844C28.6376 31.3739 28.7846 31.3138 28.8948 31.2073L29.8777 30.2188H30.2188C30.2188 30.3721 30.2797 30.5191 30.3881 30.6275C30.4965 30.736 30.6435 30.7969 30.7969 30.7969H34.2656C34.419 30.7969 34.566 30.736 34.6744 30.6275C34.7828 30.5191 34.8438 30.3721 34.8438 30.2188V22.125C34.8438 21.9717 34.7828 21.8246 34.6744 21.7162C34.566 21.6078 34.419 21.5469 34.2656 21.5469ZM26.75 33.6875H1.3125V1.3125H26.75V17.6156C26.5347 17.5389 26.3079 17.4998 26.0794 17.5C25.6482 17.4998 25.228 17.6355 24.8783 17.8876C24.5285 18.1398 24.2671 18.4957 24.1311 18.9048L23.8883 19.6275C23.8702 19.6876 23.8605 19.7498 23.8594 19.8125V20.9688H19.8125C19.3529 20.9701 18.9126 21.1533 18.5876 21.4783C18.2627 21.8032 18.0795 22.2436 18.0781 22.7031C18.0792 23.1312 18.24 23.5435 18.5291 23.8594C18.2391 24.1746 18.0781 24.5873 18.0781 25.0156C18.0781 25.444 18.2391 25.8566 18.5291 26.1719C18.3587 26.358 18.2314 26.5793 18.1563 26.8202C18.0811 27.061 18.0598 27.3154 18.094 27.5654C18.1283 27.8154 18.2171 28.0547 18.3542 28.2665C18.4913 28.4783 18.6734 28.6573 18.8875 28.7908C18.7371 29.0488 18.6574 29.342 18.6562 29.6406C18.6576 30.1002 18.8408 30.5405 19.1658 30.8655C19.4907 31.1905 19.9311 31.3736 20.3906 31.375H26.75V33.6875ZM19.8125 24.4375H21.5469C21.7002 24.4375 21.8473 24.4984 21.9557 24.6068C22.0641 24.7152 22.125 24.8623 22.125 25.0156C22.125 25.169 22.0641 25.316 21.9557 25.4244C21.8473 25.5328 21.7002 25.5938 21.5469 25.5938H19.8125C19.6592 25.5938 19.5121 25.5328 19.4037 25.4244C19.2953 25.316 19.2344 25.169 19.2344 25.0156C19.2344 24.8623 19.2953 24.7152 19.4037 24.6068C19.5121 24.4984 19.6592 24.4375 19.8125 24.4375ZM19.2344 22.7031C19.2344 22.5498 19.2953 22.4027 19.4037 22.2943C19.5121 22.1859 19.6592 22.125 19.8125 22.125H21.5469C21.7002 22.125 21.8473 22.1859 21.9557 22.2943C22.0641 22.4027 22.125 22.5498 22.125 22.7031C22.125 22.8565 22.0641 23.0035 21.9557 23.1119C21.8473 23.2203 21.7002 23.2812 21.5469 23.2812H19.8125C19.6592 23.2812 19.5121 23.2203 19.4037 23.1119C19.2953 23.0035 19.2344 22.8565 19.2344 22.7031ZM19.8125 26.75H21.5469C21.7002 26.75 21.8473 26.8109 21.9557 26.9193C22.0641 27.0277 22.125 27.1748 22.125 27.3281C22.125 27.4815 22.0641 27.6285 21.9557 27.7369C21.8473 27.8453 21.7002 27.9062 21.5469 27.9062H19.8125C19.6592 27.9062 19.5121 27.8453 19.4037 27.7369C19.2953 27.6285 19.2344 27.4815 19.2344 27.3281C19.2344 27.1748 19.2953 27.0277 19.4037 26.9193C19.5121 26.8109 19.6592 26.75 19.8125 26.75ZM20.3906 29.0625H22.125C22.2783 29.0625 22.4254 29.1234 22.5338 29.2318C22.6422 29.3402 22.7031 29.4873 22.7031 29.6406C22.7031 29.794 22.6422 29.941 22.5338 30.0494C22.4254 30.1578 22.2783 30.2188 22.125 30.2188H20.3906C20.2373 30.2188 20.0902 30.1578 19.9818 30.0494C19.8734 29.941 19.8125 29.794 19.8125 29.6406C19.8125 29.4873 19.8734 29.3402 19.9818 29.2318C20.0902 29.1234 20.2373 29.0625 20.3906 29.0625ZM30.2188 29.0625H29.6406C29.4874 29.0636 29.3404 29.1237 29.2302 29.2302L28.2473 30.2188H23.7553C23.8905 29.8494 23.8941 29.4447 23.7656 29.0729C23.6371 28.7012 23.3844 28.3851 23.05 28.178C23.2004 27.9199 23.2801 27.6268 23.2812 27.3281C23.2801 26.9 23.1193 26.4877 22.8303 26.1719C23.1203 25.8566 23.2813 25.444 23.2813 25.0156C23.2813 24.5873 23.1203 24.1746 22.8303 23.8594C23.1193 23.5435 23.2801 23.1312 23.2812 22.7031C23.2797 22.5059 23.2445 22.3104 23.1772 22.125H23.8594V24.2872C23.8613 24.7856 23.9916 25.275 24.2377 25.7084C24.4837 26.1418 24.8373 26.5045 25.2642 26.7616L27.0333 27.8253L27.623 26.8309L25.8597 25.773C25.6035 25.6183 25.3914 25.4005 25.2436 25.1403C25.0958 24.8802 25.0173 24.5864 25.0156 24.2872V19.905L25.2295 19.2691C25.2929 19.0791 25.4181 18.9158 25.5851 18.8053C25.7522 18.6948 25.9514 18.6434 26.151 18.6594C26.3507 18.6753 26.5392 18.7577 26.6866 18.8934C26.8339 19.029 26.9315 19.2102 26.9639 19.4078L27.3339 21.6394C27.3568 21.7585 27.4129 21.8687 27.4958 21.9573L28.652 23.1136C28.7623 23.2201 28.9092 23.2801 29.0625 23.2812H30.2188V29.0625ZM33.6875 29.6406H31.375V22.7031H33.6875V29.6406Z" fill="black"/>
<path d="M7.67179 16.9217H9.62701L10.6231 18.9145C10.6712 19.0106 10.745 19.0914 10.8364 19.1479C10.9278 19.2044 11.0331 19.2343 11.1406 19.2342H11.1515C11.2606 19.2321 11.3669 19.1992 11.458 19.1392C11.5492 19.0793 11.6215 18.9947 11.6667 18.8954L13.371 15.1469C13.8095 15.2008 14.2529 15.2008 14.6914 15.1469L16.3957 18.8954C16.4409 18.9947 16.5132 19.0793 16.6043 19.1392C16.6955 19.1992 16.8017 19.2321 16.9108 19.2342H16.9218C17.0292 19.2343 17.1346 19.2044 17.226 19.1479C17.3174 19.0914 17.3912 19.0106 17.4392 18.9145L18.4353 16.9217H20.3906C20.4988 16.9218 20.6049 16.8915 20.6968 16.8342C20.7887 16.7769 20.8626 16.695 20.9102 16.5977C20.9578 16.5005 20.9772 16.3918 20.966 16.2842C20.9549 16.1765 20.9138 16.0741 20.8473 15.9886L18.5406 13.0176C19.2232 12.1679 19.6517 11.1424 19.7766 10.0596C19.9016 8.97684 19.7179 7.88077 19.2467 6.89788C18.7755 5.91499 18.0361 5.08532 17.1137 4.50459C16.1913 3.92386 15.1235 3.61572 14.0335 3.61572C12.9435 3.61572 11.8757 3.92386 10.9533 4.50459C10.0309 5.08532 9.29146 5.91499 8.82028 6.89788C8.34911 7.88077 8.16539 8.97684 8.29033 10.0596C8.41527 11.1424 8.84378 12.1679 9.52642 13.0176L7.21507 15.9886C7.1486 16.0741 7.10745 16.1765 7.09633 16.2842C7.0852 16.3918 7.10453 16.5005 7.15213 16.5977C7.19973 16.695 7.27367 16.7769 7.36554 16.8342C7.45742 16.8915 7.56353 16.9218 7.67179 16.9217ZM18.0781 15.7655C17.9701 15.7649 17.8642 15.7945 17.7722 15.851C17.6803 15.9075 17.606 15.9886 17.5577 16.0852L16.9438 17.3137L15.8453 14.8913C16.5303 14.6645 17.1668 14.3116 17.7219 13.8507L19.2089 15.7655H18.0781ZM14.0312 4.78109C14.9459 4.78109 15.8401 5.05234 16.6007 5.56054C17.3613 6.06874 17.9541 6.79107 18.3041 7.63618C18.6542 8.48128 18.7458 9.41122 18.5673 10.3084C18.3889 11.2055 17.9484 12.0296 17.3016 12.6764C16.6547 13.3233 15.8306 13.7638 14.9335 13.9422C14.0363 14.1207 13.1064 14.0291 12.2613 13.679C11.4162 13.329 10.6938 12.7362 10.1856 11.9756C9.67742 11.215 9.40617 10.3208 9.40617 9.40609C9.40754 8.17988 9.89526 7.0043 10.7623 6.13724C11.6294 5.27018 12.805 4.78246 14.0312 4.78109ZM10.3404 13.8519C10.8956 14.3127 11.5321 14.6657 12.217 14.8925L11.1186 17.3148L10.5046 16.0852C10.4564 15.9886 10.3821 15.9075 10.2901 15.851C10.1982 15.7945 10.0922 15.7649 9.98429 15.7655H8.8529L10.3404 13.8519Z" fill="black"/>
<path d="M14.0312 12.875C14.7173 12.875 15.388 12.6716 15.9584 12.2904C16.5288 11.9093 16.9734 11.3675 17.236 10.7337C17.4985 10.0999 17.5672 9.4024 17.4333 8.72953C17.2995 8.05666 16.9691 7.43859 16.484 6.95347C15.9989 6.46836 15.3808 6.138 14.708 6.00415C14.0351 5.87031 13.3376 5.939 12.7038 6.20154C12.07 6.46409 11.5282 6.90868 11.1471 7.47912C10.7659 8.04955 10.5625 8.7202 10.5625 9.40625C10.5634 10.3259 10.9292 11.2077 11.5795 11.858C12.2298 12.5083 13.1116 12.8741 14.0312 12.875ZM14.0312 7.09375C14.4886 7.09375 14.9357 7.22938 15.316 7.48348C15.6963 7.73758 15.9927 8.09874 16.1677 8.5213C16.3427 8.94385 16.3885 9.40882 16.2993 9.8574C16.2101 10.306 15.9898 10.718 15.6664 11.0414C15.343 11.3648 14.931 11.5851 14.4824 11.6743C14.0338 11.7635 13.5688 11.7178 13.1463 11.5427C12.7237 11.3677 12.3626 11.0713 12.1085 10.691C11.8544 10.3107 11.7187 9.86362 11.7187 9.40625C11.7187 8.79294 11.9624 8.20474 12.3961 7.77107C12.8297 7.33739 13.4179 7.09375 14.0312 7.09375Z" fill="black"/>
<path d="M3.625 22.125H6.51562V23.2812H3.625V22.125Z" fill="black"/>
<path d="M8.25 22.125H17.5V23.2812H8.25V22.125Z" fill="black"/>
<path d="M3.625 25.0156H11.1406V26.1719H3.625V25.0156Z" fill="black"/>
<path d="M12.875 25.0156H17.5V26.1719H12.875V25.0156Z" fill="black"/>
<path d="M3.625 27.9062H8.25V29.0625H3.625V27.9062Z" fill="black"/>
</g>
<defs>
<clipPath id="clip0_562_533">
<rect width="35" height="35" fill="white"/>
</clipPath>
</defs>
</svg>
