<svg width="35" height="35" viewBox="0 0 35 35" fill="none" xmlns="http://www.w3.org/2000/svg">
<g clip-path="url(#clip0_562_566)">
<path d="M34.4167 28H32.0833V23.3333C32.0833 23.0112 31.8221 22.75 31.5 22.75C31.1779 22.75 30.9167 23.0112 30.9167 23.3333V28H18.0833V15.1667H22.1667V19.25C22.1667 19.5721 22.4279 19.8333 22.75 19.8333H26.25C26.5721 19.8333 26.8333 19.5721 26.8333 19.25V15.1667H30.9167V21C30.9167 21.3221 31.1779 21.5833 31.5 21.5833C31.8221 21.5833 32.0833 21.3221 32.0833 21V14.5833C32.0833 14.2612 31.8221 14 31.5 14H25.0833V0.583333C25.0833 0.261187 24.8221 0 24.5 0H10.5C10.1779 0 9.91667 0.261187 9.91667 0.583333V5.83333C9.91667 6.15548 10.1779 6.41667 10.5 6.41667C10.8221 6.41667 11.0833 6.15548 11.0833 5.83333V1.16667H15.1667V5.25C15.1667 5.57215 15.4279 5.83333 15.75 5.83333H19.25C19.5721 5.83333 19.8333 5.57215 19.8333 5.25V1.16667H23.9167V14H11.0833V8.16667C11.0833 7.84452 10.8221 7.58333 10.5 7.58333C10.1779 7.58333 9.91667 7.84452 9.91667 8.16667V14H7C6.67785 14 6.41667 14.2612 6.41667 14.5833C6.41667 14.9055 6.67785 15.1667 7 15.1667H8.16667V19.25C8.16667 19.5721 8.42785 19.8333 8.75 19.8333H12.25C12.5721 19.8333 12.8333 19.5721 12.8333 19.25V15.1667H16.9167V28H4.08333V15.1667H4.66667C4.98881 15.1667 5.25 14.9055 5.25 14.5833C5.25 14.2612 4.98881 14 4.66667 14H3.5C3.17785 14 2.91667 14.2612 2.91667 14.5833V28H0.583333C0.261187 28 0 28.2612 0 28.5833V34.4167C0 34.7388 0.261187 35 0.583333 35H4.08333C4.40548 35 4.66667 34.7388 4.66667 34.4167V31.5H15.1667V34.4167C15.1667 34.7388 15.4279 35 15.75 35H19.25C19.5721 35 19.8333 34.7388 19.8333 34.4167V31.5H23.9167C24.2388 31.5 24.5 31.2388 24.5 30.9167C24.5 30.5945 24.2388 30.3333 23.9167 30.3333H1.16667V29.1667H33.8333V30.3333H29.1667C28.8445 30.3333 28.5833 30.5945 28.5833 30.9167C28.5833 31.2388 28.8445 31.5 29.1667 31.5H30.3333V34.4167C30.3333 34.7388 30.5945 35 30.9167 35H34.4167C34.7388 35 35 34.7388 35 34.4167V28.5833C35 28.2612 34.7388 28 34.4167 28ZM18.6667 4.66667H16.3333V1.16667H18.6667V4.66667ZM23.3333 15.1667H24.5H25.6667V18.6667H23.3333V15.1667ZM11.6667 18.6667H9.33333V15.1667H11.6667V18.6667ZM16.3333 31.5H18.6667V33.8333H16.3333V31.5ZM3.5 31.5V33.8333H1.16667V31.5H3.5ZM33.8333 33.8333H31.5V31.5H33.8333V33.8333Z" fill="black"/>
<path d="M22.1668 25.0835C21.8447 25.0835 21.5835 25.3447 21.5835 25.6668V26.2502C21.5835 26.5723 21.8447 26.8335 22.1668 26.8335C22.489 26.8335 22.7501 26.5723 22.7501 26.2502V25.6668C22.7501 25.3447 22.489 25.0835 22.1668 25.0835Z" fill="black"/>
<path d="M19.8333 25.0835C19.5112 25.0835 19.25 25.3447 19.25 25.6668V26.2502C19.25 26.5723 19.5112 26.8335 19.8333 26.8335C20.1555 26.8335 20.4167 26.5723 20.4167 26.2502V25.6668C20.4167 25.3447 20.1555 25.0835 19.8333 25.0835Z" fill="black"/>
<path d="M8.16684 25.0835C7.84469 25.0835 7.5835 25.3447 7.5835 25.6668V26.2502C7.5835 26.5723 7.84469 26.8335 8.16684 26.8335C8.48898 26.8335 8.75017 26.5723 8.75017 26.2502V25.6668C8.75017 25.3447 8.48898 25.0835 8.16684 25.0835Z" fill="black"/>
<path d="M5.83333 25.0835C5.51119 25.0835 5.25 25.3447 5.25 25.6668V26.2502C5.25 26.5723 5.51119 26.8335 5.83333 26.8335C6.15548 26.8335 6.41667 26.5723 6.41667 26.2502V25.6668C6.41667 25.3447 6.15548 25.0835 5.83333 25.0835Z" fill="black"/>
<path d="M15.1668 11.0835C14.8447 11.0835 14.5835 11.3447 14.5835 11.6668V12.2502C14.5835 12.5723 14.8447 12.8335 15.1668 12.8335C15.489 12.8335 15.7501 12.5723 15.7501 12.2502V11.6668C15.7501 11.3447 15.489 11.0835 15.1668 11.0835Z" fill="black"/>
<path d="M12.8333 11.0835C12.5112 11.0835 12.25 11.3447 12.25 11.6668V12.2502C12.25 12.5723 12.5112 12.8335 12.8333 12.8335C13.1555 12.8335 13.4167 12.5723 13.4167 12.2502V11.6668C13.4167 11.3447 13.1555 11.0835 12.8333 11.0835Z" fill="black"/>
<path d="M26.8332 30.3335H26.2499C25.9277 30.3335 25.6665 30.5947 25.6665 30.9168C25.6665 31.239 25.9277 31.5002 26.2499 31.5002H26.8332C27.1553 31.5002 27.4165 31.239 27.4165 30.9168C27.4165 30.5947 27.1553 30.3335 26.8332 30.3335Z" fill="black"/>
</g>
<defs>
<clipPath id="clip0_562_566">
<rect width="35" height="35" fill="white"/>
</clipPath>
</defs>
</svg>
