<svg width="35" height="36" viewBox="0 0 35 36" fill="none" xmlns="http://www.w3.org/2000/svg">
<g clip-path="url(#clip0_534_647)">
<path d="M17.4883 36C17.3731 36 17.2565 35.9715 17.1515 35.9145L0.392292 26.9145C0.151667 26.7855 0 26.529 0 26.25V9.37499C0 9.11549 0.13125 8.87399 0.345625 8.73749C0.56 8.60099 0.829792 8.58899 1.05437 8.70449L17.8135 17.3295C18.06 17.457 18.216 17.7165 18.216 18V35.25C18.216 35.5125 18.0833 35.7555 17.8646 35.892C17.7508 35.964 17.6196 36 17.4883 36ZM1.45833 25.7955L16.7592 34.0125V18.4635L1.45833 10.5885V25.7955Z" fill="white"/>
<path d="M17.5118 36C17.3805 36 17.2493 35.964 17.134 35.892C16.9168 35.7555 16.7826 35.5125 16.7826 35.25V18C16.7826 17.7165 16.9386 17.457 17.1851 17.3295L33.9443 8.7045C34.1674 8.5875 34.4386 8.5995 34.653 8.7375C34.8688 8.874 35.0001 9.1155 35.0001 9.375V26.25C35.0001 26.529 34.8484 26.7855 34.6078 26.9145L17.8486 35.9145C17.7436 35.9715 17.627 36 17.5118 36V36ZM18.2409 18.4635V34.0125L33.5418 25.7955V10.5885L18.2409 18.4635ZM34.2709 26.25H34.2855H34.2709Z" fill="white"/>
<path d="M0.728363 10.1253C0.46003 10.1253 0.203363 9.97379 0.0750297 9.71129C-0.105804 9.34079 0.041488 8.89079 0.401696 8.70479L17.1842 0.0797876C17.3898 -0.0252124 17.6319 -0.0252124 17.8361 0.0797876L34.5952 8.70479C34.9554 8.89079 35.1013 9.34079 34.9219 9.71129C34.7411 10.0818 34.305 10.2303 33.9434 10.0473L17.5109 1.58879L1.05503 10.0458C0.95003 10.0998 0.839196 10.1253 0.728363 10.1253V10.1253Z" fill="white"/>
<path d="M26.2499 22.5C25.8474 22.5 25.5208 22.164 25.5208 21.75V13.9635L9.16409 5.5455C8.80388 5.361 8.65804 4.9095 8.83888 4.539C9.01971 4.1685 9.45721 4.02 9.81742 4.203L26.5766 12.828C26.823 12.957 26.9791 13.2165 26.9791 13.5V21.75C26.9791 22.164 26.6524 22.5 26.2499 22.5V22.5Z" fill="white"/>
</g>
<defs>
<clipPath id="clip0_534_647">
<rect width="35" height="36" fill="white"/>
</clipPath>
</defs>
</svg>
