<svg width="30" height="33" viewBox="0 0 30 33" fill="none" xmlns="http://www.w3.org/2000/svg">
<path d="M29.735 7.06166L15.2038 0.0466C15.075 -0.0155333 14.925 -0.0155333 14.7962 0.0466L0.264973 7.06166C0.102951 7.13986 0 7.30394 0 7.48384V24.5204C0 24.7003 0.102951 24.8644 0.264973 24.9426L14.7962 31.9577C14.8605 31.9887 14.9303 32.0043 15 32.0043C15.0697 32.0043 15.1394 31.9887 15.2038 31.9577L29.735 24.9426C29.897 24.8644 30 24.7003 30 24.5204V7.4839C30 7.30388 29.897 7.13992 29.735 7.06166ZM15 0.989413L28.4529 7.48384L24.5531 9.36647C24.5285 9.34765 24.5024 9.33028 24.4738 9.31646L11.1123 2.86623L15 0.989413ZM10.0535 3.3963L23.4868 9.88129L20.7355 11.2095L7.30779 4.72716L10.0535 3.3963ZM23.8011 10.7707V15.6804L21.2312 16.9211V12.0113L23.8011 10.7707ZM29.0624 24.2263L15.4688 30.7885V14.7931L18.7113 13.2278C18.9445 13.1152 19.0422 12.835 18.9296 12.6018C18.8171 12.3687 18.5368 12.2708 18.3036 12.3834L15 13.9783L13.7001 13.3507C13.4669 13.238 13.1866 13.3359 13.0741 13.5691C12.9615 13.8022 13.0592 14.0825 13.2924 14.1951L14.5312 14.7931V30.7885L0.937625 24.2261V8.23075L11.289 13.228C11.3547 13.2597 11.4241 13.2747 11.4925 13.2747C11.6667 13.2747 11.8341 13.1771 11.915 13.0096C12.0275 12.7765 11.9298 12.4962 11.6966 12.3836L1.54714 7.48384L6.20433 5.23554L20.2871 12.0341C20.2891 12.037 20.2915 12.0396 20.2936 12.0424V17.6681C20.2936 17.8294 20.3765 17.9794 20.5132 18.0652C20.5891 18.1128 20.6756 18.1369 20.7625 18.1369C20.832 18.1369 20.9017 18.1214 20.9662 18.0903L24.4738 16.397C24.6358 16.3188 24.7387 16.1547 24.7387 15.9748V10.3181L29.0624 8.23082V24.2263V24.2263Z" fill="white"/>
</svg>
