<svg width="36" height="36" viewBox="0 0 36 36" fill="none" xmlns="http://www.w3.org/2000/svg">
<path d="M33.75 0H10.125C9.50456 0 9 0.504562 9 1.125V9H10.125V1.125H14.625V3.375H11.8125C11.502 3.375 11.25 3.627 11.25 3.9375V9H12.375V4.5H14.625V5.625C14.625 6.24544 15.1296 6.75 15.75 6.75H28.125C28.7454 6.75 29.25 6.24544 29.25 5.625V4.5H31.5V18H32.625V3.9375C32.625 3.627 32.373 3.375 32.0625 3.375H29.25V1.125H33.75V34.875H10.125V31.5H9V35.4375C9 35.748 9.252 36 9.5625 36H33.75C34.3704 36 34.875 35.4954 34.875 34.875V1.125C34.875 0.504562 34.3704 0 33.75 0ZM28.125 5.625H15.75V1.125H28.125V5.625Z" fill="black"/>
<path d="M32.625 19.125H31.5V27H25.875C25.5645 27 25.3125 27.252 25.3125 27.5625V32.625H12.375V31.5H11.25V33.1875C11.25 33.498 11.502 33.75 11.8125 33.75H25.875C25.9009 33.75 25.9267 33.7483 25.9521 33.7449C25.9577 33.7444 25.9633 33.7433 25.9689 33.7421C25.9717 33.7416 25.9746 33.741 25.9779 33.7404C25.9819 33.7399 25.9852 33.7388 25.9886 33.7382C25.9937 33.7371 25.9987 33.7365 26.0032 33.7348C26.0049 33.7342 26.0061 33.7343 26.0077 33.7337C26.0229 33.7298 26.0381 33.7258 26.0533 33.7208C26.0539 33.7208 26.0544 33.7202 26.055 33.7202C26.0707 33.7151 26.0865 33.7089 26.1017 33.7022C26.1022 33.7022 26.1028 33.7016 26.1028 33.7016C26.118 33.6949 26.1332 33.6876 26.1478 33.6791C26.1484 33.6791 26.1484 33.6786 26.1489 33.6786C26.1557 33.6746 26.163 33.6707 26.1697 33.6662C26.1726 33.6645 26.1754 33.6628 26.1782 33.6606C26.1827 33.6577 26.1872 33.6549 26.1917 33.6516C26.1939 33.6499 26.1962 33.6482 26.1984 33.6465C26.2035 33.6431 26.208 33.6398 26.2125 33.6364C26.217 33.633 26.2209 33.6296 26.2254 33.6262C26.2282 33.624 26.2305 33.6223 26.2333 33.6201C26.2401 33.6144 26.2468 33.6088 26.2536 33.6026L32.4411 27.9776C32.4506 27.9692 32.4596 27.9602 32.4681 27.9512C32.4703 27.9484 32.4731 27.9461 32.4754 27.9433C32.4827 27.9354 32.49 27.927 32.4967 27.9186C32.4979 27.9169 32.4996 27.9158 32.5007 27.9141C32.5086 27.9045 32.5159 27.8944 32.5226 27.8848C32.5249 27.882 32.5266 27.8792 32.5288 27.8758C32.5344 27.8679 32.5395 27.8595 32.5446 27.8511C32.5462 27.8483 32.5479 27.846 32.5491 27.8432C32.5552 27.8325 32.5609 27.8224 32.5659 27.8111C32.5676 27.8083 32.5687 27.8049 32.5704 27.8021C32.5744 27.7937 32.5783 27.7847 32.5822 27.7757C32.5834 27.7723 32.5851 27.7695 32.5862 27.7661C32.5907 27.7549 32.5946 27.7431 32.5986 27.7312C32.5991 27.7296 32.5997 27.7279 32.6002 27.7262C32.6036 27.7155 32.6064 27.7048 32.6092 27.6941C32.6098 27.6913 32.6104 27.6885 32.6115 27.6857C32.6171 27.6609 32.6211 27.6362 32.6233 27.6109C32.6233 27.6081 32.6239 27.6047 32.6239 27.6019C32.6244 27.5917 32.625 27.5811 32.6256 27.5704C32.6256 27.5681 32.6256 27.5653 32.6256 27.5631C32.6256 27.5619 32.6256 27.5608 32.6256 27.5597V19.125H32.625ZM26.4375 28.125H30.6073L27.8758 30.6084L26.4375 31.9157V28.125Z" fill="black"/>
<path d="M16.875 2.8125H18V3.9375H16.875V2.8125Z" fill="black"/>
<path d="M25.875 2.8125H27V3.9375H25.875V2.8125Z" fill="black"/>
<path d="M28.6875 9H15.75C15.4395 9 15.1875 9.252 15.1875 9.5625V11.8125H16.3125V10.125H28.125V18H19.6875V19.125H28.6875C28.998 19.125 29.25 18.873 29.25 18.5625V9.5625C29.25 9.252 28.998 9 28.6875 9Z" fill="black"/>
<path d="M19.125 21.375H25.3125V22.5H19.125V21.375Z" fill="black"/>
<path d="M26.4375 21.375H29.8125V22.5H26.4375V21.375Z" fill="black"/>
<path d="M17.4375 24.75H23.625V25.875H17.4375V24.75Z" fill="black"/>
<path d="M24.75 24.75H29.8125V25.875H24.75V24.75Z" fill="black"/>
<path d="M14.625 28.125H24.1875V29.25H14.625V28.125Z" fill="black"/>
<path d="M19.125 2.8125H24.75V3.9375H19.125V2.8125Z" fill="black"/>
<path d="M10.1251 30.3748C10.2437 30.3748 10.3624 30.3377 10.4626 30.2623L12.9449 28.4005C15.8119 26.2506 17.7334 23.1231 18.3561 19.5945L19.1166 15.2852C19.1588 15.0456 19.0424 14.8054 18.8275 14.6912L10.39 10.1912C10.2246 10.1029 10.0261 10.1029 9.86068 10.1912L1.42318 14.6912C1.2083 14.806 1.09186 15.0456 1.13405 15.2852L1.88836 19.5642C2.50486 23.0612 4.40218 26.1702 7.22987 28.3189L9.7853 30.2607C9.88543 30.3366 10.0052 30.3748 10.1251 30.3748ZM2.99593 19.3684L2.31249 15.4917L10.1251 11.3247L17.9376 15.4917L17.248 19.3988C16.6754 22.645 14.9074 25.5222 12.2699 27.5005L10.1273 29.1075L7.90993 27.4228C5.30836 25.4462 3.56349 22.5859 2.99593 19.3684Z" fill="black"/>
<path d="M12.2823 26.2936C14.4153 24.6939 15.8446 22.3673 16.3081 19.7422L16.8661 16.582C16.9083 16.3424 16.7919 16.1022 16.577 15.988L13.7634 14.4873L13.234 15.4801L15.6877 16.789L15.2005 19.547C14.7871 21.8903 13.5114 23.9665 11.6079 25.3947L10.1274 26.5051L8.59175 25.3379C6.71412 23.9114 5.45468 21.847 5.04519 19.525L4.562 16.7885L7.01506 15.4801L6.48575 14.4873L3.67269 15.9875C3.45781 16.1022 3.34137 16.3418 3.38356 16.5815L3.9365 19.7191C4.3955 22.3207 5.80681 24.6342 7.91056 26.2329L9.78481 27.6565C9.8855 27.733 10.0053 27.7713 10.1251 27.7713C10.2438 27.7713 10.3625 27.7342 10.4626 27.6588L12.2823 26.2936Z" fill="black"/>
<path d="M10.1247 13.8218L12.1109 14.881L12.6402 13.8882L10.3891 12.6878C10.2237 12.5995 10.0251 12.5995 9.85978 12.6878L7.61035 13.8876L8.13966 14.8804L10.1247 13.8218Z" fill="black"/>
<path d="M9.54141 22.5001H9.56279C9.72479 22.5001 9.87891 22.4303 9.98579 22.3083L13.9232 17.8083L13.0767 17.0674L9.59598 21.0454L8.32529 19.3501L7.42529 20.0251L9.11279 22.2751C9.2146 22.4106 9.3721 22.4933 9.54141 22.5001Z" fill="black"/>
<path d="M9.5625 15.75H10.6875V16.875H9.5625V15.75Z" fill="black"/>
<path d="M9.5625 23.625H10.6875V24.75H9.5625V23.625Z" fill="black"/>
</svg>
