<svg width="39" height="29" viewBox="0 0 39 29" fill="none" xmlns="http://www.w3.org/2000/svg">
<g clip-path="url(#clip0_534_575)">
<path d="M5.45694 24.002C5.14082 24.002 4.88453 24.2582 4.88453 24.5744C4.88453 24.9321 4.59352 25.2231 4.2358 25.2231C3.87809 25.2231 3.58707 24.9321 3.58707 24.5744C3.58707 24.2166 3.87809 23.9256 4.2358 23.9256C4.55192 23.9256 4.80821 23.6694 4.80821 23.3532C4.80821 23.0371 4.55192 22.7808 4.2358 22.7808C3.24684 22.7808 2.44226 23.5854 2.44226 24.5744C2.44226 25.5633 3.24684 26.3679 4.2358 26.3679C5.22477 26.3679 6.02934 25.5633 6.02934 24.5744C6.02934 24.2582 5.77306 24.002 5.45694 24.002Z" fill="white"/>
<path d="M24.3844 23.3914C24.0683 23.3914 23.812 23.6477 23.812 23.9638C23.812 24.6582 23.247 25.2231 22.5527 25.2231C21.8583 25.2231 21.2934 24.6582 21.2934 23.9638C21.2934 23.2694 21.8583 22.7045 22.5527 22.7045C22.8688 22.7045 23.1251 22.4482 23.1251 22.1321C23.1251 21.816 22.8688 21.5597 22.5527 21.5597C21.2271 21.5597 20.1486 22.6382 20.1486 23.9638C20.1486 25.2894 21.2271 26.3679 22.5527 26.3679C23.8783 26.3679 24.9568 25.2894 24.9568 23.9638C24.9568 23.6477 24.7005 23.3914 24.3844 23.3914Z" fill="white"/>
<path d="M38.4276 25.2231H29.2691C29.248 25.2231 29.2309 25.206 29.2309 25.1849V14.8053C29.2309 14.153 28.7003 13.6223 28.0479 13.6223H26.7886V1.37279C26.7886 0.720479 26.258 0.189819 25.6057 0.189819H21.9423C21.6261 0.189819 21.3699 0.446105 21.3699 0.762226C21.3699 1.07835 21.6261 1.33463 21.9423 1.33463H23.2016V17.3178C22.9872 17.2972 22.771 17.2857 22.5528 17.2857C22.3339 17.2857 22.1177 17.2966 21.9041 17.3173V14.2385C21.9041 13.7102 21.7644 13.189 21.5002 12.7313L17.0049 4.94469C16.5043 3.90993 15.4418 3.24266 14.2911 3.24266H5.45695C4.46798 3.24266 3.66341 4.04723 3.66341 5.0362V15.454H3.01468C1.68906 15.454 0.610568 16.5325 0.610568 17.8581V22.1321C0.610568 22.2015 0.623542 22.2679 0.646286 22.3295C0.237434 22.9809 0 23.7502 0 24.5744C0 26.91 1.90016 28.8102 4.23581 28.8102C6.16086 28.8102 7.78893 27.5189 8.30227 25.7573H16.5648C16.5661 25.7573 16.5674 25.7575 16.5687 25.7575C16.5698 25.7575 16.5709 25.7573 16.572 25.7573H18.0519C18.7665 27.5441 20.514 28.8102 22.5528 28.8102C25.2251 28.8102 27.3991 26.6361 27.3991 23.9638C27.3991 23.1066 27.1745 22.3011 26.7823 21.6017C26.786 21.5755 26.7886 21.5488 26.7886 21.5215V19.1092C26.7896 19.09 26.7895 19.0707 26.7886 19.0515V14.7671H28.0479C28.0689 14.7671 28.086 14.7842 28.086 14.8053V25.1849C28.086 25.8372 28.6167 26.3679 29.269 26.3679H38.4275C38.7436 26.3679 38.9999 26.1116 38.9999 25.7955C38.9999 25.4794 38.7437 25.2231 38.4276 25.2231ZM25.6057 1.33463C25.6267 1.33463 25.6438 1.35173 25.6438 1.37279V13.6223H24.3464V1.33463H25.6057ZM15.9809 5.45688C15.9876 5.47085 15.9947 5.48458 16.0025 5.49802L20.3403 13.0117H11.5245V6.25733C11.5245 5.94121 11.2682 5.68493 10.9521 5.68493C10.6359 5.68493 10.3796 5.94121 10.3796 6.25733V13.0117H9.12035C8.42598 13.0117 7.86106 12.4468 7.86106 11.7524V4.38747H14.2911C15.0099 4.38747 15.6732 4.80724 15.9809 5.45688ZM4.80822 5.0362C4.80822 4.67848 5.09923 4.38747 5.45695 4.38747H6.71624V11.7524C6.71624 13.0781 7.79473 14.1566 9.12035 14.1566H20.7211C20.7331 14.1566 20.7448 14.1555 20.7565 14.1548C20.7578 14.1827 20.7593 14.2106 20.7593 14.2385V17.5306C19.9701 17.751 19.2394 18.113 18.5964 18.5874L16.7038 16.6946C15.9037 15.8946 14.84 15.454 13.7086 15.454H4.80822V5.0362ZM4.23581 27.6654C2.53141 27.6654 1.14481 26.2788 1.14481 24.5744C1.14481 22.87 2.53141 21.4834 4.23581 21.4834C5.94021 21.4834 7.32681 22.87 7.32681 24.5744C7.32681 26.2788 5.94021 27.6654 4.23581 27.6654ZM4.23581 20.3385C3.30996 20.3385 2.45318 20.638 1.75538 21.1439V17.8581C1.75538 17.1637 2.32031 16.5988 3.01468 16.5988H13.7086C14.5343 16.5988 15.3104 16.9204 15.8943 17.5041L17.7347 19.3445C16.5833 20.5449 15.8748 22.1731 15.8748 23.9638C15.8748 24.1805 15.8857 24.3972 15.9066 24.6125H8.47071C8.47078 24.5998 8.4717 24.5872 8.4717 24.5744C8.47162 22.2387 6.57146 20.3385 4.23581 20.3385ZM17.0588 24.6125C17.0338 24.3977 17.0196 24.1809 17.0196 23.9638C17.0196 20.9127 19.5018 18.4305 22.5528 18.4305C23.6673 18.4305 24.7297 18.7565 25.6438 19.3745V20.2341C24.8043 19.5372 23.7267 19.1174 22.5528 19.1174C19.8805 19.1174 17.7065 21.2915 17.7065 23.9638C17.7065 24.1839 17.7226 24.4001 17.7511 24.6125H17.0588ZM22.5528 27.6654C20.5118 27.6654 18.8513 26.0048 18.8513 23.9638C18.8513 21.9227 20.5118 20.2622 22.5528 20.2622C24.5939 20.2622 26.2544 21.9227 26.2544 23.9638C26.2544 26.0048 24.5939 27.6654 22.5528 27.6654ZM25.6438 18.0417C25.2295 17.8244 24.7951 17.6535 24.3464 17.5289V14.7671H25.6438V18.0417Z" fill="white"/>
</g>
<defs>
<clipPath id="clip0_534_575">
<rect width="39" height="29" fill="white"/>
</clipPath>
</defs>
</svg>
