<svg width="36" height="36" viewBox="0 0 36 36" fill="none" xmlns="http://www.w3.org/2000/svg">
<g clip-path="url(#clip0_534_589)">
<path d="M35.0819 24.8226H30.1774V16.7547C30.1774 16.4634 29.9414 16.2273 29.6501 16.2273C29.3588 16.2273 29.1227 16.4634 29.1227 16.7547V24.8226C28.0427 24.8226 21.1139 24.8226 19.9594 24.8226V22.5374C19.9594 22.2461 19.7234 22.0101 19.4321 22.0101H14.1368C14.1368 21.3617 14.1368 10.5149 14.1368 9.439H20.1259V11.6084C20.1259 12.0728 20.5036 12.4505 20.968 12.4505H22.2915C22.7559 12.4505 23.1337 12.0728 23.1337 11.6084V9.439H29.1228V14.6463C29.1228 14.9376 29.3588 15.1736 29.6502 15.1736C29.9415 15.1736 30.1775 14.9376 30.1775 14.6463V9.30252C30.1775 8.79627 29.7656 8.38431 29.2593 8.38431C26.6708 8.38431 20.5691 8.38431 18.1601 8.38431V0.932737C18.1601 0.426487 17.7482 0.0145264 17.2419 0.0145264H7.55634C7.05002 0.0145264 6.63813 0.426417 6.63813 0.932737V4.26667C6.63813 4.55798 6.87424 4.79402 7.16548 4.79402C7.45671 4.79402 7.69282 4.55798 7.69282 4.26667V1.06921H10.8952V3.23864C10.8952 3.70298 11.2729 4.0807 11.7373 4.0807H13.0609C13.5252 4.0807 13.903 3.70298 13.903 3.23864V1.06921H17.1053V8.38431H13.6095C13.3182 8.38431 13.0821 8.62035 13.0821 8.91166V13.3062H7.69289V6.37506C7.69289 6.08376 7.45678 5.84772 7.16555 5.84772C6.87431 5.84772 6.6382 6.08376 6.6382 6.37506V13.3063H3.53306C3.02674 13.3063 2.61485 13.7181 2.61485 14.2244V22.0101H0.918141C0.411891 22.0101 0 22.422 0 22.9283V35.4601C0 35.7514 0.236109 35.9875 0.527344 35.9875H6.11128C6.40252 35.9875 6.63863 35.7514 6.63863 35.4601C6.63863 35.1688 6.40252 34.9328 6.11128 34.9328H1.05469V23.0648H8.47582V25.2341C8.47582 25.6985 8.85361 26.0763 9.31788 26.0763H10.6414C11.1058 26.0763 11.4835 25.6985 11.4835 25.2341V23.0648H18.9046V34.9328H8.21967C7.92844 34.9328 7.69233 35.1688 7.69233 35.4601C7.69233 35.7514 7.92844 35.9875 8.21967 35.9875H35.4726C35.7639 35.9875 35.9999 35.7514 35.9999 35.4601V25.7408C36 25.2346 35.5881 24.8226 35.0819 24.8226V24.8226ZM12.8482 3.02594H11.9499V1.06928H12.8482V3.02594ZM22.0789 9.439V11.3957H21.1806V9.439H22.0789ZM7.92661 14.3609H8.82499V16.3176H7.92661V14.3609ZM3.66954 14.3609H6.87192V16.5303C6.87192 16.9946 7.24971 17.3724 7.71399 17.3724H9.03762C9.50196 17.3724 9.87968 16.9946 9.87968 16.5303V14.3609H13.0821V22.0101C11.0436 22.0101 5.37328 22.0101 3.66954 22.0101V14.3609ZM10.4288 25.0215H9.53051V23.0648H10.4288V25.0215ZM27.9015 25.8773V27.834H27.0032V25.8773H27.9015ZM34.9453 34.9328H19.9594V25.8773H25.9485V28.0466C25.9485 28.511 26.3263 28.8888 26.7906 28.8888H28.1142C28.5785 28.8888 28.9563 28.511 28.9563 28.0466V25.8773H34.9454V34.9328H34.9453Z" fill="white"/>
</g>
<defs>
<clipPath id="clip0_534_589">
<rect width="36" height="36" fill="white"/>
</clipPath>
</defs>
</svg>
