<svg width="39" height="29" viewBox="0 0 39 29" fill="none" xmlns="http://www.w3.org/2000/svg">
<g clip-path="url(#clip0_562_528)">
<path d="M5.45706 24.002C5.14094 24.002 4.88465 24.2582 4.88465 24.5744C4.88465 24.9321 4.59364 25.2231 4.23592 25.2231C3.87821 25.2231 3.58719 24.9321 3.58719 24.5744C3.58719 24.2166 3.87821 23.9256 4.23592 23.9256C4.55204 23.9256 4.80833 23.6694 4.80833 23.3532C4.80833 23.0371 4.55204 22.7808 4.23592 22.7808C3.24696 22.7808 2.44238 23.5854 2.44238 24.5744C2.44238 25.5633 3.24696 26.3679 4.23592 26.3679C5.22489 26.3679 6.02946 25.5633 6.02946 24.5744C6.02946 24.2582 5.77318 24.002 5.45706 24.002Z" fill="black"/>
<path d="M24.3842 23.3918C24.0681 23.3918 23.8118 23.6481 23.8118 23.9642C23.8118 24.6586 23.2468 25.2235 22.5525 25.2235C21.8581 25.2235 21.2932 24.6586 21.2932 23.9642C21.2932 23.2698 21.8581 22.7049 22.5525 22.7049C22.8686 22.7049 23.1249 22.4486 23.1249 22.1325C23.1249 21.8164 22.8686 21.5601 22.5525 21.5601C21.2269 21.5601 20.1484 22.6386 20.1484 23.9642C20.1484 25.2898 21.2269 26.3683 22.5525 26.3683C23.8781 26.3683 24.9566 25.2898 24.9566 23.9642C24.9566 23.6481 24.7003 23.3918 24.3842 23.3918Z" fill="black"/>
<path d="M38.4276 25.2232H29.2691C29.248 25.2232 29.2309 25.2061 29.2309 25.185V14.8054C29.2309 14.1531 28.7003 13.6224 28.0479 13.6224H26.7886V1.37291C26.7886 0.720601 26.258 0.189941 25.6057 0.189941H21.9423C21.6261 0.189941 21.3699 0.446227 21.3699 0.762348C21.3699 1.07847 21.6261 1.33475 21.9423 1.33475H23.2016V17.3179C22.9872 17.2973 22.771 17.2858 22.5528 17.2858C22.3339 17.2858 22.1177 17.2967 21.9041 17.3174V14.2386C21.9041 13.7103 21.7644 13.1891 21.5002 12.7314L17.0049 4.94481C16.5043 3.91005 15.4418 3.24278 14.2911 3.24278H5.45695C4.46798 3.24278 3.66341 4.04735 3.66341 5.03632V15.4541H3.01468C1.68906 15.4541 0.610568 16.5326 0.610568 17.8582V22.1322C0.610568 22.2016 0.623542 22.268 0.646286 22.3296C0.237434 22.981 0 23.7503 0 24.5745C0 26.9101 1.90016 28.8103 4.23581 28.8103C6.16086 28.8103 7.78893 27.519 8.30227 25.7574H16.5648C16.5661 25.7574 16.5674 25.7576 16.5687 25.7576C16.5698 25.7576 16.5709 25.7574 16.572 25.7574H18.0519C18.7665 27.5442 20.514 28.8103 22.5528 28.8103C25.2251 28.8103 27.3991 26.6362 27.3991 23.9639C27.3991 23.1067 27.1745 22.3012 26.7823 21.6018C26.786 21.5756 26.7886 21.5489 26.7886 21.5216V19.1093C26.7896 19.0901 26.7895 19.0708 26.7886 19.0516V14.7672H28.0479C28.0689 14.7672 28.086 14.7843 28.086 14.8054V25.185C28.086 25.8373 28.6167 26.368 29.269 26.368H38.4275C38.7436 26.368 38.9999 26.1117 38.9999 25.7956C38.9999 25.4795 38.7437 25.2232 38.4276 25.2232ZM25.6057 1.33475C25.6267 1.33475 25.6438 1.35185 25.6438 1.37291V13.6224H24.3464V1.33475H25.6057ZM15.9809 5.457C15.9876 5.47097 15.9947 5.4847 16.0025 5.49814L20.3403 13.0118H11.5245V6.25745C11.5245 5.94133 11.2682 5.68505 10.9521 5.68505C10.6359 5.68505 10.3796 5.94133 10.3796 6.25745V13.0118H9.12035C8.42598 13.0118 7.86106 12.4469 7.86106 11.7525V4.38759H14.2911C15.0099 4.38759 15.6732 4.80736 15.9809 5.457ZM4.80822 5.03632C4.80822 4.6786 5.09923 4.38759 5.45695 4.38759H6.71624V11.7525C6.71624 13.0782 7.79473 14.1567 9.12035 14.1567H20.7211C20.7331 14.1567 20.7448 14.1556 20.7565 14.1549C20.7578 14.1828 20.7593 14.2107 20.7593 14.2386V17.5307C19.9701 17.7511 19.2394 18.1131 18.5964 18.5875L16.7038 16.6947C15.9037 15.8947 14.84 15.4541 13.7086 15.4541H4.80822V5.03632ZM4.23581 27.6655C2.53141 27.6655 1.14481 26.2789 1.14481 24.5745C1.14481 22.8701 2.53141 21.4835 4.23581 21.4835C5.94021 21.4835 7.32681 22.8701 7.32681 24.5745C7.32681 26.2789 5.94021 27.6655 4.23581 27.6655ZM4.23581 20.3386C3.30996 20.3386 2.45318 20.6381 1.75538 21.144V17.8582C1.75538 17.1638 2.32031 16.5989 3.01468 16.5989H13.7086C14.5343 16.5989 15.3104 16.9205 15.8943 17.5042L17.7347 19.3446C16.5833 20.545 15.8748 22.1732 15.8748 23.9639C15.8748 24.1806 15.8857 24.3973 15.9066 24.6126H8.47071C8.47078 24.5999 8.4717 24.5873 8.4717 24.5745C8.47162 22.2388 6.57146 20.3386 4.23581 20.3386ZM17.0588 24.6126C17.0338 24.3978 17.0196 24.181 17.0196 23.9639C17.0196 20.9128 19.5018 18.4306 22.5528 18.4306C23.6673 18.4306 24.7297 18.7566 25.6438 19.3746V20.2342C24.8043 19.5373 23.7267 19.1175 22.5528 19.1175C19.8805 19.1175 17.7065 21.2916 17.7065 23.9639C17.7065 24.184 17.7226 24.4002 17.7511 24.6126H17.0588ZM22.5528 27.6655C20.5118 27.6655 18.8513 26.0049 18.8513 23.9639C18.8513 21.9228 20.5118 20.2623 22.5528 20.2623C24.5939 20.2623 26.2544 21.9228 26.2544 23.9639C26.2544 26.0049 24.5939 27.6655 22.5528 27.6655ZM25.6438 18.0418C25.2295 17.8245 24.7951 17.6536 24.3464 17.529V14.7672H25.6438V18.0418Z" fill="black"/>
</g>
<defs>
<clipPath id="clip0_562_528">
<rect width="39" height="29" fill="white"/>
</clipPath>
</defs>
</svg>
