<svg width="36" height="36" viewBox="0 0 36 36" fill="none" xmlns="http://www.w3.org/2000/svg">
<g clip-path="url(#clip0_562_563)">
<path d="M35.0819 24.8227H30.1774V16.7548C30.1774 16.4635 29.9414 16.2274 29.6501 16.2274C29.3588 16.2274 29.1227 16.4635 29.1227 16.7548V24.8227C28.0427 24.8227 21.1139 24.8227 19.9594 24.8227V22.5375C19.9594 22.2462 19.7234 22.0102 19.4321 22.0102H14.1368C14.1368 21.3618 14.1368 10.515 14.1368 9.43912H20.1259V11.6085C20.1259 12.0729 20.5036 12.4506 20.968 12.4506H22.2915C22.7559 12.4506 23.1337 12.0729 23.1337 11.6085V9.43912H29.1228V14.6464C29.1228 14.9377 29.3588 15.1737 29.6502 15.1737C29.9415 15.1737 30.1775 14.9377 30.1775 14.6464V9.30264C30.1775 8.79639 29.7656 8.38443 29.2593 8.38443C26.6708 8.38443 20.5691 8.38443 18.1601 8.38443V0.932859C18.1601 0.426609 17.7482 0.0146484 17.2419 0.0146484H7.55634C7.05002 0.0146484 6.63813 0.426539 6.63813 0.932859V4.26679C6.63813 4.5581 6.87424 4.79414 7.16548 4.79414C7.45671 4.79414 7.69282 4.5581 7.69282 4.26679V1.06933H10.8952V3.23876C10.8952 3.7031 11.2729 4.08082 11.7373 4.08082H13.0609C13.5252 4.08082 13.903 3.7031 13.903 3.23876V1.06933H17.1053V8.38443H13.6095C13.3182 8.38443 13.0821 8.62047 13.0821 8.91178V13.3063H7.69289V6.37518C7.69289 6.08388 7.45678 5.84784 7.16555 5.84784C6.87431 5.84784 6.6382 6.08388 6.6382 6.37518V13.3064H3.53306C3.02674 13.3064 2.61485 13.7182 2.61485 14.2245V22.0102H0.918141C0.411891 22.0102 0 22.4221 0 22.9284V35.4602C0 35.7515 0.236109 35.9876 0.527344 35.9876H6.11128C6.40252 35.9876 6.63863 35.7515 6.63863 35.4602C6.63863 35.1689 6.40252 34.9329 6.11128 34.9329H1.05469V23.0649H8.47582V25.2342C8.47582 25.6986 8.85361 26.0764 9.31788 26.0764H10.6414C11.1058 26.0764 11.4835 25.6986 11.4835 25.2342V23.0649H18.9046V34.9329H8.21967C7.92844 34.9329 7.69233 35.1689 7.69233 35.4602C7.69233 35.7515 7.92844 35.9876 8.21967 35.9876H35.4726C35.7639 35.9876 35.9999 35.7515 35.9999 35.4602V25.7409C36 25.2347 35.5881 24.8227 35.0819 24.8227ZM12.8482 3.02606H11.9499V1.0694H12.8482V3.02606ZM22.0789 9.43912V11.3958H21.1806V9.43912H22.0789ZM7.92661 14.361H8.82499V16.3177H7.92661V14.361ZM3.66954 14.361H6.87192V16.5304C6.87192 16.9947 7.24971 17.3725 7.71399 17.3725H9.03762C9.50196 17.3725 9.87968 16.9947 9.87968 16.5304V14.361H13.0821V22.0102C11.0436 22.0102 5.37328 22.0102 3.66954 22.0102V14.361ZM10.4288 25.0216H9.53051V23.0649H10.4288V25.0216ZM27.9015 25.8774V27.8341H27.0032V25.8774H27.9015ZM34.9453 34.9329H19.9594V25.8774H25.9485V28.0467C25.9485 28.5111 26.3263 28.8889 26.7906 28.8889H28.1142C28.5785 28.8889 28.9563 28.5111 28.9563 28.0467V25.8774H34.9454V34.9329H34.9453Z" fill="black"/>
</g>
<defs>
<clipPath id="clip0_562_563">
<rect width="36" height="36" fill="white"/>
</clipPath>
</defs>
</svg>
